<svg xmlns="http://www.w3.org/2000/svg" viewBox="-5.35 12.26 418.72 482.72" fill="#000">

  <path d="M377.15,143.16c-2.79-.21-3.04-2.15-4.54-3.58-2.32-2.19-3.6-.39-2.62-5.09l7.96-23.52c-4.59,6.01-7.28,13.76-10.62,20.59-.62.05-1.21.16-1.77-.24-.64-.46-5.55-12.7-5.16-14.03.66-2.25,10.37-7.91,11.67-11.02l-13.74,7.6c-.89-.26-6.68-12.16-6.83-13.86-.41-4.47,3.08-10.29,2.91-14.94-2.31,2.61-2.85,7.01-4.56,9.87-.56.93-1.91,1.36-1.95,1.7-.21,1.53,1.34,3.76-.5,6.33-.04.61-1.1.46-1.46.3-1.03-.44-11.18-15.36-13.31-17.89-26.53-31.53-68.24-53.42-109.25-57.93-6.67-.73-20.28-2.05-25.86-1.3-18.01,2.4-31.74,2.92-49.42,8.87-15.32,5.15-37.13,15.38-48.85,26.49-.48.45-1.66,1.36,0,1.18,22.52-15.71,48.23-27.19,75.5-31.64,6.32-1.03,14.77-2.25,21.07-2.53,2.95-.13,3.28,1.51,2.09,3.91-1.26,1.6-13.32.62-16.26.8-19.23,1.21-41.45,9.04-58.26,18.27-12.19,6.69-23.9,14.75-33.83,24.45l1.16.86c-.03-.45.08-.85.44-1.15,12.42-10.3,25.87-19.61,40.56-26.42,20.72-9.6,43.26-14.5,66.13-14.81l-.26,2.98c-.72,1.05-4.44.39-5.91.56-52.82,5.97-95.77,30.16-124.16,75.4-4.06,6.47-7.31,13.42-11.33,19.92-1.18.38-10.66-4.67-12.36-5.74-1.04-.65-3.55-2.05-4.01-3.05-1.67-3.62,2.86-7.6,2.35-11.18-2.28,1.92-3.48,7.73-5.31,9.42-.78.72-1.95.5-2.06.59-.14.12,1.25,2.66.47,3.67l-6.96,22.8-9.99-3.51,9.35,6.87c-.3,2.21-.25,10.79-3.17,10.79h-9.71c-.12.85,1.62.92,2.22,1.01,1.98.3,6.69.14,8.13,1.29,1.72,1.36.93,5.78-.79,7.13-3.41,2.69-11.96,4.66-16.04,7.05v1.18l16.48-3.54c-.7,34.18,6.7,68.72,26.4,96.96.11,1.19-9.14,8.53-10.82,10.18-12,11.81-22.36,26.89-23.82,44.18l8.13-16.88c6.58-11.66,20.76-27.01,32.66-33.27.85-.45,2.41-1.58,3.34-.78l-24.12,22.09c-.19.74-.07,1.56.86,1.16,1.63-.69,6.83-5.5,8.95-6.95,12.99-8.92,27.43-15.35,41.97-21.31.38,1.54-.49,1.03-1.11,1.52-11.48,9.08-27.77,15.87-40.04,24.73-24.61,17.8-37.03,49.58-28.02,79.15.73.97.88.27,1.47-.32,1.63-1.61,3.05-5.25,4.48-7.3,20.03-28.81,39.38-27.41,67.56-41.93,5.06-2.61,9.51-6.06,14.49-8.77.14-.63.17-1.56-.87-1.16-1.21.46-4.28,3.2-5.89,4.12-14.55,8.3-32.14,13.29-47.68,19.43l-.3-1.17c26.89-15.44,57.76-19.38,73.19-49.56,4.1-8.01,4.79-14.49,7.43-22.6.25-.77,0-1.83,1.19-2.05-.99,24.31-10.19,50.67-32.19,63.47-12.31,7.16-26.99,9.14-39.83,14.92-15.96,7.19-28.11,20.55-36.28,35.83,1.1.26,1.4-.61,2.06-1.17,19.93-16.78,48.25-32.45,74.68-20.54,43.64,19.66,86.79,72.01,114.8,110.09.22.31.63,2.15,1.52,1.11,1-1.18-15.03-23.37-16.82-25.85-15.53-21.52-33.7-46.24-50.88-66.27-8.89-10.36-18.7-19.41-29.99-27.1,5.45-4.76,12.61-7.69,15.29-15.01-3.58,3.24-6.96,6.6-10.99,9.31-2.37,1.59-4.89,4.03-7.83,3.64-.08-1.26,2.06-2.45,2.99-3.19,2.74-2.15,5.9-3.86,8.5-6.22,3.47-3.13,7.32-9.94,10.27-12.15,1.25-.94,2.13-.25,2.66-.79.88-.89,1.09-3.27,2.36-4.15-.01,6.71-2.74,13.83-4.26,20.47l-.17,4.84c2.55-6.72,5.13-13.56,6.79-20.59,2.16-9.12,2.67-19.11,4.97-28.02.25-.97-.6-1.72,1.19-1.43l-.58,47.69,1.75-9.13,1.26-16.4,1.1-.67.88.9c4.29,19.59,7.42,39.53,12.24,58.99,4.06,16.38,9.42,32.09,21.91,44.03.4-1.49-2.13-3.54-3.14-5.11-14.31-22.36-19.41-52.17-23.78-78.07-.2-1.19-2.47-4.92.13-4.56l5.6,21.19c2.54,9.62,4.37,19.43,7.67,28.83,6.88,19.57,21.18,34.36,29.99,53.02.72-.38.17-1.7-.05-2.31-4.03-11.28-8.1-21.39-9.38-33.61-.06-.62-.85-1.89.29-1.76,11.13,24.66,25.28,48.3,31.8,74.77,1.65.34,1.28-.76,1.11-2-2.1-15.95-10.16-30.67-15.24-45.69l20.59,31.5c1.53.49-.48-3.28-.59-3.53-3.74-8.48-8.45-16.72-11.77-25.32l1.17-.29c2.26,3.4,5.43,6.16,7.91,9.46,5.05,6.72,10,14.67,13.3,22.32.83.04,1.42.29,1.11-.81-3.18-11.16-10.13-23.17-17.04-32.43-12.74-17.09-39.34-37.84-24.91-61.47.7-1.15,1.65-3.41,3.33-2.96,3.8,6.13,21.34,11.14,22.21,17.87.15,1.14.08,2.88-.16,4.02-.16.78-3.15,5.08-1.34,5.12,4.02-1.81,7.35-3.08,10.69-6.08.65-.59,3.86-5.82,3.63-1.97l-4.59,6.89,5.01-2.94c2.42-.14-.99,2.33-.3,2.93,6.92.16,10.16-6.39,14.42-10.01,3.88-3.29,6.77-3.46,9.14-9.11,4-9.54.7-15.43-1.04-24.3-2.04-10.41-.28-7.96,7.48-11.07,46.68-18.71,82.36-62.95,94.62-111.42,1.97-7.78,3.05-15.82,4.94-23.61,1.39-1.19,14.85,3.5,17.6,3.47-.15-1.02-1.19-1-1.89-1.34-5.12-2.46-11.03-3.57-15.76-6.61v-15.6l10,5.89c.26-1.11-.62-1.4-1.17-2.06-1.24-1.48-9.05-8.4-8.83-9.41.18-.84,1.19-.78,1.88-.76,5.86.19,11.67,1.87,17.54,1.63-.21-1.18-1.27-.94-2.04-1.19-6.32-2.04-14.38-3.44-20.32-6.17-9.51-4.37,6.28-12.57,10-15.02.36-3.12-5.17,1.36-5.88.6l1.73-7.24c.7-1.22,15.53-5.63,18.24-6.63,1.34-.49,3.47-.75,4.16-2.02l-22.59,3.92ZM357.15,120.46c.71-.19,1.27-.18,1.66.53l5.51,12.79c.84,2.49-2.66,4.25-4.34,2.52-.54-.56-4.4-11.63-4.45-12.69-.05-1.2.32-2.81,1.61-3.16ZM199.9,178.69c-.38,0-.97.17-.88-.3l1.17-1.47c-1.71-.42-3.03.94-4.46,1.15-3.19.46-8.06-2.69-10.84-4.39-.05-1.48,10.49-.77,12.05-.89,7.35-.56,14.85-3.31,22.08-.58.25,1.33-.07.94-.75,1.31-1.61.89-16.58,5.14-18.38,5.17ZM216.15,223.18l-10.07,7.31c-.37-3.09,10.13-9.71,11.18-8.82.59.5-.3,1.54-1.11,1.52ZM181.92,153.69c-20.86-7.69-59.03-13.08-80.84-9.68-15.91,2.48-43.23,13.55-46.71,31.58-.86,4.44.25,4.6,2.79,7.52l-5.28,1.47c-.69-13,6.5-26.99,16.87-34.64,26.63-19.64,70.62-13.93,100.98-7.01,23.48,5.35,44.08,24.71,68.38,22.15,12.08-1.27,22.07-10.36,32.73-15.24.2,1.13-.18,1.6-.84,2.39-1.61,1.94-7.46,6.64-9.74,8.51-10.41,8.51-16.73,12.65-30.93,11.49-16.72-1.36-31.98-12.86-47.39-18.54ZM72.57,165.33c-10.7-3.24,2.86-10.74,4.01-9.62-.42,3.58,1.85,11.39-4.01,9.62ZM68.24,177.98c-1.89,3.29-11.86.8-9.47-5.02,2.38-5.77,11.41,1.64,9.47,5.02ZM70.36,188.74l.69,1.15c-.58,1.53.25,4.21-2.1,4.09l-.59-5.3,2.01.05ZM65.03,189.95c1.74,1.75,3.1,7.1,1.38,9.18-.8.96-3.08,1.14-3.95,2.23l4.11-.29c1.05,1.06-6.54,14.35-7.98,15.86-.82.86-1.12,1.49-2.61,1.22-.32-5.72-2.49-11.8-2.94-17.38-.7-8.81,3.37-11.78,11.98-10.8ZM58.2,220.64l13.66-18.59,1.79-.4c-.15,5.06-2.06,10.21-4.59,14.54-.96,1.63-8.26,11.46-9.24,11.35-1.31-1.91-2.76-4.63-1.61-6.9ZM69.53,168.09c.68-.78,5.98,5.21,6.78,5.87,15.09,12.37,34.36,7.34,51.48,2.96-3.19,10.5-15.93,9.63-24.58,11.91l-2.2,16.34-3.19-15.65c-4.26-1.6-9.15-1.95-13.56-3.51-8.14-2.88-14.37-8.92-14.74-17.93ZM79.53,161.02l.59-8.24c.73-.75,5.7,1.69,6.47,2.67.21.93-6.27,6.4-7.06,5.58ZM135.45,146.89c5.68-.87,4.69,5.52,5.29,9.42-3.22,1.82-5.84-8.87-5.29-9.42ZM148.4,159.26c.23,1.11-.56,1.42-1.22,2.01-5.38,4.75-9.84.89-15.85-.54l.36-1.48c5.7-.34,11.08-1.55,16.72.01ZM135.44,156.6c-.03,1.48-6.91,1.99-8.5,2.09-13.71.83-22.25-4.07-34.46-8.86-.22-1.14.83-1.79,1.74-2.08,5.93-1.88,9.36,2.17,14.34,3.96,7.1,2.56,16.63,3.13,24.25,4.01,1.03.12,1.91-.25,2.63.89ZM127.2,167.5c-.28,3.65-.66,8.28-5.29,8.24-.51-.46,4.06-9.64,5.29-8.24ZM111.9,175.44c-1.74,2.11-4.1,4.53-7.06,4.41-.27-1.5.02-1.25.72-1.94.8-.79,6.86-5.16,7.51-4.53.25,1.11-.63,1.4-1.17,2.06ZM106.59,158.37l-16.47,4.41c-.33-1.66.48-.94,1.26-1.36,3.8-2.04,11.86-6.79,15.2-3.05ZM113.49,237.08c13.51-8.21,27.9-15.1,40.21-25.13,1.32-1.08,10.8-10.59,11.76-9.72-8.36,13.7-19.31,22.56-33.44,29.84-8.57,4.41-19.19,9.46-28.07,13.13-1.23.51-2.42,1.27-3.82,1.18,3.6-3.66,8.88-6.58,13.36-9.3ZM129.85,185.13c-3.75,3.46-6.99,7.64-10.7,11.07-.65.61-.38,1.07-1.95.72,12.21-21.07,31.39-40.47,57.09-42.38.25,1.21-.6,1.37-1.35,1.88-3.98,2.69-10.21,5.02-14.72,7.65-10.11,5.92-19.79,13.13-28.38,21.06ZM167.23,151.9c.27,1.27-1.29,1.25-1.98,1.54-.95.39-7.14,2.54-7.43,2.28-1.58-1.45,8.86-6.47,9.41-3.82ZM105.19,121.62c-1.48,1.97-4.74,8.06-6.21,9.09-.42.29-1.06.64-1.19-.04-.32-.61-.18-3.84-1.47-3.21-1.53.75-3,7.81-5.31,10-1.94,1.83-4.54,1.99-7.1,2.33-1.84.25-.43-3.33-.12-4.25,4.84-14.18,19.77-32.15,30.76-42.26,20.38-18.75,48.87-31.49,76.6-34.05,2.01-.19,5.25-.62,6.7.81v8.54c-10.26,1.41-20.25,2.91-30.14,6.06-26.08,8.32-46.32,25.38-62.52,46.98ZM135.45,135.7c-.26-1.19.26-1.57.85-2.38,1.06-1.45,5.01-5.22,6.5-6.45.66-.55.95-1.43,2.06-1.17.8.87-6.26,11.76-9.41,10ZM119.29,133.9c-1.44-.25-2.49-1.17-3.61-1.98-2.51-1.8-5.17-5.09-7.31-7.41,5.58,1.47,10.59,5.44,15.61,8.23,1.05,1.45-3.96,1.28-4.69,1.15ZM266.71,114.5c-3.76.8-7.6,1.48-11.31,2.53-5.42,1.54-12.52,5.17-18.02,3.56-.87-.25-5.11-2.86-5.4-3.44-.49-.98.7-.95,1.19-1.14,6.91-2.64,21.36-6.56,28.52-6.21.83.04,4.99.72,5.01,1.47l-4.11.89c-.55,2.77,4.65-.42,4.12,2.35ZM356.76,138.06c.2,1.05-.51,1.52-1.33,1.91-4.67,2.2-12.32,2.88-17.38,4.99-3.72,1.55-5.03,4.68-9.51,1.9-1.36-1.96,5.84-5.36,7.21-5.96,1.43-.62,7.26-2.83,8.35-2.83h12.66ZM352.43,125.74c1.78-.31,4.73,9.56,4.33,9.96-6.3,1.69-9.77-6.4-4.33-9.96ZM331.45,140.4c.21-2.88,11.91-13.28,13.54-11.77-1.93,6.61-6.56,11.01-13.54,11.77ZM329.99,134.52c-1.53-.36-3.5-17.3-4.13-20.04-.24-1.06.06-2.08-1.47-1.74v16.49c-.7-.06-1.26.32-1.81-.37-.85-1.09-1.91-3.79-2.89-5.24-15.84-23.34-35.88-43-62.01-54.55-17.84-7.88-37.02-11.61-56.45-12.86-.43-.12-1.04-1.23-1.04-1.46v-14.43c21.84-1.14,43.57,3.55,63.55,12.09,29.98,12.81,55.71,34.21,72.67,62.14.99,1.62,4.96,7.86,5.04,9.12.19,3.15-8.85,8.9-11.46,10.85ZM203.43,82.71c13.44-1.24,33.98,2.89,46.77,7.39,6.29,2.21,12.15,5.37,18.27,7.93.04.98.31,1.29-.85,1.15-2.98-.37-7.61-2.5-10.79-3.35-12.75-3.38-25.81-6.08-38.83-8.26-4.74-.79-11.16-.83-15.58-2.1-3.2-.92-1.91-2.49,1.01-2.76ZM208.07,72.18c2.63.24,19.27,3.48,20.38,4.65.02,1.02.34,1.26-.82,1.12-8.81-1.02-17.66-2.52-26.49-3.49-1.7-3.27,4.77-2.48,6.94-2.28ZM212.25,69.77c-3.8-.35-7.78.61-11.47-.6v-10.01c50.49-.78,101.38,31.06,122.44,76.83-.74,1.05-1.25-.23-1.67-.69-3.84-4.18-6.17-10.41-10.4-14.91-3.06-3.26-7.38-5.72-10.29-9.13-8.45-9.91-10.33-16.96-23.16-23.93-11.77-6.4-51.67-16.28-65.45-17.55ZM317.96,140.12c-.05.92-.1,1.48-.93,2.04-4.24-1.61-2.67-7.54-2.06-11.17.81-.16,1.41.2,1.65.99.19.62,1.36,7.62,1.33,8.14ZM293.95,118.16c.49.13,1.24.82,1.01,1.05l-4.67,1.55,1.73,15.54h-2.95v-15.02c-.09-.28-.65-.71-.98-.81-1.71-.54-13.67,3.82-16.24,4.79-3.97,1.51-8.2,4.69-12.22,4.26-.05-.95.9-1.46,1.5-2.04,6.55-6.26,24.15-11.62,32.82-9.31ZM278.89,150.9c-10.58-6.22-33.61-19.04-41.4-27.18-.52-.55-.76-1.37-1.38-1.86.07-.59.91-.31,1.33-.16,4.38,1.6,12.2,7.07,16.9,9.59,13.43,7.18,27.79,15.13,41.59,21.39,11.91,5.4,16.42,6.99,29.92,6.55,3.64-.12,8.87-2.67,11.49,1.48-19.53,13.23-41.05.41-58.45-9.82ZM338.51,165.41c2.85-.68,1.6,2.55-.4,3.14-1.46.43-3.34-.02-4.88.12-.13-1.86,3.89-2.93,5.28-3.26ZM286.99,159.27c2.2,2.65,9,16.1,10.36,19.66.35.92.75,1.62.54,2.69l-16.99-23.34.87-1.36c1.9.19,3.99.86,5.22,2.35ZM189.6,144.53c.52.53,12.2-4.54,14-5.12,7.6-2.46,22.15-5.97,29.86-4.88.82.12,1-.33.88.89-1.89,3.75-5.83,5.49-9.78,6.11-1.5.24-3.13-.15-4.59.12-9.1,1.69-17.26,4.68-25.81,8.08l-12.79-6.07,18.24-12.65c.64.61-8.4,10.13-9.15,11.15-.6.81-1.1,1.2-.85,2.38ZM207.85,156.02c.53-1.13,1.51-.8,2.45-.75,6.9.36,13.45,4.27,19.91,6.34.24,1.54-.27,1.2-1.48,1.19-3.9-.04-11.77-2.42-15.56-3.87-.65-.58-5.81-1.85-5.32-2.91ZM222.56,151c3.14-3.57,12.97-15.65,16.93-16.37,1.97-.36,8.04,1.22,10.14,1.96.87.3,10.4,4.8,8.83,6.17l-20.77-1.64c-5.32,2.61-9.51,8.13-15.13,9.88ZM240.61,155.82c2.31-1.62,5.22-3.51,7.85-4.51,1.87-.71,8.51-3.13,6.28.71-3.69,2.24-6.99,5.67-10.46,8.07-3.47,2.4-5.56,3.92-9.36.63-.15-.64,4.79-4.27,5.69-4.9ZM264.94,149.83l-4.52,3.42-8.42,4.23c-1.09-.99,10.59-9.17,12.95-7.65ZM233.16,122.74c-2.52.61-5.15.9-7.68,1.45-1.26.27-2.76,1.46-3.8,1.46-1.67,0-3.96-2.72-4.7-2.71-.33,0-1.18.94-2.33,1.02-15.26,1.01-27.9,1.21-42.68,6.17-6.06,2.04-11.6,5.38-17.68,7.33-.66-.61,1.59-2.48,2.08-2.92,3.91-3.63,13.46-8.39,18.55-10.29,17.69-6.61,35.39-4.77,53.86-6.72,1.81-.38,5.18,4.29,4.39,5.21ZM239.08,204.33c1.77-1.39,6.08-3.47,8.29-4.66,5.17-2.77,10.66-5.5,16.39-6.85-1.88,2.75-24.83,14.55-25.9,13.53-.21-1.05.51-1.47,1.21-2.02ZM263.62,186.78c-4.83-.8-18.45-6.43-22.64-9.15-3.5-2.27,1.49-3.9,3.97-2.78l20.58,11.5c.14,1.06-1.28.54-1.9.43ZM254.35,170.43c1.79-2.52,5.61-1.6,8.24-1.76,2.19-1.68-4.51-.99-4.7-1.18-.3-2.06,1.99-3.8,3.86-4.09,5.94.95,13.66.36,19.33,1.79,1,.25,1.72.68,2.49,1.33,1.2,1.01,2.43,3.64,3.73,4.8l-1.45.88-31.5-1.77ZM294.08,187.51c2.28.27,7.1,2.02,9.33,3.03,2.06.93,4.56,1.98,5.68,4.03-3.08-.48-5.71-2.39-8.71-3.36-1.91-.62-8.88-2.53-10.42-2.53h-12.36c-.42,0-1.68,1.04-2.65.59v-1.76c6.06.52,13.2-.7,19.13,0ZM279.95,190.46c2.8,0,6.13-.26,8.83,0,5.69.56,16.05,4.06,20.31,7.94,1.1,1,2.62,2.09,2.34,3.83-6.47-4.35-13.78-7.54-21.53-8.78-3.36-.54-7.37.3-10.84-1.23-.34-.47.56-1.76.88-1.76ZM298.2,173.38c-2.84-.59-1.34-2.74-1.73-3.54-.48-.98-3.47-1.53-2.68-4.11.29-.28,7.3.64,8.11.97.78.32.87,1.4,1.7,1.85,1.79.98,4.98,1.1,7.29,2.15.88.4,3.31,1.48,2.92,2.68-4.51-.64-11.42.87-15.6,0ZM323.49,223.41c.33-1.11,1.49-5.96,1.49-6.75v-16.19c5.68,7.66,5.8,19.35,1.69,27.89-3.3,6.86-18.66,21.95-25.24,25.98-.88.54-1.37.55-1.18-.58,8.56-8.73,19.59-18.2,23.24-30.34ZM320.9,176.59c-1.84-1.49-.68-5.32,1.62-4.25l21.88,22.83-23.5-18.58ZM337.93,183.39c3.77-.02,11.42,4.24,6.77,8.23l-6.77-8.23ZM347.93,168.38c3-2.91,6.36.76,9.41,2.35.02,1.16-11.29,3.05-12.93,2.65-.39-.33,3.14-4.62,3.53-5ZM346.14,181.31l1.02-1.93c4.51.21,14.84-4.27,18.63-2.96.52.18,1.57,1.62,1.57,1.96v16.19c-.88.87-10.11-2.61-11.34-3.52-2.62-1.93-5.2-8.68-9.88-9.75ZM363.53,171.03c-18.11-9.22-36.31-19.46-56.65-23.41-10.1-1.96-20.74-.89-29.43-7.07-.88-.62-2.1-1.19-1.91-2.5,3.41.15,6.89-.22,10.29,0,21.63,1.42,43.16,9,61.47,20.35,5.71,3.54,10.87,7.85,16.52,11.45l-.3,1.17ZM356.29,157.36c-4.43.36.58-6.24-.11-6.93l-7.65,3.53c-1.19-1.27,3.12-4.05,3.94-4.59,1.42-.95,6.96-4.39,8.28-2.93,1.71,7.21,5.01,10.17-4.46,10.93ZM349.64,104.13c.24-.64.27-1.63,1.23-.81.45.39,4.68,10.17,4.73,10.94.09,1.56-1.08,2.2-2.07,3.17-2.67-3.7-5.68-8.51-3.89-13.31ZM348.22,113.33l2.6,5.48c-.55,1.06-5.7,4.64-6.42,3.93.18-1.58,2.04-9.82,3.82-9.42ZM200.19,33.26l.07-4.06c2.55-.73,5.22-.8,7.88-.64,45.08,2.66,87.55,20.83,118.27,53.91,5.2,5.6,10.72,11.92,14.95,18.31,4.36,6.6,4.58,7.57,1.26,15.18-.28.64-.4,1.75-1.44,1.49-9.55-15.25-20.4-29.55-34.16-41.2-27.96-23.68-60.07-35.24-96.52-38.28-2.51-.21-7.39.53-9.32-.09-1.51-.49-1.55-3.06.5-3.45,2.56-.48,8.18,1.03,11.15,1.2.95.06,4.03.44,4.44-.61l-17.07-1.77ZM231.69,101.56c10.22-.51,22.42-1.58,32.2,1.34,2.14.64,5.07,1.44,6.35,3.36-14.97-3.59-29.5,2.92-44.02,5.72-16.17,3.12-32.87,3.4-48.68,8.43-1.81-.1-.59-.62.13-1.05,1.21-.71,3.12-1.5,4.46-2.01,13.22-5.05,28.27-6.79,42.2-9.01l.58-.89c-16.04,2.24-32.67,2.73-48.39,7.23-6.56,1.88-12.76,4.95-19.3,6.89,5.56-4.32,13.39-7.72,20.04-10.27,17.72-6.8,35.57-8.8,54.42-9.74ZM164.88,92.12c.55-1.13,2.31-1.64,3.42-2.16,5.54-2.61,13.91-5.03,19.98-5.92,1.59-.23,9.56-1.29,9.55.73-.48.48-.88,1.14-1.58,1.35-2.81.82-8.23.82-11.49,1.46-6.68,1.3-13.17,3.43-19.88,4.55ZM197,75.1c-.66.51-10.63,1.44-12.84,1.88-12.84,2.56-25.1,7.36-36.94,12.79-.62-.52,1.62-2.32,1.91-2.53,10.68-7.48,29.63-13.84,42.59-15.06,2.01-.19,9.27-.15,5.27,2.92ZM59.16,133.93c.63-2.58,6.25-12.75,7.91-15.7,24.32-43.52,78.24-78.21,128.74-78.53.66,0,2.03.31,2.03.91v15.6c-13.92,1.56-27.71,4.08-40.92,8.82-30.21,10.84-52.91,31.22-69.4,58.35-1.11,1.82-6.4,12.74-7.12,12.91-.81.19-1.43-.7-1.46-1.47l-2.36-16.78c-.15-.2-1.17.75-1.17.88v22.67c-5.32,1.58-11.73-3.83-16.22-6.49-.31-.4-.13-.74-.03-1.16ZM56.91,139.83l9.67,6.78c-1.05,2.43-3.59,4.18-6.2,4.34.06,1.99-1.82,8.34-4.1,8.32-1.99-.01-4.48-4.3-4.47-6.21,0-1.24,3.33-10.5,4.05-11.9.27-.52.51-1.04,1.06-1.33ZM38.05,126.28c3.77,3.61,12.52,7.24,15.57,10.9,1.99,2.39-2.93,11.81-4.46,14.38l-10.24-7.61c-1.12,1.16,13.7,15.72,3.49,13.29-2.04-.48-11.56-5.07-11.75-7.14l7.39-23.82ZM29.77,155.11c.72-.97,1.1-.42,1.91-.11,1.02.4,8.17,5.22,9.2,6.11.61.52,1.23.58.97,1.67-4.48,1.93-8.35.63-12.95.6l.87-8.26ZM34.8,168.67l-6.47,2.36v-4.71c.95-.27,7.96.75,6.47,2.35ZM31.74,172.39c4.36-2.06,10.42-5.31,14.82-2.53.45,1.57-1.45,1.5-2.56,1.83-4.8,1.42-10.72,2.49-15.68,2.86.55-1.13,2.31-1.64,3.42-2.16ZM52.84,272.83c-.8-.24-6.12-9.2-6.97-10.73-5.77-10.53-13.27-30.28-15.06-42.04-.46-3.03-.13-3.09,1.03-5.46-.7,0-1.66.11-2.09-.55-2.13-11.79-2.68-23.99-2.33-35.96,1.1-2.21,16.8-3.45,19.95-4.66l.95,1.43c-.66,2.76.86,6.36.58,8.77-.54,4.63-10.69,4.47-13.53,7.42h10.3c1.17,0,4.52-2.1,3.57,1.78-1.1,4.51-14.4,15.66-17.4,21.77,1.79,0,14.51-14.24,17.36-15.89.53.48,1.08.88,1.33,1.6,1.5,4.4,3.41,15.15,4.1,20.04.13.93-.52,1.88-.34,2.66.17.73,1.39,1.43,1.8,2.35,3.33,7.66-.37,7.83-2.93,14.4-3.1,7.95-3.55,15.82-.6,23.87.68,1.86,3.05,5.23,3.25,6.71.21,1.61-1.59,2.9-2.99,2.49ZM64.78,260.79c-.3,1.59-5.03,7.69-6.69,7.43-4.62-7.2-4.71-14.84-1.44-22.63.57-1.36,3.38-7.37,5.18-6.24.36,5.85,3.97,15.98,2.95,21.44ZM76.61,228.46c-.36,8.39-2.78,19.08-7.38,26.16-1.1-.72-.8-1.58-.9-2.62-.96-10.25.43-21.03,7.38-29.15,1.19,0,.95,4.58.91,5.61ZM23.91,355.89c-1.37.02-.34-7.38-.16-8.39,3.64-20.57,22.07-45.21,41.06-54.01.22,1.06-.57,1.42-1.16,2.07-4.19,4.6-10.1,8.92-14.44,13.81-12.06,13.59-19.33,29.49-25.3,46.51ZM37.73,344.12c-.84.05-1.41.29-1.11-.81.29-1.09,2.38-4.49,3.11-5.73,12.66-21.62,37.11-29.26,57.46-41.73.74.79-3.79,4.09-4.51,4.61-6.66,4.86-14.93,8.86-21.93,13.39-12.64,8.19-25.3,17.02-33.02,30.27ZM98.71,301.48c-8.97,7.37-19.43,12.87-30.36,16.74l32.96-20.01-2.59,3.27ZM89.54,340.59l11.95-6c11.89-6.5,19.08-16.86,26.02-28.14-1,8.11-6.46,17.62-12.28,23.34-6.38,6.28-16.66,11.2-25.69,10.8ZM134.58,367.66c10.85,9.53,20.52,22.03,29.12,33.57-.49.45-2.51-1.37-3.05-1.81-12.93-10.37-22.82-22.46-37.38-32.23-6-4.03-12.71-6.99-18.43-11.29,11.64-1.14,21.33,4.36,29.74,11.75ZM128.63,338.49c-2.69,2.65-10.32,8.68-13.78,9.51-1.28.31-2,.23-3.19-.3-2.19-1.62,4.8-4.22,6.08-5.09,5.55-3.77,11.32-8.74,15.25-14.18,2.63-3.63,4.35-7.88,7.16-11.38-.46,8.05-5.89,15.9-11.52,21.44ZM174.6,198.71c-8.11,17.94-22.41,31.22-39.63,40.43l-53.09,24.91c-.63-.62,4.31-4.7,5.01-5.28,17.91-14.79,40.98-19.58,59.68-33.92,13.6-10.43,20.13-20.21,29.72-33.88.22-.32.68-2.14,1.52-1.1.52.64-2.63,7.54-3.22,8.84ZM155.82,169.9c-2.14-1.67,4.23-4.74,5.76-4.14,15.22,6.76,30.72,13.43,45.61,20.96,1.99,1.01,4.76,1.9,5.97,3.74-19.83-4.51-38.59-12.86-57.33-20.56ZM217.83,295.56c-.06-1.18.15-.94,1.2-.9l2.36,10.01c-1.34.45-1.81-2.12-2.06-2.94-.32-1.1-1.45-5.33-1.5-6.17ZM220.21,368.27c.83-.94,6.21,5.61,5.88,5.88-.88.72-6.6-3.98-5.88-5.88ZM223.16,311.16l5.29-8.24-4.7,2.35-7.08-22.09,1.17-.87,4.43,9.41c.69-4.83-3.17-10.31-5.49-14.52-3.72-6.73-8.31-13.07-11.88-19.91.22-.74,1.29.65,1.48.87,4.65,5.33,10.38,14.18,13.66,20.49.41.8,4.33,10.89,4.87,10.14.01-.48.04-.98,0-1.47-.37-4.7-7.41-16.4-10.23-20.98-2.25-3.66-16.75-22.11-14.49-25.24l19.41,30.02c.2-1.51-.37-2.72-.95-4.05-2.9-6.61-10.22-13.67-13.41-20.74-.83-1.84-3.67-10.38-2.7-11.72,1.74,1.37,1.82,4.8,2.67,7.04,4.24,11.22,13.01,20.8,19.69,30.64.25-1.08-.36-1.63-.79-2.44-5.15-9.57-16.73-22.48-17.93-33.34-.58-5.27,9.07-11.89,13.71-12.51.68-.09,5.65-.17,3.85,1.19-1.98-.93-13.26,6.14-11.77,7.65,3.43-1.49,6-4.72,9.58-6.02,5.6-2.02,6.93-.9,10.75,3.05,2.75,2.84,7.13,8.3,10.51,10.39,4.75,2.93,7.46,2.24,12.42,1.96,1.06-.06,2.03.51,3.26.37,1.47-.16,9.46-3.77,9.98-3.27l-4.7,5.59c1.43.71,3.92-1.44,5.25-2.41,2.25-1.65,5.78-6.43,2.98.04l1.17.3,2.38-4.7,1.12.07.09,1.04,1.12.05,3.25-4.11c.47.74,1.15,1.97,1.34,2.78.33,1.46-.65,4.18,1.31,3.69l1.19-10c1.55-.18.93.03,1.18.86.46,1.53.73,3.21,1.16,4.76.26.93-.64,1.74,1.18,1.44-.08-2.88-.28-5.34,1.18-7.92l-1.7-1.69c2.91-3.86,5.42-7.28,6.41-12.17l-6.07,1.8c-.51-.12-.52-1.24-1.39-1.68-3.09-1.57-19.92-5.17-24.16-5.88-5.33-.89-11.25-1.36-16.64-1.32-.31-1.33.19-.96.73-1.35,1.56-1.13,4.1-1.49,5.15-3.35l-11.77,3.52c-.34-1.66.48-.94,1.26-1.36,5.51-2.96,21.04-12.45,25.79-13.67,1.58-.41,3.13-.32,4.73-.27l.03,2.01-7.1,3.87c5.03-.8,8.48-4.78,14.13-3.53-2.36-2.13-5.84-2.94-8.74-4.52-.77-.42-1.6.31-1.26-1.36,4.14-.86,9.53,4.8,12.81,5.19,2.29.27,5.59-.82,8.63-.44,4.46.57,19.06,6.65,21.23,10.56.26.46.69,1.55.02,1.75-4.5-2.73-9.69-6.16-15.01-6.47l13.85,7.63,1.46,2.37-5.01-1.75-.28,1.16c3.85,1.4,9.37,6.24,5,10.02-1.64,1.42-4.38,1.9-6.36,3.05-3.47,2.01-8.06,7.22-8.06,11.37v28.56c1.1.25,1.14-.36,1.67-.98,12.82-14.96,31.46-24.09,35.28-45.38,1.01-5.63.35-12.09,1.33-17.51.84-4.63,8.59-1.99,8.88,1.16.11,1.26-.55,5.39-.8,6.92-4.55,28.66-21.39,56.51-43.71,74.62l-2.05-2.94v10.3c-.5,1.79-3.41,1.5-4.85,1.32-4.16-.51-23.02-6.87-27.06-8.84-.64-.31-1.24-.59-1.53-1.3l2.83-3.83-3.53,1.18-.29-1.77c-3.69,2.42-2.86,8.13-1.94,11.94.33,1.36,1.62,1.97,1.67,3.63.13,4.14-4.15,6.01-7.18,7.6-1.88.99-9.88,4.87-11.39,5.1-2.12.32-.03-1.78.57-2.38,1.7-1.69,4.61-3.6,6.78-4.71l-.3-1.17c-7.05,2.58-13.61,6.97-19.42,11.78-.96-.59.2-1.3.59-1.77,2.15-2.56,5.13-4.81,7.36-7.36-.07-.59-.91-.31-1.33-.16-5.28,1.91-11.3,9.34-15.73,12.82ZM246.11,226.38l14.71,2.36c-.88,6.47-8.24,2.22-11.8.31-.92-.49-3.2-1.32-2.92-2.67ZM236.68,331.76c-2.58,1.66-2.99,4.56-4.41,7.06-2.13-2.29,4.85-11.85,4.41-12.36l-5.59,4.71c-2.31-3.43,10.35-12.9,11.48-11.77l-1.76,3.53,4.7-1.76-2.35,4.12c.2.21,4.18-3.16,5.29-2.06-2.36,2.64-5.36,4.99-7.63,7.67-2.44,2.88-4.2,6.15-6.48,9.11-.81-3.23,2.07-5.22,2.34-8.24ZM249.05,325.88l-11.18,13.54c-.94-2.51,9.2-15.21,11.18-13.54ZM241.1,351.18c-2.46-3.32.39-10.07,2.84-12.75.18-.2,1.95-1.5,1.57.09l-4.4,12.66ZM245.82,354.13c-2.61-4.38-1.39-10.03,1.22-14.07.63-.98,1.85-3.04,3.18-2.99-1.86,5.12-2.94,9.56-3.56,14.99-.1.92.66,2.35-.85,2.08ZM251.26,315.71c-.93-.45-1.8-1.01-1.62-2.2,3.24.91,18.63-3.72,18.63,2.06,0,4.96-14.3,1.46-17,.14ZM369.71,179.27h.87c.28.37,1.48,1.29,1.48,1.47v15.6l-2.35-.59v-16.49ZM371.48,200.47c-3.89,51.59-38.22,104.25-84.05,128.17-3.08,1.61-16.12,8-18.71,7.81-.54-.04-1.42-.5-1.42-.86v-11.78c0-.59,3.85-4.86,4.39-6.21.43-1.07.16-2.16.45-3.08,1.39-4.25,12.61-2.39,12.85-11.9.08-3.03-1.34-5.04-1.22-7.96,3.01-.33,6.82.45,9.71,0,.33-.05,3.39-1.28,3.78-1.51,2.99-1.83,1.63-5.77,3.3-8.47,1.92-3.1,10.57-9.67,13.82-13.26,15.05-16.6,25.28-37.27,30.43-59.05.56-2.38,1.36-10.63,2.23-11.9.56-.83.72-.58,1.5-.35,1.31.37,5.89,4.76,7.03,3.87l-4.65-6.28c-.36-.8,1.83-1.75,2.16-1.83,1.51-.33,13.67,2.71,14.15,3.5l.16.78c-5.18,48.01-31.48,90.28-70.69,117.76,1.6.42,4.42-1.5,5.83-2.41,34.23-21.97,59.6-66.87,65.91-106.59.42-2.63-.85-8.78,3.01-8.47ZM365.01,153.95l-1.77-8.83c6.72-.89,8.17,7.81,1.77,8.83Z"></path>
  <path d="M132.31,394.66c-21.93-11.73-62.29-15.29-86.35-10.22-3.06.64-6.6,1.54-9.39,2.97,3.64,1.1,7.32-.57,10.9-.88,15.6-1.34,29.66-.25,44.4,5.02,14.31,5.12,27.34,13.86,39.18,23.22l.87-.28c-7.14-7.39-15.92-13.65-24.91-18.65-3.72-2.07-7.75-3.59-11.49-5.6-.78-.42-1.6.3-1.26-1.36,16.78,2.12,32.86,7.33,46.68,17.18,16.86,12.01,32.51,31.44,43.62,48.81,5.52,8.63,10,18.02,15.64,26.45.24-1.66-.61-2.97-1.18-4.41-10.6-26.89-41.04-68.51-66.7-82.24Z"></path>
  <path d="M71.58,88.59c-7.34,8.14-13.99,18.3-18.53,28.27l25.3-34.14c-.67-.65-6.07,5.09-6.77,5.88Z"></path>

</svg>
