<svg xmlns="http://www.w3.org/2000/svg" viewBox="7.09 13.34 393.83 480.56" fill="#000">

  <path d="M375.14,444.73c-2.33-2.41-4.39-10.76-6.99-15.01-1.83-2.99-6.24-3.73-7.09-6.39-1.71-5.38,1.27-14.47-.86-18.13-1.14-1.96-17.8-11.9-19.37-17.43,5.87-6.87,6.15-11.4,8.74-18.58-.09.44-5.04,8.33-7.82,4.49-4.51-6.23-3.09-19.23-3.28-26.72h6.65s.03,8.89.03,8.89l4.4-4.42c-.69,5.4,1.05,12.79.02,17.77l5.52-11.09,7.79,13.3c6.42-11.67-11.46-15.62-10.6-25.18.86-9.56,17.78-27.38,19.6-46.94,2.44-26.13-6.09-32.23-8.94-51.45-1.23-8.33,1.36-20.24-.58-30.34-1.83-9.55-9.03-10.16-10.58-19.4l11.1,2.18-4.49-3.58c-1.02-11.98,12.84-15.39,22.28-9.75-11.08-8.1-7.74-9.48-6.64-22.17l13.29-2.23-13.34-2.27c.75-5.08,3.61-10.99,2.32-16.19-.7-2.84-7.73-2.42-6.74-7.08,1.51-7.14,12.6-4.73,17.75-3.39-2.08-5.66-13.33-2.24-13.49-10.02l9.04-18.85-12.2,13.29c-4.99-4.46-8.54-6.29-5.57-13.29l-24.43.02c7.41,7.07,14.84,15.84,24.4,8.88l4.47,11.08-5.63,1.4c-17.39-5.64-38.31-20.38-55.99-23.06-18.6-2.82-34.72,7.35-50.55,6.27-10.29-.7-27.08-12.88-38.92-13.51.64-12.14,21.18-1.45,28.89-2.18l-2.23,4.37,12.27,4.46-3.37-6.6c17.85,7.34,30.58-1.32,50.09-.12,10.66.66,17.93,3.33,27.68,6.74-3.89-12.06,11.48-5.85,13.32-14.44l-13.32-3.3,4.44,6.62c-17.75,8.39-26.3,3.92-24.43-15.52l17.76,5.56-26.48-12.46,4.25-21.99-7.76,17.76c-5.01,6.14-20.45-3.72-26.27-7.05-21.1-12.05-18.28-20.15-47.08-17.39-4.3.41-14.43,2.32-16.63,6.65l28.88,11.18c-3.65,17.3-13.2,15.6-24.3,23.43-11.71,8.26-17.66,15.18-31.97,21.37-35.98,15.56-74.22,5.99-107.65,21.17-2.49,1.13-9.6,9.18-12.34,11.03-2.25,1.51-6.25.53-9.44,2.79-2.15,1.52-10.43,14.74-6.53,13.49l10-4.42-5.54,13.36-5.58-1.54-2.22-14.05-6.62,4.44c-.77-9.92,6.41-13.95,13.3-18.9l-6.33-1.36-2.58-17.5c-3.81-.56-2.37,5.28-2.18,7.73.37,4.85,2.84,9.45,2.21,14.47l-19.99.03,15.54,4.45c-6.44,9.21-1.03,21.34-15.53,22.22l13.31-.03c2.73,18.39,9,26.44-8.88,37.76l17.49-6.35,15.86,16.45-4.44,9.92,6.66-3.32c-6.42,16.94-19.66,19.98-19.18,41.85.15,7.11,4.75,13.89,5.16,18.43,1.45,15.9-4.45,40.99,2.42,55.74,4.79,10.28,22.83,24.29,7.15,35.09l4.43,2.2c-14.14,17.97-30.44,26.62-21.08,52.21,2.53,6.9,10.92,11.92,5.65,20.78-1.74,2.92-6.43.67-9.03,2.49-2.13,1.48-1.83,5.68-3.46,7.73-1.93,2.42-5.96,1.23-5.38,4.56,12.44-2.37,24.81-6.75,36.69-11.05,10.87-3.93,26.15-12.84,35.57-15.56,6.77-1.95.21,9.27,5.48,8.84l.05-11.09,3.31,6.68,1.13-8.9,4.4,11.09,2.27-17.75c3.88-.52,2.09,5.05,2.2,7.74.25,6.29-.2,12.65.02,18.93h6.63l.04-26.67,4.4,4.42c-1.27-17.54,1.01-34.05,4.49-51.09,2.35-.89,4.42,7.32,4.42,7.77v38.89h2.22v-42.22l4.47,13.34,4.41-2.27.03,6.74,4.41-2.28,4.46,35.57v-31.11h2.2c-2.22,4.77,2.24,12.03,2.24,14.44v34.44h2.22v-42.22l4.47,28.88,2.22-22.2c2.35-.89,4.42,7.32,4.42,7.77v38.89l4.47-37.77c2.06-.14,4.42,11.56,4.42,12.21v32.22h2.22v-34.44c0-.45,2.07-8.66,4.42-7.77,1.22,16.66,1.56,33.3,2.25,50.01.11,2.73-1.69,8.25,2.22,7.76v-55.56h2.22v40h2.2c-1.37-3.49,2.24-8.35,2.24-10v-32.22h2.22v60h2.22v-53.33h2.22v42.22l6.67-35.56v42.22h2.22v-51.11h2.22v42.22c2.95-1.03,3.92-11.84,4.17-14.72.32-3.71-.45-25.31,1.39-25.3l5.56,40.02v-42.22c1.44-.17,4.44,2.95,4.44,3.33v34.44h2.22v-46.67l4.42,11.1.05-15.53,4.4,8.87,2.24-11.1v35.56l6.67-51.11v60h2.22v-47.78c0-1.96,4.14-8.06,2.24-12.21h2.2s0,64.43,0,64.43h2.22v-71.11l4.42,13.32.05-22.2,3.31,8.9,3.31-8.9,2.22,15.53.05-24.42,2.22,11.09,4.4-8.87c1.22,9.51-3.44,27.84,4.63,34.27,4.49,3.57,10.83.81,8.74,12.38l3.3-4.43c24.43,18.28,54.1,29.41,83.35,37.75-1.12-4.81-7.14-3.7-9.99-6.65ZM359.61,135.86c8.53-1.74,8.68,16.91,7.72,22.21-8.01.42-15.54-20.61-7.72-22.21ZM244.37,62.12c9.79,4.1,19.29,13.09,30.09,16.62,9.7,3.17,20.84,3.05,30.66,6.03.44,10.87-18.85-.56-24.44-.01l6.66,5.52c-4.21,10.68-24.49-8.48-30.54-11.65-8.22-4.31-17.48-.22-18.34-14.96.71-3.68,3.23-2.67,5.91-1.55ZM357.91,258.71c1.41-2.15-.2-3.98,4.97-2.86,10.88,26.91,7.71,61.5-13.27,82.21-8.87-16.88,5.93-23.48,6.67-41.21.46-11.06-4.74-28.43,1.64-38.15ZM193.09,113.45l1.88-4.19c8.19,2.66,17.35,6.32,25.75,7.87,13.07,2.41,32.27-1.7,37.74,14.26-12.35,5.71-17.28-2.98-26.69-5.52-3.97-1.07-8.65-.32-13.71-1.7-10.15-2.77-21.28-5.63-31.16-9-2.34-.8-6.72-.48-6.2-3.74l12.39,2.02ZM56.24,333.63c-4.53-2.82-6.94-16.2-6.77-21.05.13-3.83,2.67-14.79,6.77-16.73v37.78ZM82.43,394.26c-3.63,16.33-35.18,11.25-28.43,37.13-2.94,3.57-10.39-9.69-11.2-12.1-8.97-26.56,12.04-31.25,22.31-51.25l4.43,5.57c.35-4.81-1.71-9.02-1.6-13.84.38-17.27,12.61-3.47,14.43,6.6,1.19,6.57,1.46,21.53.05,27.89ZM82.91,220.27l4.43,1.12-25.6,23.3-9.93,15.59c-2.75-29.99,29.98-41.97,47.77-59.98,1.83,8.83-14.29,11.57-16.67,19.97ZM95.1,171.32c-6.61,5.07-9.43,15.37-16.61,20.08.08-13.96,16.17-29.51,28.85-33.36.6-3.65-2.92-2.18-5.26-1.95-4.6.45-16.28,5.45-19.15-.22,11.83-3.36,25.9-.77,37.12-6.22,14.05-6.82,18.55-31.46,36.19-31.57l-23.23,31.19c-8.9,10.09-28.84,15.1-37.9,22.05ZM244.81,344.44c-8.29.05-10.4-.93-14.12,6.92-3.4-9.28-21.42-10.72-14.44-21.16,9.28,2.43,6.95-7.08,15.56-5.49-1.06-19.55-54.45-10.1-48.89-2.25,3.04,1.95,15.52,8.92,15.32,11.95-.44,6.5-11.31,12.26-16.78,14.56l-4-3.99-5.64,2.01-.03-6.72-4.28,2.11c-9.77-7.48,11.95-33.59,19.25-37.12,9.94-4.8,34.12-4.61,42.97,2.68,5.29,4.36,23.66,31.41,15.09,36.52ZM273.86,259.46l.14,31.94-6.63-2.21c1.53,8.72-.58,11.23-4.51,17.75-6.26-2.58-5.35-16.21-9.19-19.55-.59-.51-11.78,1.33-14.12-4.86l-2.2,4.43c-18.01-6.8-5.94-24.25-14.61-32.16-6.27-5.71-9.61.98-16.54,1.24-7.52.28-18.83-7.76-20.66,5.85-.71,5.27,4.09,10.82.76,16.24-3.75,6.09-24.42,7.02-27.8,9.94-4.14,3.59-3.89,14.51-7.82,18.89-9.73-7.09-4.26-20.62-5.59-31.09l-6.62,24.42-2.23-24.45c8.75,6.58,2.6-10.43,1.13-13.34-5.76-11.42-10.44-5.41-15.3-8.96-8.67-6.33-6.93-34.17.77-38.83,7.87-4.76,23.71,5.08,33.38-1.11l-6.64-11.08c9.62,10.84,17.92.05,23.28-.09,1.23-.03.69,3.69,2.75,4.4,24.25,8.42,20.05-15.99,16.28-32.07-18.04-6.31-33.69-2.46-51.74-.51-1.87.2-5.49,4-3.9-1.69,4.85-17.33,34.24-17.23,46.62-28.95-7.12-1.19-14.39,6.09-21.25,7.66-3.42.78-3.63.12-3.16-3.17,3.06-6.11,17.2-6.04,19.72-8.06.35-.28-3.24-4.54,3.09-7.07,3.83-1.53,6.55.46,9.03-.07,3.08-.67,4.12-4.8,8.14-3.69l-4.44,6.63,38.73-2.08c11.47.56,13.97,9.3,23.48,11.01l-4.42,3.3c6.68,3.21,8.09,7.19,8.91,14.45l11.12-3.45,8.84,15.69c-8.42.86-17.28-2.77-25.57-3.32-34.17-2.27-47.6,3.57-34.39,39.97,9.4-10.39,17.48,1.03,24.37-11.11,1.42,11.33,12.38,5.7,20.04,4.47l-6.67,4.47c12.79,16.87,35.92-10.66,37.89,23.36,1.1,18.98-9.22,18.41-22.49,26.87ZM294.01,142.49l-1.1,8.93-4.8-9c-13.73-.3-22.14,4.22-34.07-4.39h22.19c-2.41-5.05-14.41-2.02-13.3-11.08.76-.76,17.45,6.67,18.87,6.67h32.22l-6.67-8.87c8.73,3.04,13.93,9,24.44,6.63l-2.02-5.66,4.39-2.25-2.36-5.39c5.85-1.46,5.75,5.7,8.94,7.75,3.95,2.54,10.53-1.67,8.83,5.53-17.82,6.97-36.03,12.97-55.56,11.13ZM325.15,148.04c-1.79-4.3,3.97-4.17,6.22-2.79.75.46,1.98,5.17,4.85,7.26,5.1,3.71,12.78,1.78,15.58,7.76-12.11,4.92-19.11-4.17-26.64-12.23ZM336.43,317.16c1.07-6.42,4.39-12.23,5.95-18.51l2.73-22.79c6.71,18.16-3.4,31.79-6.67,48.86-3.8.6-2.39-5.31-2.01-7.56ZM349.23,411.73c-1.69-1.36-6.65.64-8.24-.58l-2.5-13.07c7.69.75,20.24,14.48,19.93,21.13-.59,12.56-8.59-7.01-9.18-7.48Z"></path>
  <path d="M61.02,120.73c.62-.37,8.42,2.21,13.69-2.54,2.97-2.68,5.28-16.6,12.63-12.36l-6.65,9.99c12.45.61,6.87-12.59,16.68-17.75l-5.57,13.3,67.9-8.75,34.31-15.65c-7.65.33-15.5-.69-23.14.16-4.46.49-14.64,7.36-16.83,2.07,10.36-3.51,26.38-9.02,37.16-8.35,2.81.17,13.63,8.61,9.51-1.7-19.11-7.75-40.9-5.6-60.48-.43-11.74,3.1-20.1,9.83-30.71,13.73-13.05,4.8-27.74,3.47-38.85,14.45l-12.19-31.05c-.47,13.93,12.59,35.54-2.22,44.43l-4.45-15.54,2.21,22.2c5.57,1.79,5.35-5.22,6.99-6.21Z"></path>
  <path d="M130.29,73.23c7.65-3.35,15.99-3.45,22.66-8.51l1.99,4.28c19.46-6.19,37.15-.57,55.25,6.51l21.56-11.89c-3.59-7.11-11.65-5.77-15.96-8-1.74-.9-1.88-3.05-2.54-3.38-3.01-1.51-6.93-.42-9.27-3l-5.53-22.27c-3.98-.5-2.16,4.99-1.93,7.48.48,5.37,3.25,10.99,1.94,16.94l-28.86-4.46,15.53-4.4c-17.49-1.98-30.35,1.7-43.34,13.26l-7.74-17.71,2.19,19.98-11.1-4.41,4.41,5.54c-4.68,8.63-22.22,11.2-26.34,14.74-.27.23,1.61,4.4-.36,7.21-2.29,3.26-6.73,2.33-6.6,5.8,13.24,1.61,22.73-8.75,34.04-13.7Z"></path>
  <polygon points="365.11 400.29 356.26 396.95 371.79 415.84 367.46 403.52 365.16 380.31 365.11 400.29"></polygon>

</svg>
