<svg xmlns="http://www.w3.org/2000/svg" viewBox="-9.71 13.35 427.43 480.53" fill="#000">

  <path d="M116.66,179.51c9.81.53,20.05-3.49,28.83-7.63,5.91-2.78,12.5-10.89,17.59-8.94l-6.62,7.73c14.52-.66,27.5,6.16,41.4-1.68,2.48-1.4,3.77.16,2.83-4.91l-13.27-6.64c6.84-.42,13.93,7.18,20.47,6.25,3.58-.51,14.59-7.12,17.11-10.66-19.91-3.81-38.89-13.2-59.69-11.06,4.23,11.32,14.51,1.99,22.83,4.3l3.7,6.71c-7.77-1.92-16.45,2.76-23.31,2.49-4.18-.17-3.01-4.6-4.57-4.8-10.98-1.39-35.11,23.14-45.1,24.45-.54,1.33-2.81,3.99-2.21,4.4Z"></path>
  <path d="M404.11,210.52h-26.54s-1.09-15.52-1.09-15.52l-1.11,15.5h-40.91l-5.51-13.26,8.83,2.18c-5.18-5.8-5.42-11.29-2.12-18.28,1.2-2.53,5.16-.38,4.31-3.79l-4.63-1.31,2.46-7.53-8.88-3.39,4.41-12.12-11.01,11.06,4.38-22.1-4.26,7.93-8.83-1.06-2.34,4.15-2-6.31,6.39-4.71c-19.68,5.19-8.23-1.74-11.08-13.27l-4.22,10.1-8.64.52c-2.39-1.36-5.88-13.7-7.83-16.47-5.14-7.33-23.64-23.82-31.87-26.68-5.1-1.77-10.44-2.34-15.71-3.16l-.28-6.31-2.31,6.47c-10.09.03-19.56-.66-28.63,4.57v-55.28l17.68-2.19h-17.69s-1.09-13.31-1.09-13.31l-3.17,12.33-15.61.99,17.68,2.19v53.07c-9.54-2.21-17.73-7.39-27.76-2.71l-5.39-8.33c3.61,14.39-14.08,9.01-21.13,17.6l-5.4-4.33c-.67,10.74-14.1,17.81-21.53,24.74l-5.03,21.67,24.42-3.21,2.14-12.25c4.61.19.71,7.71,3.15,11.19,4.62,6.58,20.92-2.4,27.79-2.37l-4.42-5.5,5.53-5.53,1.11,11.03c12.84,1.41,22.9,4.09,35.05-2.5l1.42-12.98,3.18,12.32,16.57,3.23,7.87-13.3-2.02,15.3,10.9,2.36-2.25-4.39,12.99-2.54,1.43-11.25c-.02,21.19,27.33,8.41,34.23,27.03-1.3,1.26-28.27-16.83-33.1-6.66,1.64-9.07-13.09-2.56-11.1,0l10.11,4.41-1.3,6.67c-3.64-1.91-6.72-4.94-10.97-5.8-12.63-2.55-41.49,24.46-54.7,27.45-13.08,2.96-25.28-2.65-37.08-1.83-9.4.66-19.69,7.62-29.12,8.15-13.25.74-28.82-6.79-40.56,5.19,5.69-16.14,19.27-11.74,30.94-13.27.54-1.33,2.81-3.99,2.21-4.4-10.24-1.48-22.18,7.26-28.74-4.43,11.35,2.36,23.85-1.51,35.91-2.82l19.36-17.09-35.36,4.39c-.45-.32,5.33-7.87-1.14-11.02-6.19-3.01,1.17,8.48-4.37,8.77l-14.39-6.56,8.8,7.72-7.72,5.46-5.53-10.97-3.32,4.44-9.92-4.44,6.62,7.73-4.4,3.28h8.85s-.18,15.38-.18,15.38l-6.5,1.23c12.44,6.53,3.48,5.12,2.3,13.14l-19.95,12.27,22.09-6.6c4.34,31.02-32.69,16.72-51.85,20.04l-3.4-6.77-3.22,6.71-21.12,2.1c8.3,1.74,22.6-4.43,25.4,4.44,14.51-10.48,37.23-.64,54.18-4.41l-3.05,15.63-14.62,2.07c.54,4.3,10.46,3.11,13.23,2.19l-2.22,13.25-4.37-8.82c4.02,13.21-4.49,15.62-7.69,22.18-2.16,4.43-.17,11.04-5.59,14.31,8.01,2.87,5.96,12.46,9.05,19.67,2.99,7,10.27,10.89,12,14.69,1.55,3.42-3.6,5.95,3.39,7.69l-13.42,29.78-4.37-4.39c1.15,11.82-3.15,22.5-2.33,34.36.82,11.87,7.4,23.26,4.54,36.38l3.28-8.82c12.97,19.43,34.44,32.29,56.4,37.56-8.63-8.18-18.47-11.29-26.48-21.04-2.52-3.07-12.92-15.73-6.72-18.72,5.51,25.89,40.54,25.73,48.69,49.82l-4.36,1.96,4.37,18.94,8.79-30.93,4.43,33.14,2.22-48.65-4.38,2.24c.06-10.62-12.89-25.17-13.32-34.5-.25-5.43,7.15-14.91,8.29-20.33.79-3.76-1.76-27.05,3.91-26.96,2.85,5.6,11.37,10.56,14.11,14.59,6.03,8.87,9.83,27.07,18.52,35.53,1.98,1.93,10.68,2.87,12.69,8.44l-4.41,2.19c14.14,16.05,7.96,45.27,8.84,66.37.11,2.71-1.68,8.21,2.21,7.72v-69.65c11.59-8.83,29.63-11.81,36.51-25.45l2.17.03c4.09,4.5,7.3,12.27,14.38,11.06l-2.2,8.81c7.93-3.48,15.27,4.03,9.73,13.08-12.24,19.97-19.69,19.6-18.57,47.78.11,2.68-1.68,8.21,2.18,7.69,3.38-7.64-.71-15.06.95-22.11,3.5-14.86,26.53-36.32,37.78-46.42,1.65-.35,1.48,2.25,1.07,3.27-5.21,12.78-29.12,27.42-36.58,45.26-.82,1.97-2.83,7.27,1.2,6.73,4.57-15.11,21.04-27.01,33.29-36.38,3.85-2.94,9.05-3.04,13.32-6.58,9.96-8.23,11.76-25.15,10.74-37.45-.33-4-14.35-43.37-9.79-43.43,6.45,17.1,14.66,34.17,12.18,53.08l4.38-8.82c1.92,13.4-5.78,32.01-15.5,41.06-3.01,2.8-5.78,1.5-7.68,3.11-2.9,2.46-26.55,20.87-23.21,24.37,20.04-18.24,51.52-30.8,53.07-61.9,3.74-.59,2.41,5.35,2.17,7.69-.81,7.73-4.04,13.95-5.62,20.95-.51,2.25-2.96,7.2,1.19,6.72l11.11-41.99,6.59,28.72c.2-6.65,4.3-15.82,3.03-22.15-1.6-7.98-24.49-40.18-22.89-41.96,15.65,10,31.08,15.41,26.54,37.58l4.42-11.06,4.37-1.04c-7.74-15.26-18.97-26.9-15.47-45.36l-2.18,12.14-4.39,1.1c-.51-5.59-5.58-8.99-7.76-13.43-.22-.46-3.17-7.45-3.29-7.95-1.21-5.34.66-12.69-.03-18.41l13.22,17.69c-2.05-4.44,3.72-10.61,3.7-12.19-.02-2.1-8.93-11.04-3.33-18.51l6.29-.27c-9.25-8.58,1.01-15.47.02-25.39l-2.22-1.12-2.21,6.61c4.41-15.37-9.05-30.65-17.7-43.12l4.4-3.27-6.61-6.66,57.49-.02,2.18,13.27v-13.27c6.25-.17,12.58.27,18.85.01,2.68-.11,8.22,1.67,7.7-2.19ZM107.77,222.69c5.98-3.58,13.24-8.41,19.95-9.97-5.19,8.18-14.17,15.21-24.31,15.45-1.24-5.92,1.56-3.8,4.36-5.48ZM82.02,357.16l-11.77,19.17c.2-13.42,3.81-26.77,15.14-34.57l11.35-27.33c-2.95,14.67,3.69,36.62-14.71,42.73ZM99.36,405.8c-1.2-1.87-4.65-5.79-1.51-7.34l14.36,15.46,1.11-4.41,18.81,19.87c-10.52-5.01-26.54-13.87-32.77-23.59ZM228.42,332.22c-4.14,12.78-19.25,4.32-11.4-6.03.31-.41,9.32-3.98-.13-6.96-3.49-1.1-22.19-1.07-25.83-.06-8.39,2.34,4.54,10.17,2.87,15.95l-9.59,5.66c-9.49-10.35-11.9-26.67,5.23-29.94,1.9-.36,22,.04,24.71.36,13.56,1.6,18.6,7.27,14.14,21.01ZM250.6,279.2c-1.47,3.29-4.87,21.19-5.71,21.95-4.64,1.56-7.58-3.38-10.49-3.95-5.06-1-11.48,5.37-13.46-6.56-.79-4.74,4.32-12.34-.33-13.79.48,4.45-13.87,13.06-16.59,13.16-6.96.24-10.04-8.8-16.59-8.74l-.04,17.66c-10.13-.15-15.84-4.44-20.97,6.62-14.87-6.9-9.56-17.64-13.15-28.84-3.66-11.41-26.37-25.78-16.69-44.11,11.57.69,12.14,7.26,17.78,12.05,8.67,7.37,29.9-3.88,41.63-3.47,1.98-28.44-6.23-19.89-22.86-21.79-10.68-1.22-18.76-6.77-29.93-5.57l27.67-23.2,3.25,11.01c-2.81-8.67,22.32-26.57,26.55-22.09l.03,26.52,4.41-24.31c13.36-.65,22.94,6.25,24.34,19.89h2.14c8.91-17.21,14.94,8.56,24.35,12.19-6.67,2.42-14.22,4.21-21.26,5.25-22.39,3.33-24.99-5.81-25.29,23.62-.04,3.59,6.64,3.69,4.57,9.8l8.58-10.02c7.51,1.01,17.45,7.57,25.21,5.28,5.63-1.66,10.55-21.37,21.68-7.61,9.11,11.26-14.81,30.02-18.85,39.06ZM162.54,226.32c8.4-1.62,9.96,3.54,13.77,9.61-12.48,13.92-34.03-5.71-13.77-9.61ZM250.59,237.15c-6.48,4.59-13.78,4.76-20.16-.07-2.45-3.12,5.59-10.02,9.48-10.77,7.14-1.37,13.76,3.46,10.67,10.84ZM282.53,298.95l5.4,26.63,10.03,26.43c-13.15-13.37-16.55-34.89-15.43-53.06ZM244.92,180.63c12.82.61,22.93,4.35,36.55,3.39,9.18-.65,19.03-6.14,27.57-8.89-15.07,17.64-46.1,19.18-64.11,5.5ZM275.86,168.49l2.24,4.39-55.31,2.22v-6.61c21.92-2.26,45.12,4.11,65.36-6.54,13.72,3.89,28.64-6.57,38.57,8.72-16.23-8.63-33.89,2.18-50.87-2.17Z"></path>
  <path d="M240.49,144.18c-12.9-2.79-24.24-7.58-37.57-2.21l25.41,10.2,12.16-7.99Z"></path>

</svg>
