<svg xmlns="http://www.w3.org/2000/svg" viewBox="-5.52 16.13 419.20 474.89" fill="#000">

  <path d="M264.56,97.4c-1.16-1.37-2.54-2.93-2.46-4.82h-2.35c-1.3,11.38-20.11,6.16-29.09,7.22l16.93-7.22c-14.93,1.49-33.78-7.14-47.21-7.49-16.53-.44-36.11,8.42-52.04,12.34l26.99,8.06,15.13-.68,2.68,7.14c20.11-9.43,36.12-19.5,54.46-.03,7.26-2.18,18.87-2.23,26.64-2.45-2.94-4.16-6.41-8.19-9.69-12.08Z"></path>
  <path d="M357.31,416.3c-9.35-9.42-13.48-17.05-15.29-30.72l-2.93,24.88-6.71,9.01c1.42-11.29,6.3-17.51,4.27-29.69-.34-2.04-3.56-11.37-6.69-11.46-1.27,8.44,10.4,21.53,0,26.62-2.69-27.78-22.96-50.57-19.37-79.9l4.79,4.82c1.46-13.5,13.48-28.26,15.81-40.99,1.19-6.52-8.34-9.11-4.9-14.68,15.01,12.54,23.51,28.26,20.57,48.41l-4.79-19.35-4.84,31.45c-5.13-10.26-.81-20.22-.95-29.84-.03-2.32-.54-13.75-3.9-13.72,2.19,15.52-18.17,38.55-16.55,51.39,1.31,10.37,11.37,20.83,16.51,29.74l3.63-6.07,10.89,12.09-.8-7.23,3.24-1.23c-12.82-11.16-21.92-24.39-19.34-42.38l4.85,19.34,2.41-7.23c2.91-2.44,1.85,9.6,5.99,2.37,11.82-20.63,18.8-58.39,7.02-79.6-18.35-33.05-75.29-42.3-73.55-89.86l10.83,16.99c5.75,7.86,14.92,10.66,21.91,16.83,13.57,11.99,20.13,27.21,33.85,38.8,5.22-7.03-3.61-11.46-5.53-16.26-3.82-9.57-5.77-20.28-10.2-29.73l14.48,26.62,1.24-9.7,6.02,3.7-9.65-15.76,21.78-.05-12.09-9.66c.47,10.71-10.36,1.38-14.69-1.38,1.46-4.62,3.67-11.56,9.83-10.72l4.86,12.1c-.35-8.08-4.8-13.93-4.82-21.79l14.48,7.26-4.82-12.08,19.36,2.37-16.93-7.27c3.2-6.3,1.84-12.54,2.42-16.93-4.28,1.71-8.85,11.4-14.7,15.57-10.89,7.76-22.56,8.63-32.74-1.04-2.89-2.74-1.61-5.89-3.47-8.43-2.63-3.59-9.83-9.07-9.61-9.72,1.67-5.1,13.26.94,14.05,1.59.4.32-1.32,3.59.25,5.69,2.88,3.85,7.52,5.53,11.13,8.43l1.22-9.67,7.23,6.07-4.82,3.6c13.95,3.32,29.66-10.47,29.06-24.21,9.8-1.49,2.9,8.4,2.41,12.12,1.6-.64,6.6.66,7.28-.01.48-.48-4.18-7.99,2.41-12.04l-7.22-3.69,7.22-8.45-9.67,4.82c.44-5,.29-5.57-4.85-4.82l-1.2,4.82-8.38-6.17-41.27-8.34,19.35-.04-2.41-9.65,9.25,3.9-1.88,5.61,17.76,5.12c1.95-.34.42-7.21,6.18-2.63-.95-8.64,6.26-8.74,9.84-14.43l-16.93-.06-1.22,7.29c-9.68-7.2-7.65-13.69-6.09-24.19l-4.83,14.51h-3.58c-6.34-10.58-15.39-2.27-25.45-7.29,5.25-9.27,2.74-22.32,7.24-33.86l-7.41,14.45-4.65-2.36c-1.99,2.84,10.91,13.9,1.16,12.15-1-.18-16.42-9.75-17.33-10.53-4.16-3.57-9.57-14.64-15.43-17.31-4.73-2.16-8.14-.63-12.01-1.26,5.39,2.69,21.94,11.15,18.17,16.94l-10.91-7.23c4.95,7.04,8.7,10.41,4.81,19.34-12.08-9.49-21.81-23.75-39.28-21.31-6.74.94-12.12,6.39-18.81,6.77,6.41-12.7,19.52-11.73,31.47-9.69l-7.25-2.42c2.63-7.69,14.73-3.55,21.79-2.4-23.21-11.57-35.16-2.71-55.68,7.25l8.7-16.58,38.52,2.04,20.56-2.37c-14.52-5.7-31.39,1.78-44.74-7.21l1.17-4.91c-8.67,3.31-21.74,4.58-29.79,7.32-2.6.89-1.1,5.5-2.88,4.77-5.42-5.82-16.36-8.98-23.95-7.01-12.7,3.31,6.78,7.26,7.48,7.72,2.19,1.47,5.69,8.76,10.38,10.19l-16.93-1.2,7.25,9.64c-13.58-2.67-27.72-4.33-41.16.05,3.17,8.7,10.96.95,18.1-.1,2.22-.33,11.51-1.64,10.95,2.47-19.31-.75-30.42,17.02-44.8,26.65-4.05-4.57,4.71-10.34,6.06-13.32l-4.89-6.01-18.13,19.33-1.21-9.69-4.81,2.49-2.41-7.3c-1.01,6.03-3.12,15.29,4.07,18.91,1.92.97,26.63,6.74,28.63,6.64,2.89-.15,37.74-12.66,39.31-14.04,4.02-3.55.35-12.94,5.43-13.93l.04,12.09c10.05-.44,20-5.51,30.17-4.95,8.11.44,16.28,5.7,24.5,7.19,8.55,1.55,27.97-3.53,30.11,7.44l2.47-7.27,36.22-4.81c-.72,10.92-18.05,8.65-25.39,9.73-3.29.48-7.2.85-3.65,4.79,38.38,18.35,13.27,13.36-7.39,18.04-22.59,5.11-42.88,29.11-65.26,11.04,7.43-1.36,14.48,2.64,21.84,1.45,10.23-1.65,25.42-13.47,33.85-16-9.13.86-13.33-5.99-23.03-5.06-2.85.27-22.63,6.55-26.12,7.98-5.25,2.16-42.93,29.22-38.03,33.39h10.93s-1.23,12.12-1.23,12.12h7.23c-3.07-7.55-2.2-14.86,7.11-12.32-5.49-13.13,18.88-2.85,20.87.11,2.14,3.2.89,8.44,1.13,12.21l2.4-9.69,12.27,1.07,2.28,11.05,4.79-7.23,7.28,24.19c-39.05-5.85-28.36,21.92-29.02,48.43l2.41-14.53c9,5.65,7.54-2.59,10.28-4.26,2.1-1.28,5.65.06,7.15-.72,2.49-1.3,2.12-4.62,3.43-4.81,5.1-.74,8.86,4.25,12.22,4.55,3.66.33,7.8-6.14,12.91-4.4l-7.25,7.21c9.71,5.19,17.02-3.6,25.28-2.48,12.34,1.68,12.48,22.52,10.47,32.23-2.26,10.88-15.95,19.04-16.42,24.8-.3,3.67,2.48,7.64,2.23,11.82-.47,7.89-4.09,16.83-2.23,25.67l-7.22-19.35-2.47,19.35-4.79-7.24-.04,19.35c-6.32,1.32-3.77-1.25-5.07-3.47-2.6-4.43-3.49-9.95-8.6-13.28-6.2-4.05-12.72,1.75-20.26-8.62-6.76-9.31-3.44-11.51.03-20.61-9.41-4.71-16.61,3.81-22.99,3.81-6.39,0-13.58-8.54-23-3.8,9.79,13.36-.87,25.54-13.35,31.46-6.42-13.89-13.38,12.86-20.53,16.95l-.05-19.36-4.79,4.82-2.47-16.92-3.6,7.24-5.69-16.14,6.87-.8c1.6-2.29-3.89-14.68-6.12-17-1.98-2.06-5.51-.33-7.15-2.25-11.21-13.09-9.71-33.5-3.48-48.49,8.36,1.85,14.33-3.16,17.87,7.11l13.41-4.78-4.81-7.23c15.45,2.89,29.96-2.22,39.2,13.95l4.35-1.86,2.42,9.69c-2.33-11.54,6.03-33.53-2.38-42.39-6.69-7.03-37.33-1.56-48.43-6.06l24.19-26.59-58.12,4.8,2.06-4.55-4.45-2.66,44.67-2.29,1.34-7.42c7.29-2.62,7.12,4.04,7.68,4.28,5.17,2.27,27.1-20.33,32.8-25.39,1.62-1.44,4.64.15,3.1-5.52l-50.86-7.25,12.1,7.28c1.06,11.64-12.87-.98-17.66-2.94-4.59-1.88-9.8-3.21-14.73-3.8-17.4,10.9-31.16,21.98-43.9,38.17l-3.6-12.1,7.2,4.84,9.73-16.95c-14.32,2.36-34.28-6.04-43.29,11.19-2.61,4.98-1.88,11.1-2.89,12.89-.18.31-5.6-2.92-7.08,1.36l4.82,3.6-16.93.05,18.76,5.37,2.18,5.56-3.99,5.98,7.24-2.4c3.04,17.56-18.95,15.47-26.61,26.61l20.45-7.42,2.55,5.05,1.22-7.31,7.23,7.27,1.25-9.69c7.13-1.18,11.2,5.01,14.08,4.51,3.11-.54,15.41-9.8,21.02-9.31-5.97,8.88-14.61,15.39-22.97,21.8-3.46,2.65-8.26,1.85-12.07,4.88-2.78,2.22-18.57,20.14-14.61,24.14l15.73-14.52-2.36,8.52,4.79,1.18c-1.55-9.55,4.93-13.63,10.92-19.38,1.21,2.66-5.15,16.82-7.31,19.33-2.85,3.3-7.67,3.24-10.14,5.61-6.18,5.94-12.48,13.4-16.65,18.31-2.18,2.57-13.1,12.28-10.69,14.85l12.06-9.69,2.42,9.67c-3.6-16.91,8.39-19.42,18.2-29.04,3.15,5.73-6.64,10.56-7.35,15.66-.17,1.26.26,11.81,3.67,10.94,1.57-11.33,12.15-14.56,18.33-21.64,5.41-6.2,8.06-10.77,14.77-17.92,3.02-3.22,5.27-8.94,9.32-11.54,1.81-1.16,12.83-.12,10.87,3.87-14.98,15.52-58.41,48.94-64,68.79-8.97,31.85,14.26,56.85,5.77,83.68-1.91,6.03-7.12,9.58-7.11,15.87l13.33-9.67,2.38,7.23c15.34-20.33,11.94-44.84,6.09-67.78l10.99,16.82,1.11,19.48c10.11,1.51,3.19-17.97,2.7-23.3-.25-2.71-2.23-8.7,2.11-8.15,9.5,30.18-4.95,52.72-14.64,79.81l-7.12.1-2.4-7.27-4.9,16.92-4.79-7.23,1.3,16.96-35.22,19.32,21.77-4.81-7.24,7.23c4.69-.36,8.22-.5,7.29,4.84,4.06-.97,4.04-7.52,10.91-9.62,7.47-2.28-1.24,6.82,2.36,7.21l9.69-7.32,22.98,17.02c2.58-7.19-3.89-6.62-4.67-9.03-9.76-30.31-.44-51.73,11.53-79.78,2.99-6.99,7.07-17.43,12.51-22.58-5.95,26.51-32.81,59.02-17.95,86.99,3.69,6.95,15.77,12.2,17.58,21.35,1.52,7.64-3.23,14.78-2,22.42l10.31-7.83,2.97-16.38c2.1,5.63,9.84,7.99,10.95,13.28,1.96,9.39-5.38,11.47-4.88,20.59l12.12-4.84c-2.26-4.47-2.91-7.93-2.36-13.01.67-6.19,6.74-21.37,6.88-26.76.28-10.75-1.94-31.11-2.75-43.1-.73-10.83-8.23-21.67-1.4-32.91l6.62-.24c-.41,10.65,8.68,14.57,12.87,22.31,6.57,12.12,10.84,32.05,16.48,45.28,4.52.54,1.89-4.91,1.32-7.36-1.86-7.97-7.97-16.11-7.41-24.09l25.42,41.15-2.38-9.7,4.84,1.22v-13.3s7.23,7.25,7.23,7.25l2.42-7.24.32,4.4,3.29-1.37,2.47,6.66,1.24-9.7,3.61,7.28,6.03-7.29,2.41,14.51c-.19-7.43,7.52-6.48,10.87-9.73,4.55-4.42,7.79-19.33,14.6-24.15,1.23,8.64-5.19,16.15-7.44,24.05-.66,2.33-3.06,8.01,1.35,7.4l18.63-50.17,17.7-20.04c7.02,15.39-3.12,31.21-3.65,44.73-.26,6.72,3.99,14.48,3.77,21.78-.34,11.54-11.06,17.47-4.91,30.35l9.68-18.16,26.65-26.62c-5.26,14.22-19.79,20.91-26.35,34.17-6.1,12.34-3.46,12.48-2.7,23.99.19,2.92-2.59,7.64-2.24,8.16.54.81,15.79,10.75,16.74,9.91-7.62-4.24-4.91-13.44-5.35-14.13-1.16-1.84-7.17.07-6.81-8.64.25-5.9,12.33-18.53,17.01-23.21-3.81.71-6.03,1.72-8.49,4.83-1.74-6.39,13.13-16.63,19.41-21.86,2.43-2.03,7.02-1.61,8.66-3.9,2.88-4.02,1.1-15.65,7.03-17.8,4.48,20.23-15.14,27.27-26.61,38.73,2.15-.4,4.93.22,7.25.02.13,3.97-4.53,2.02-6.84,6.51-4.34,8.42.26,24.24,8.08,29.78l-3.62-14.51,9.64,9.67c-4.84-12.61-9.27-24.83,2.44-35.12l-4.83-2.4c11.02-6.64,17.79-10.58,23.01-23.01,10.34,18.15-2.54,23.84-8.47,38.72l23.29-17.08c3.74-.43,13.32,4.66,17.26,6.69,3.2,1.65,3.11,5,3.4,5.11,1.07.42,17.73-3.21,22.7-3.11,6.13.13,11.82,3.88,18.08,3.53l-42.84-20.1ZM329.96,126.46l14,.36,4.76,8.15-6.49,9.31-4.97,1.48c-2.95-7.02-9.43-9.78-7.31-19.3ZM291.19,113.13c.67-1.84-7.99.19-4.85-6.03l21.8-4.84-17.07,18.01-16.82,8.59,16.94-15.73ZM269.39,179.72l-31.36-.11-3.79-29.08,15.58-4.5c-.12,11.24,8.75,8.94,12.48,13.59,1.71,2.13,8.67,18.51,7.09,20.09ZM261.16,136.36c-12.36.35-26.68,10.03-41.39,9.67-12.17-.3-26.41-8.75-37.56-13.51.16-4.58,30.55,8.29,35.12,8.53,6.11.31,2.33-1.84,1.21-4.88l8.17-.02c4.58,8.61,27.39-4.22,39.15-4.89,8.35-.48,14.94,2.31,22.92,2.47l-4.83-4.82,13.19.14,1.35-7.42c4.37-.55.08,4.83,5.93,5.1,7.8.37,13.45-4.44,20.69-5.09-6.78,11.77-24.14,12.33-36.32,12.08l-1.49,4.88c-8.66,2.11-18.59-2.46-26.13-2.24ZM136.19,157.94c2.13,4.87-9.63,25.94-14.5,21.77,3.09-10.49,2.18-18.17,14.5-21.77ZM46.67,132.51l15.64-10.9c5.04.96,2.19,13.15.97,14.23-2.09,1.85-16.68.33-16.61-3.33ZM61.16,165.18l45.98-33.91c.81-4.14-7.77-1.78-9.79-1.38-4.68.91-7.36,4.04-11.99,3.81,5.85-11.69,20.54-9.55,31.47-12.07l-7.24,7.23,27.43-1.48,20.98,3.91c-13.79,3.95-33.72-.15-46.11,3.55-17.36,5.19-31.16,32.44-50.73,30.35ZM46.43,302.01c.19,11.37,6.66,23.22,5,35.11l-11.91-44.61c5.34-23,25.36-37.53,42.19-52.25,3.58-3.13,8.78-3.9,12.01-7.36,4.55-4.88,5.23-15.69,10.98-19.25.97,38.77-58.84,54.31-58.28,88.36ZM231.87,339.6c-6.59,3.67,1.04,10.39-1.24,14.49-.32.57-10.52-4.37-9.7,4.82l-19.29-18.2-.03-3.53c6.72,1.6,16.34-17.5,14.5-19.41-14.25,3.77-29.45,3.58-43.57.01,4.93,3.62,5.78,13.82,7.83,16.34,2.27,2.79,18.24,2.46,4.43,14.12-8.23,6.95-13.11,2.25-13.46,20.36l-1.25-16.93-2.42,7.25c-9.65-3.59-5.3-11.62-7.26-19.38l-4.8,2.44c-5.89-19.94,4.67-28.39,23.61-30.99,11.27-1.54,37.42-.16,47.53,4.61,18.07,8.52,6.63,13.42,11.15,28.78l-6.03-4.8ZM291.23,329.89l16.9,36.31c-12.89-5.33-21.37-22.93-16.9-36.31ZM292.38,228.15c2.47-6.06,2.7-1.47,4.26.57,5.46,7.11,7.73,12.33,15.2,18.76,3.8,3.28,40.09,25.22,35.03,31.54-6.6-5.19-4.06,3.02-6.02,2.41-4.77-6.63-12.59-10.81-18.08-15.92-2.39-2.22-1.86-6.17-4.23-8.42-5.29-5.03-30.76-17.68-26.16-28.94Z"></path>
  <path d="M74.42,109.48l-1.17-7.21-13.03.27-3.95,9.38-3.57-4.86-6.09,2.48,2.52,7.23c7.78-2.44,14.72-2.81,22.87-2.38,2.73.14,13.64,1.22,13.35,4.81,7.14-1.18,15.51-11.38,21.78-15.75-12.16-8.22-22.67-1.73-32.72,6.03Z"></path>

</svg>
