<svg xmlns="http://www.w3.org/2000/svg" viewBox="61.86 -0.56 284.33 508.34" fill="#000">

  <path d="M331.8,135.3v-3.15h-121.47V13.83h-3.15v118.32s-11.71.02-11.71.02l-.91-118.34h-3.15v118.31h-115.16v3.15h115.16v12.62h-115.16v3.16h115.16v342.32h3.15V151.07s11.71-.02,11.71-.02l.91,342.35h3.15l2.37-342.32h119.1c.12-1.02-2.09-3.16-2.37-3.16h-119.1v-12.62h121.47Z"></path>
  <polygon points="218.22 461.85 222.95 461.85 222.95 163.7 311.29 163.7 311.29 158.96 218.22 158.96 218.22 461.85"></polygon>
  <polygon points="309.71 119.53 222.95 119.53 222.95 39.07 218.22 39.07 218.22 125.84 309.71 125.84 309.71 119.53"></polygon>
  <path d="M85.7,163.7h93.07v310.77c1.83.64,6.31-.7,6.31-2.37V158.96h-99.38v4.73Z"></path>
  <polygon points="185.09 31.97 181.17 29.62 178.78 31.97 178.78 119.53 98.32 119.53 98.32 125.84 185.09 125.84 185.09 31.97"></polygon>

</svg>
