<svg xmlns="http://www.w3.org/2000/svg" viewBox="42.13 -0.56 323.78 508.38" fill="#000">

  <path d="M195.34,13.83v141.98s7.89-2.37,7.89-2.37V51.69h1.58v104.12h7.89v-77.3h1.58v74.93l2.37,2.37h85.98c.12,1.02-2.09,3.16-2.37,3.16h-85.98c-.64,1.83.7,6.31,2.37,6.31h115.95v3.16h-115.95c-1.67,0-3,4.48-2.37,6.31h137.24v3.16h-134.88c-2.97,0-2.97,7.89,0,7.89h98.6v1.58h-98.6c-2.97,0-2.97,7.89,0,7.89h56v1.58h-56l-2.37,2.37v174.32h-1.58v-174.32c0-2.97-7.89-2.97-7.89,0v238.99h-1.58v-238.99c0-1.29-3.92-3.16-5.49-2.34l-2.47,5.42.08,291.13h-3.16l.02-295.67-6.33-.91v235.05h-3.16v-235.05h-6.31v209.81h-3.16v-207.44l-2.37-2.37h-35.49v-1.58h37.86v-7.89h-72.57v-1.58h70.2l2.37-7.89H56.52v-3.16h116.74v-6.31h-96.23v-3.16h96.23v-6.31h-68.62c-.28,0-2.49-2.13-2.37-3.16h70.99v-36.28c1.02-.12,3.16,2.09,3.16,2.37v33.92h6.31V45.38h3.16v110.43h6.3s0-141.98,0-141.98h3.16Z"></path>

</svg>
