<svg xmlns="http://www.w3.org/2000/svg" viewBox="532.92 85.08 585.53 348.72" fill="#000">
<g>
    <path d="M959.87,101.65v35.38c0,3.42-20.5,21.27-23.98,25.81-1.48,1.93-3.7,2.41-2.86,5.75h47.94v35.38l-37.79,36.9-82.99,1.38-46.06,48.72c1.94,1.78,36.16-23.89,41.46-26.52,5.69-2.82,44.44-15.86,46.73-13.62-2.61,13.98-16.65,31.41-28.12,39.83-32.47,23.83-79.04,8.21-104.17,43.37l102.25-16.59c4.22-1.46,17.79-25.82,22.43-31.18,14.25-16.47,58.04-28.85,79.87-38.92,16.3-7.52,32.07-16.26,47.64-25.17,3.12-.29,3.17-.47,2.59,2.57-6.29,32.92-37.75,65.03-68.28,77.28-21.05,8.44-41.6,8.65-62.25,14.43-2,.56-5.8.44-5.37,3.23h39.31c26.32,0,62.2-18.74,93.89-19.24,27.94-.44,51.71,17.55,79.64,15.44.59.43-.98,2.28-1.9,2.87-8.79,5.69-62.01,20.97-74.41,23.32-44.64,8.48-56.63,3.08-97.8-6.52-39.97-9.32-81.19-1.53-121.2,3.27-3.07,2.49.22,3.48,2.85,3.82,17.88,2.28,40.82-1.11,59.56-.08,25.31,1.39,47.18,4.43,66.71,21.44l22.36,9.22c-31.18,6.29-99.92,25.16-126.44,4.7-14.46-11.15-10.48-23.29-35.6-25.69-8.39-.8-41.6,1.91-48.03,5.6-3.05,1.75-24.86,23.76-21.93,26.88,26.39-7.97,58.18-28.33,84.19-8.43,5.54,4.24,7.37,9.51,11.6,13.3,6.7,6,16.04,10.36,21.17,18.07-23.61-3.89-37.27-23.61-62.65-13.7-27.21,10.63-41.48,31.82-72.33,4.23l-17.47,19.05h-54.65v-33.47l-4.32-2.5-81.97,14.91c2.06-4.08,6.7-7.17,8.44-11.45.74-1.82-1.19-4.86-.69-5.54,1.01-1.39,17.28-4.77,20.62-5.38,16.59-3.05,57.2-3.78,69.37-9.22,1.36-.61,15.07-14.44,15.25-15.51-13.37-15.22-18.2-23.83-11.94-44.3,5.52-18.06,27.24-46.44,44.66-53.93,8.5,22.97,8.48,47.23-5.71,67.91l2.84.93,73.85-80.32h-26.85v-37.3l33.95-34.99,65.73-1.38,60.44-64.04h60.4ZM948.36,113.12h-41.23l-62.36,64.04-65.34,1.81-22.83,24.04h63.28l-164.89,173.12c-.8,4.3,1.88,2.66,4.74,2.85,7.6.5,24.81,3.01,30.68,1.86,4.55-.89,24.78-22.5,29.81-27.64,47.68-48.66,93.38-99.42,141.1-148.07,5.52-4.22,11.03-.19,16.97-.12,13.14.16,55.44,2.31,64.88-.48,4.38-1.3,20.1-19.16,22.44-24.47h-78.62l61.36-66.94Z"></path>
  </g>
</svg>
