<svg xmlns="http://www.w3.org/2000/svg" viewBox="-15.33 -15.33 405.39 541.49" fill="#000">
<g>
    <g>
      <path d="M218.5,0v114.5h112.18l2.2,2.2v102.02h-112.18l-2.2,2.2v144.59c2.55-.39,2.56-2.92,3.33-4.74,19.07-44.6,24.58-81.28,73.4-104.14,25.98-12.17,58.01-13.83,79.45-33.5.59,6.5-3.63,15.06-6.36,21.52-10.54,24.89-24.26,48.27-50.78,57.79-20.32,7.3-42.65,8.89-61.38,20.76-14.39,9.12-24.07,26.18-28.84,42.31,7.55-9.46,12.01-21.01,21.95-28.66,8.91-6.87,35.14-16.8,41.48-3.29,8.69,18.53-22.98,23.55-33.63,28.76-11.63,5.69-35.94,24.68-38.52,37.78-.37,1.88-1.28,5.83,2.1,5.04,26.85-36.45,89.62-58,126.17-23.51,11.29,10.65,19.67,28.96,18.14,44.65-1.48,15.09-18.63,43.83-35.81,30.29-21.91-17.26,14.76-27.98,12.39-49.08-3.11-27.69-34.24-31.5-56.32-28.74-1.42.18-14.14,1.97-12.48,4.37,4.45.57,6.28,4.93,9.76,7.12,9.11,5.74,16.73,5.1,26.89,3.19-6.83,12.68-18.16,14.16-31.5,13.17-8.54-.63-15.92-5.45-23.96.26-3.09,12.43,14.33,22.28,5.38,34.04-7.92,10.4-32.41,4.87-40.83,17.83v52.11h-105.58V218.72H0v-102.02l2.2-2.2h110.72V0h105.58ZM205.3,14.68h-77.72v114.5H14.66v74.86h112.92v292.12h77.72V206.24l2.2-2.2h110.72v-74.86h-112.92V14.68Z"></path>
      <polygon points="192.1 142.39 305.02 142.39 305.02 190.83 192.1 190.83 192.1 482.94 140.78 482.94 140.78 190.83 27.86 190.83 27.86 142.39 140.78 142.39 140.78 27.89 189.9 27.89 192.1 30.09 192.1 142.39"></polygon>
    </g>
  </g>
</svg>
