<svg xmlns="http://www.w3.org/2000/svg" viewBox="-9.32 21.19 422.45 466.91" fill="#000">

  <path d="M262.14,290.58c1.16-11.42-.85-24.37,0-35.98l-17.52,67.58c-4.11.48-1.69-4.4-1.18-6.63,4.05-17.83,10.74-34.81,12.12-53.37.18-2.42,1.62-8.12-2.14-7.58l-2.23,19.6-4.33-10.88c-14.34,55.12-48.49,121.36-99.16,150.81-45.96,26.71-119.69,42.64-141.19-21.38-1.95-5.81-2.91-4.98-2.53.33.9,12.56,10.39,27.01,19.75,34.87,33.43,28.06,85.53,15.18,121.78-.74,7.9-3.47,14.36-9.39,22.59-11.25-35.51,29.72-85.53,41.54-131.21,45.79l7.84,6.53c50.89-5.62,98.13-11.59,139.73-43.66,37.27-28.73,72.88-86.89,77.68-134.05Z"></path>
  <path d="M284.25,142.33c-.09,0-.17,0-.26-.01.01.05.11.05.26.01Z"></path>
  <path d="M269.81,130.34c-1.54,2.68-1.08,5.8-1.13,8.69l-10.89-19.61c1.43,24.12-4.66,49.51-14.92,71.27-12.97,27.51-38.01,49.77-52.47,76.34-9.56,17.57-11.88,30.98-15.25,50.25-.74,4.21.11,2.62,3.87,2.74.39-32.29,20.28-60.26,41.54-82.85l-28.81,50.85c-5.77,14.63-10.39,32.62-8.35,48.41.51,3.95-.76,3.54,4.37,3.23l3.16-26.3,9.95-21.66c-1.8,22.07-11.73,43.9-4.33,65.39l5.92-23.5c15.5-57.93,77.56-109.23,68.31-173.71-.67-4.65-6.74-9.74-4.28-16.46,9.18,2.42,15.54-5.23,23.09-6.48,8.4-1.38-3.44,4.99-5.34,5.4,9.83.7,24.37-9.55,32.38-15.47,14.13-10.45,24.55-29.49,44.01-28.08l21.78-12.04-27.83-.54c-11.39,11.51-79.9,35.67-84.77,44.14Z"></path>
  <path d="M339.51,453.31c-83.97-10.83-162.89-3.03-244.83,17.11-3.7.91-6.38-2.15-5.29,4.42,26.99-3.18,54.77-9.37,81.9-10.99,2.94-.18,13.66-1.62,14.3,2.25l-37.16,4.41c-.49,3.9,4.91,2.12,7.37,1.9,5.99-.54,12.24-3.35,18.86-1.9l-5.43,4.37c64.1-7.42,129.17-8.7,193.52-4.41-.38-3.18-9.52-3.68-12.29-4.07-13.67-1.93-27.51-1.98-41.3-2.45-2.64-.09-8.14,1.63-7.62-2.15l12.02-2.4c21.92,3.1,43.84,2.28,65.89,4.3,2.45.22,7.86,2,7.36-1.9-15.74-2.69-31.4-6.42-47.29-8.47Z"></path>
  <path d="M161.55,123.76l8.73.03-4.36,8.69c6.17-1.19,9.87-4.17,14.23,2.19l4.38-6.52c4.21-1.79,3.01,4.45,4.41,4.51,7.37.32,5.81-7.74,11.95-6.69l2.22,13.05-15.3-1.08,16.72,20.91,9.19-2.69.34-14.92,6.52,6.53-4.35-10.88,10.94,4.38-4.37,5.42c5.44,4.59,31.82-18.37,28.42-20.7-3.38,2.1-27.62-3.73-24.06-6.54l8.72-1.08-24.03-9.87,8.75-10.86-15.31,4.32,6.56-8.68-17.49,4.32,6.55-6.5c-9.73.23-20.49,6.53-25.92,14.47-2.02,2.96-2.24,7.46-4.61,10.67-2.91,3.93-7.83,3.75-8.82,7.53Z"></path>
  <path d="M76.23,102l-8.74,2.18c4.37,9.83,18.58,3.49,24.77,6.71,5.13,2.67,10.66,11,15.75,15.02,19.74,15.58,46.72,36.22,72.97,30.74,1.55,1.06,9.91,28.33,13.76,32.05.23.23,6.86,1.49,5.98-2.56-.86-3.96-16.6-38.91-19.49-36.18l-1.1,4.35-22.96-10.92,6.53-4.31c-13.41-4.12-24.75-12.4-37.19-18.53-5.27-2.6-11.59-2.66-16.8-5.06-18.87-8.68-28.79-28.93-55.34-22.21,4.42,6.23,14.61,8.73,21.85,8.72Z"></path>
  <path d="M211.86,77.98l6.53-4.34,3.3,13.06,2.17-8.7,3.31,10.88c5.48-.54-1.96-10.9,6.53-8.72l.02,8.76,13.11-.02v-44.7l-4.38-2.2-6.55,12.01c-.76-6.18,2.92-16.36-4.36-19.61l-.04,28.33-5.46-21.78-4.36,6.49-5.45-6.49c3.55,8.38-4.15,10.8-4.57,14.02-.91,6.95.97,15.77.19,23.03Z"></path>
  <path d="M249.02,97.64l-10.92,6.5,21.85.04-13.1,6.5c12.93-.06,32.01,5.66,44.18-.07,3.16-1.49,6.79-10.03,14.84-8.65l-15.28-4.31,28.42-2.22c-.83-3.97-4.3-4.05-7.57-4.42-24.35-2.72-55.32.95-79.92,2.27-1.68,8.39,12.7,2.86,17.51,4.37Z"></path>
  <path d="M399.91,117.21l-21.84-2.17,15.28-4.37-8.75-3.24,8.77-3.27h-36.09c-2.69,0-12.98,4.77-14.2,7.64l6.54,3.24-15.29,2.23,6.54,6.49-15.3,4.38h37.18l-17.51,2.2,2.22,4.33-13.14,2.2h30.62l-10.92-4.34,39.35-4.41-26.26-5.43,32.81-5.48Z"></path>
  <path d="M227.17,396.35c-1.79,12.57-9.89,20.76-6.56,34.87l6.53-4.34.03,10.88,2.19-21.78,4.37,26.14c2.32.88,4.35-7.18,4.35-7.62v-46.88l-6.18,3.64-.4,13.79-4.33-8.7Z"></path>
  <path d="M207.44,211c-20.71,17.82-41.2,38.14-49.64,64.96-.93,2.96-5.51,14.28-.66,15.71,1.69-10.81,7.57-24.2,13.5-33.43,10.57-16.45,29.74-28.23,36.8-47.23Z"></path>
  <path d="M163.72,95.41c.07-1.37-2.54-4.15-3.28-4.34-11.12-2.83-50.89,0-65.61,0-.4,0-3.89,3.5-3.28,4.33,23.62,5.84,48.22-.14,72.17,0Z"></path>
  <path d="M243.52,374.5c-1.56,7.58-2.31,55.41,1.15,58.9,1.37.07,4.16-2.53,4.35-3.27,3.95-15.44-2.93-46.98,0-64.32-2.62-.29-5.17,7.11-5.5,8.69Z"></path>
  <path d="M165.89,309.11c.53-10.54,4.43-21.88,9.04-31.33,7.03-14.4,19.68-25.8,25.95-40.61-16.7,15.8-33.64,41.52-36.93,64.57-.33,2.3-1.86,7.93,1.94,7.38Z"></path>
  <path d="M72.96,128.14c2.49,0,17.85-2.61,18.59-6.52-14.48-.14-30.07-.34-44.27,2.74-2.15.47-6.55.77-6.03,3.78h31.71Z"></path>
  <path d="M207.49,341.82c14.75-17.29,23.29-41.29,28.39-63.22l-28.39,63.22Z"></path>
  <path d="M210.87,175.98c-.78.45-.67,6.93-3.4,8.83,11.25-3.25,26.66-3.96,32.81-15.22-9.47.04-21.13,1.64-29.4,6.39Z"></path>
  <path d="M149.51,106.34c.36,0,6.39-2.14,5.46-4.34-13.84-1.08-27.87-4.8-41.54,0-.55.75,2.5,4.14,3.28,4.33,6.17,1.57,24.77,0,32.81,0Z"></path>
  <path d="M257.74,337.45c5.83-18.29,11.81-37.07,10.94-56.66l-12.6,49.57,1.66,7.1Z"></path>
  <path d="M88.16,132.4c-7.51.35-17.77,1.8-25.14,3.32-1.37.28-6.56,1.35-3.17,3.35,3.91,1.76,8.82-2.08,10.92-2.2,11.95-.67,24.13.49,36.09,0,2.29-6.98-14.26-4.67-18.7-4.47Z"></path>
  <path d="M157.16,108.52h-34.99v4.36h31.71c.38,0,3.45-2.95,3.28-4.36Z"></path>
  <path d="M207.44,73.63c-.41-9.56.94-19.4-.53-28.9-.3-1.95-.94-6.56-3.82-5.98v31.62c0,.37,2.95,3.43,4.35,3.27Z"></path>

</svg>
