<svg xmlns="http://www.w3.org/2000/svg" viewBox="-12.18 28.33 430.15 450.55" fill="#000">

  <g id="FzON1I.tif">
    <path d="M227.77,456.49c.05.37.74,2.2,1.12,2.34l17.48,2v1.97s-17.93-1.32-17.93-1.32l-.34,4.65c-1.52-3.05-.2-4.33-4.15-5.15-21.07-4.39-45.52-3.27-66.94-6.8-10.66.37-21.17,3.42-31.86,4-19.32,1.06-39.17-2.38-58.16-5.34v-1.99c8.4.23,16.62,2.49,24.93,3.31,11.55,1.14,25.69,1.84,37.19.66,3.41-.35,7.85-.89,10.97-2.32l-46.84-3.64c-30.95-1.72-61.74,2.74-92.67,3.97,1.35-1.71,5.91-1.72,8.31-1.98,26.16-2.85,56.21-5.59,82.4-4.68,2.84.1,5.89,1.26,8.94.68l-20.62-6.27c-4-2.1-10.54-7.18-3.77-10.46,11.09-5.37,44.68,9.79,57.72,12.97,10.56,2.58,27.81,6.15,38.11,3.12.97-.29,1.16.37.97-1.34-4.26-.19-18.42-2.01-20.27-5.99-.81-1.74-.29-2.52,1.03-3.62,7.85-6.5,35.79-.42,45.81.97-.1-1.32.51-3.36-.65-4.32s-9.22-2.88-11.48-3.8c-3.53-1.42-15-5.86-14.83-10.14l.73-1.63c5.91-5.78,25.89,6.27,26.9,5.28l-2.15-29.72c-3.86-1.5-8.09-.53-12.12-.83-12.84-.95-54.89-3.24-63.23-11.51-8-7.94,9.38-15.73,15.07-18.03,14.09-5.69,30.82-8.77,45.83-10.97.27-1.51-.07-1.06-.85-1.48-5.57-3.02-12.37-5.04-18.2-8.36-12.17-6.93-28.09-18.39-10.39-30.53,12.9-8.85,31.19-12.3,46.02-16.76,1.53-1.75-7.17-15.23-6.63-18.56l-1.87,6.25,3.87,2.38-4.56.09-3.08,7.88c-.86-1.61.4-3.67.71-5.27.13-.69.87-2.18-.37-2.02l-3.33,11.95c-1.21.04-1.39.33-1.33-.99.18-3.67,2.61-7.96,2.01-11.91-.11-.77-2.05-.82-2.85.45-2.21,3.49-3.92,7.56-6.34,10.9-.6.83-.68,1.85-2.11,1.54l4.65-13.93c-3.56-1.76-5.28,1.38-8.29,2.66-7.01,2.99-9.53.79-9.28-6.7-13.84-4.03-29.22-10.67-10.69-23.22,10.12-6.86,20.94-9.32,31.26-14.57.63-.32,1.58-.38,1.64-1.34-12.07-3.36-25.34-6.27-36.78-11.39-14.67-6.57-19.09-12.72-5.02-24.09,11.21-9.06,26.09-15.34,39.1-21.34l.7-1.61-4.31-3.32-3.33,3.97-1.35-1.37-3.61,1.37,3.98-5.31-6.65-1.34.68-1.98c-18.15-3.83-36.38-9.52-49.63-23.15l-16,2.04c-2.71,4.07-5.93,7.85-10.1,10.48.82-4.13,5.93-6.83,7.97-10.62l-16.25,1.35c-2.75.06-15.32.49-13.58-4.9,8.14-5.22,18.89-4.13,28.16-5.09.83-.09,3.54-.24,3.66-1.32-7.56.26-15.37.18-22.91.66-7.59.49-18.31,2.89-25.26,2.71-1.16-.03-2.61.02-2.98-1.39,3.76-.93,7.74-.88,11.54-1.42.84-.12,3.62-.27,3.73-1.24l-28.56.65,2.3-1.35,49.52-3.3c.12-1.66.16-1.14-1-1.31-9.17-1.36-18.53-1.84-27.81-2.1l-1.07-.91c.32-.33.6-.76,1.07-.91,3.48-1.06,12.95,1.24,17.88.6,1.98-.25,2.61-1.53,4.11-1.86,6.61-1.46,12.77-.8,19.44-1.49,0-1.15-2.9-.73-3.68-.69-1.96.1-3.69.65-5.61.69-.3-1.71.27-1.19,1.33-1.62,4.87-2,13.77,0,19.63-.34,2.35-.13,4.57-.89,6.94-.7.09-1.55.22-1.17-.98-1.33-4.69-.6-9.53.59-13.94.69-7.54.17-15.11-.25-22.64-.05-3.3.09-8.98,2.32-11.6-.63l51.36-2.79c18.46-22.64,44.88-36.44,74.2-38.39l1.33-42.5c1.21.25,1.23,1.31,1.35,2.3.4,3.53-.36,7.69-.02,11.31l1.99,14.95v-10.63h1.32c-.31.84.67,1.95.67,2.32v15.61c1.17.15.63-1.5.66-2.32.31-7.44-.19-15.63,1.64-22.94.56-2.24,1.32-6.06,4.6-5.34,3.78.83,5.11,32.41,5.75,37.2l3.96.04,2-35.52,1.31-3.66,2.09,39.75c20.86,3.72,40.91,11.47,56.18,26.52,15.68-.28,31.34-1.32,47.06-1.83,10.64-.34,21.83-1.53,32.55-.72,1.48.11,4.89.53,5.99,1.31,2.41,1.71-.84,3.69-2.73,3.99-5.67.88-14.54,1.11-20.53,1.4-5,.24-9.98-.02-14.97-.02l3.98,1.31-5.31,1.99c5.04-.09,12.1-2.67,15.93,1.67l-11.28,6.97,35.87,1.34-11.6,1.35c-9.77.53-20.64-1.28-30.12,1.1-1.23.31-4.13,1.05-4.78,2.18,6.07-.86,12.14-.56,18.26-.66,1.8-.03,10.34-2.03,10.34,1.67,0,3.37-7.1,1.6-9,2.99h-17.61c-.15,1.17,1.5.63,2.32.66,8.18.34,16.43-.29,24.62-.03,6.31.2,14.39.49,20.58,1.34,1,.14,2.05.09,2.31,1.35h-54.14c-2.37,0-6.78,1.11-9.65.98l-33.54,17.61c-.65.53.36.96.77,1.24,3.05,2.04,6.39,3.65,9.18,6.09,1.36,1.19,5.8,6.72,6.58,6.58,2.6-3.05,6.34-5.54,9.08-8.23.78-.76,6.06-8.12,7.28-6.99l-15.65,16.61c1.38,5.05,2.46,8.12.85,13.41-4.91,16.12-36.81,28.31-50.99,34.83l3.35,20.14c.46.54,3.44-2.49,3.31-.33-.03.43-2.29,1.73-2.54,2.79-.12.5,1,7.19,1.29,7.43l5.9-.59c.74,2.2-3,1.64-3.32,1.99-.22.24.75,1.83.55,2.83-.22,1.11-2.2,2.5-2.28,3.48-.07.83.95,2.21,1.02,3.38.18,3.27-.8,6.92,1.38,9.56l-3.98-.66-.67,6.64c1,.91,17.26-6.78,19.47-8.09,27.07-16.07,3.8-21.47-12.5-29.09-2.17-3.03,7.77.58,8.48.83,10.53,3.69,27.08,11.4,15.14,24.1-7.24,7.71-20.45,11.23-29.82,15.68l-.66,9.09c6.18,2.61,12.62,4.7,18.73,7.5,27.12,12.43,38.17,25.42,6.6,43.6-11.8,6.79-26.11,12.52-39.39,15.4.61-1.37,2.48-1.93,3.75-2.55,15.17-7.46,33.92-12.03,46.43-23.98,9.74-9.31,5.82-15.37-3.85-22.08-9.5-6.59-22.32-11.03-33.03-15.12-.94,10.22-1.9,20.94-4.71,30.82-2.7,9.5-8.57,17.58-9.83,27.37-1.21,9.43-1.79,22.15-2.11,31.76-.09,2.84.02,5.73.11,8.57.11.61.58.71,1.04.95,2.31,1.21,12.59,2.61,16.29,3.64,13.46,3.73,33.55,11.02,43.71,20.72,20.18,19.26-23.31,17.49-32.89,18.27l-15.61,1.98c3.82.75,7.75,1.56,11.63,1.99,18.72,2.1,37.71.92,56.47,1.99,5.31.3,15.45-.1,20.11,2.45,1.42.78.41,2.04,1.19,2.25,12.34-.42,24.59,1.43,36.83,2.62.54,2.05-2.99,2.08-4.32,2.05-11.86-.25-25.04-2.89-37.17-2.75-19.89.8-39.96-.12-59.83.69-.81.03-2.47-.5-2.32.66l31.56,3.98c6.86.36,13.76.34,20.62.64,28.68,1.25,57.71,2.64,86.34-.69,5.5,1.62.04,3-2.75,3.29-27.05,2.87-67.48,1.88-94.91.08-26.2-1.72-52.01-6.31-77.4-12.61.35,3.66-.48,8.07,0,11.62ZM212.5,82.95c.66-3.32-1.57-34.57-4.32-34.52-1.94,2.56-2.72,7.71-2.98,10.95-.22,2.78-.16,22.71.66,23.56h6.64ZM199.21,73.65h-1.33v9.96h1.33v-9.96ZM197.21,85.6v33.87l2.24.03c2.41-.55.44-13.87.39-16.27-.13-5.87.15-11.77.02-17.63h-2.65ZM206.51,118.15l6.22-.1,1.09-1.57-.96-30.26-7.02-.63.66,32.55ZM195.89,86.27c-26.73,2.19-53.26,14.79-70.43,35.52l50.19-.3,20.24-2.02v-33.2ZM218.47,86.27h-3.32v29.55l1.08.91,2.24.09v-30.55ZM278.26,111.5c.34-1.31-.55-1.28-1.12-1.86-2.17-2.22-6.46-5.05-9.16-6.78-12.99-8.28-28.31-13.53-43.53-15.92l.66,29.22,53.15-4.66ZM203.19,118.14v-29.22h-.66v29.22h.66ZM221.13,116.81c3.69-.33,1.38-5.18,1.3-7.61-.15-4.53.17-9.11.02-13.64l-1.32,9.63v11.61ZM362.63,110.84c-26.52-1.62-53.19.61-79.72,1.99l.66,1.98c-1.32.19-1.71-1.06-3.01-1.31-7.04-1.33-17.77,1.97-25.22,1.32l-6.98,1.32,66.13-1.29,39.83-2.69,8.31-1.31ZM310.81,116.82c-6.96.39-13.98.34-20.94.63-5.7.24-11.96.34-17.91.69-7.45.44-15.62,2.06-23.27,2.64-3.51.27-22.04.43-23.19,1.28l-.39,2.05,31.57-2.65c16.08-1.44,36.03-.13,51.6-3.54.77-.17,2.64-.08,2.53-1.11ZM257,118.15c-6.94.23-13.98-.33-20.92,0-2.53.12-6.19.37-8.67.63-.99.11-2.05.15-2.3,1.35,9.85-.53,19.71-.92,29.57-1.32.81-.03,2.47.5,2.32-.66ZM316.8,122.13c-2.21.36-4.15,1.86-6.19,2.77-.9.4-2.24-.22-2.44,1.2l1.99,1.33c-3.18.32-6.62,1.3-8.64,3.98,4.36.05,10.1-1.48,12.62-5.3l-2.65.33,5.31-4.31ZM213.83,122.79c-3.12.13-6.31-1.16-7.31,2.65l7.3-.67v-1.97ZM225.12,125.45v12.29c0,1.89,5.15.34,6.28.3,15.92-.5,31.94-.11,47.87-.64l2.32-.66h-39.86l6.98-1.32c12.77-1.52,27.31.67,39.83-1.36.78-.13,1.57-.41,1.69-1.3l-24.28.02-10.27-1.35c11.28-.94,23.76.22,34.86-.68,3.17-.26,8.72-1.06,10.97-3.3l-62.45,1.31c.12-.9.9-1.16,1.69-1.29,2.46-.42,8.36-.6,11.24-.72,11.41-.46,27.18.87,37.95-.58,1.32-.18.85-1.43,1.28-1.41.98.05,1.58,1.15,2.67,1.33,2.73.46,11.08.87,12.27-1.97-5.05-.5-10.73.5-15.64.35-11.68-.37-22.61-.77-34.53-.36-10.3.36-20.61.63-30.89,1.33ZM143.4,124.12h-18.93c-.43,0-2.52,1.13-2.99,1.66l1.67.35,20.25-2.01ZM195.22,124.79c-18.78-.14-37.46,1.22-56.14,2.65-5.86.45-13.39-.3-19.08,1.52-.99.32-2.22.64-2.51,1.8l76.74-4.64.98-1.33ZM223.12,138.73v-12.29c0-.08-.96-1.34-1.32-.66l-1.28.4-.06,2.59c-2.43.35-.37-2.05-2.98-2.67-.68-.16-1.58.07-2.33,0v2.66s-1.73-2.7-1.73-2.7l-6.5.67-.41,2.03c-1.58-1.34-1.29-2.59-3.98-2l.1,8.53c2.34-.15,4.99,4.33,6.18,4.5,1.44.2,4.43-1.61,6.08-1.72,2.36-.16,5.55,1.3,8.23.64ZM122.14,138.06h40.53l-.98,1.33-32.89,1.33c.16.99,2.89,1.86,3.62,1.9,2.04.09,5.76-1.1,8.01-1.23,13.64-.8,27.45-.98,41.17-1.35,4.32-3.07,7.71-6.89,13.64-5.96-.2-1.47.72-6.15-1.05-6.57l-64.09,8.19-7.94,2.36ZM200.54,127.44c-4.71-.96-4.82,2.92-3.36,6.35l3.36.29v-6.65ZM116.83,128.77l-7.97,1.31c3.32,1.37,5.98,2.57,7.97-1.31ZM306.83,132.76l-24.09,6.79-16.43,8.47c5.54-1.34,12.68-1.32,17.92-3,4.71-1.51,14.03-6.22,18.4-8.84,1.48-.89,3.38-1.84,4.21-3.43ZM343.37,134.08h-18.6v.66h18.6v-.66ZM277.6,139.4l-51.39.75c-1.97.64-1.69,9.81.91,11.19l-1.93.05c-.59,3.04-.02,3.74,3.02,3.89,5.5.28,8.31-5.74,13.92-6.53,9.15-1.28,11.84,2.12,22.43-2.15,4.19-1.69,9.47-4.55,13.05-7.2ZM202.53,141.38c-2.02-3.34-5.98.43-7.31,2.66l7.31-2.66ZM223.69,140.82c-2.64-1.38-5.16-.57-7.88-.09,1.61,2.07,4.86,3.07,2.96,5.98,1.19.65,4.67,3.45,5.02,1,.13-.95.15-6.5-.09-6.89ZM300.18,140.06c-5.89,1.03-11.24,4.2-16.27,7.3l-4.98,4.64,6.42-2.53,14.83-9.41ZM154.03,153.35l-29.52-12-4.35-.62,31.19,19.62,2.02-.36c-2.07-.87-6.23-2.64-6.65-4.98-.15-.86.1-1.35,1-1,1.8.71,5.13,3.62,7.2,4.76,2.96,1.63,8.56,4.89,11.55,5.72.48.14,1.44.48,1.52-.19l-3.32-2.98c2.49-.22,5.48,3.35,7.66,3.3,1.17-.03,4.69-2.77,1.66-3.64-2.71-.78-6.28-.71-9.22-1.43-5.25-1.3-10.08-3.77-15.38-4.88l4.64-1.31ZM180.6,141.39c-1.48,0-2.79.64-4.28.69-12.17.45-24.42.33-36.56,1.3-.8.06-3.55.25-3.66,1.31,4.87,1.44,9.75,3.15,14.39,5.21,5.11,2.26,15.84,9.39,21.04,8.11,1.59-3.2,2.47-6.66,4.31-9.77,1.51-2.56,3.69-4.26,4.76-6.86ZM118.16,147.36c-.53-1.39-5.17-3.39-6.22-3.18l-3.74,3.84,9.96-.66ZM104.87,144.71c-10.83-.15-21.84-.05-32.42,2.46-1.02.24-2.44-.35-2.12,1.18,3.16,3.52,8.5,1.68,12.26,1.64,6.94-.06,18.75,1.78,22.28-5.28ZM223.78,153.34c.8-4.22-4.47-4.31-7.3-5.31l7.3,5.31ZM145.39,159.31c-5.43-4.14-12.09-8.52-18.6-10.61,4.38,5.6,11.74,9.15,18.6,10.61ZM220.47,173.26v-11.95c1.63,1,1.22,4.36,1.34,5.98,5.37-3.77,3.23-5.5-1.01-8.63l-.66,1.99-5.64-5.31,3.99,15.6c-2.35-.66-3.64,6.02-3.26,7.2.18.57,3.84,3.05,4.87,4.47.95,1.31,2.83,5.03,3.39,6.57.23.63.88,2.16-.35,2.01-.48-1.36-1.31-3.03-2.11-4.21-.46-.68-1.33-2.08-1.21-.12,2.24,4.16,2.18,9.81,3.93,14,.73,1.75,2.65,2.81,2.71,4.94,2.37-.33,2.44-2.32,5.15-1.57,3.71,1.03,4.29,3.92,6.79,6.22l4.65-32.54c-.99.19-1.72,3.03-1.83,3.81-.57,3.89.69,9.83-4.14,11.46l1.32-4.64c-1.6.39-2.75,3.89-4.64,2.99,6.88-5.76,3.96-13.34,5.97-20.92l-2,3.32c-.94.06-1.6.32-1.26-.93.89-3.24,10.06-17.05,12.9-18.32.29-.13,1.09-.17.98.32l-3.32,4.31c10.24-.92,19.61-5.57,28.57-10.29-.04-.97-14.21,2.11-15.63,2.31-6.18.88-15.52.51-21.42,3.84-1.55.87-1.99,3.08-4.81,2.85,1.39,3.34-5.53,4.83-5.99,8.59l-1.32-1.99c-.34-.33-3.52,3.78-3.89,4.41-.83,1.43-.41,3.55-2.09,4.22ZM129.45,156.65c-3.18-2.45-6.48-7.17-10.63-7.29,3.02,2.83,6.59,6.03,10.63,7.29ZM200.54,166.62c1.07.78,3.02-2.5,4-2.96,3.04-1.4,5.77,0,4.6-5.98-1.16-5.93-8.29,1.87-10.31,3.65l1.7,5.29ZM264.98,187.88c8.15-3.6,16.87-7.45,23.6-13.28,1.24-2.75-12.95-13.21-16.14-13.83-2.84-.55-8.04,3.37-10.61,5.04-1.93,1.26-14.67,9.97-15.13,10.77-1.9,3.29.55,14.38-.33,18.59l1.98-3.98c1.17,9.62-5.78,17.68-5.3,27.23,12.72-6.04,26.37-11.1,37.52-19.93,7.16-5.68,13.88-12.74,9.64-22.56-7.28,4.05-15.29,9.72-23.23,12.3-.65.21-2.13.91-2-.34ZM259,165.3c-5.58.85-12.59,2.2-11.95,9.29l11.95-9.29ZM210.95,178.79c-.41-.46-2.13-1.52-2.77-1.55-1.99,2.19,4.29,9.18,3.64,9.97l-2.65-1.33v2c-1.06,1.06-8.35-5-10.63-3.66l7.31,9.31-1.3,1.27,5.96,10.34c1.97.32,1.59-2.33,3.27-3.7.88-.72,1.47-1.17,2.7-.94-4.25,4.12-2.04,3.44-.8,7.1.9,2.67.91,4.29.71,7.09s-1.49,5.66-1.58,8.38l7.62-10.32-.64-5.61,1.32.34c-.46-5.27-4.58-26.41-9.64-28.23l-1.32,1.98c-.97-.53-.69-1.85-1.21-2.44ZM181.93,183.89c-12.96,6.18-27.77,12.68-38.84,21.93-7.08,5.91-12.01,10.09-1.7,16.28,13.12,7.87,31.98,10.53,46.31,16.08.62.02,6.1-2.06,6.52-2.49,1.26-1.3,1.39-5.26,3.33-6.63,2.58-.32-.95,3.7.98,3.97l3.33-7.58c-5.38-8.67-4.34-21.02-11.28-28.27.23,1.16-3.37,9.44-3.99,8.63v-2.01s-1.33.68-1.33.68l2.65-13.29-4.64,3.32c-.8-.83,2.77-3.51,3.26-4.43.96-1.79-.18-4.81-1.6-6.18l-3.65,3.31.65-3.32ZM225.12,225.05c2.09-.82,10.54-3.24,11.18-5.08,1.2-3.46-2.23-17.03-7.2-14.52-2.32,1.17-1.07,9.68-1.39,12.58-.07.64-.29,2.5-1.26,2.38l-.66-3.98-.67,8.63ZM223.78,215.76c-1.12-.26-1.34.36-1.97,1.01-1.57,1.59-5.25,6.08-6.66,7.95-.48.65-2.48,3.85-1.99,4.31l9.66-3.29.96-9.99ZM206.6,242.9c1.21.47,2.37,1.03,3.65,1.35,4.01,1,14.03,3.01,17.95,3.35,1.06.09,1.9.22,2.9-.28.62-.31,5.07-7.28,5.58-8.37,2.01-4.34,2.57-9.38.73-13.88-.47-.8-1.05-.68-1.83-.56-.84.13-10.09,3.79-10.46,4.21-1.51,1.71.04,7.71-1.33,8.97s-1.04-1.66-1.98-1.32l-1.35,3.97c-1.16.17-.68-1.53-.59-2.25.19-1.48,2.33-7.85,1.92-8.37l-10.61,3.67-2.01,6.29-1.31-4.64-1.25,7.88ZM206.51,235.68c-1.2.64-3.81,3.19-3.91,4.43-.09,1,1.9,2.21,2.26,2.2,1.22-.03,1.07-5.48,1.65-6.62ZM239.78,244.28l-1.04-5.94-5.65,9.29,8.63-2.66c.23-1.29-1.55-.3-1.94-.69ZM189.24,241.66c-1.76-1.54-29.72,11.2-33.42,13.41-2.77,1.65-11.11,6.96-11.14,10.15-.04,3.83,4.45,5.3,7.38,6.64,1.85.84,10.02,4.15,11.26,3.37,5.24-8.66,14.19-13.68,21.27-20.62l-3.98,1c-1.79-1.88,9.55-13.14,8.63-13.94ZM226.45,248.3l-14.62-1.99c2.79,2.78,9.99,4.79,13.69,3.38.91-.34,1.14.23.92-1.4ZM242.39,250.3v-3.99s-6.64,2.66-6.64,2.66c-.15.94,1.85,1.04,2.5,1.13,1.39.19,2.74.29,4.14.19ZM217.14,254.93c-.49-.95-.61-2.19-1.35-2.96-1.47-1.55-16.53-5.75-17.25-4.99l.03,2.61,18.56,5.35ZM243.05,252.29c-4.23.39-7.89-1.17-12.13-.5-.59.09-2,.28-1.82,1.15,4.31-.04,8.62,1.22,12.96.67.97-.12,2.06-.51.98-1.33ZM244.38,256.93c-2.6,1.77-2.99-.92-4.99-1.32-3.94-.79-9.94.36-14.27-1.33,3.64,3.89,13.58,5.83,18.34,4.05.92-.34,1.14.21.92-1.4ZM241.06,280.84c3.76.43,3.14-9.03,2-10.3-10.54-6.17-21.33-12.47-33.22-15.59l24.89,16.61c2.46,2.61,6.43,5.45,6.33,9.28ZM184.59,262.92l1-6.64c-2.91,3.55-7.01,5.89-10.31,8.95-1.94,1.8-7.49,6.81-8.66,8.61-.52.8-.84,1.33-.62,2.34,12.57,6.17,13.9-4.39,16.61-13.94l1.98.68ZM203.19,266.89c.51-2.1-4.56-9.63-6.29-9.29-1.23.23-.76.9-.37,1.67,1.27,2.54,4.38,5.89,6.67,7.62ZM223.12,280.18c-3.4-9.93-11.89-16.62-21.25-20.58,2.36,10.58,13.4,14.6,21.25,20.58ZM244.97,263.64c-2.31-.38-5.37-1.8-7.22.26,1.76,2.05,4.44,2.91,6.95,3.66l.27-3.92ZM222.46,287.48l-22.58-20.58,11.29,22.95c1.79,1.13,8.7-2.86,11.29-2.37ZM238.4,281.51l-8.98-4.64-10.28-7.98c3.32,3.35,4.53,8.07,7.03,11.89,1.3,1.99,2.7,4.94,5.62,3.77l6.61-3.04ZM237.07,278.84l-12.62-8.62c3.07,3.88,7.98,6.99,12.62,8.62ZM223.12,283.49c-1.18-1.6-3.14-2.99-4.72-4.24-2.55-2.02-5.54-4.51-8.57-5.71,1.5,2.12,3.96,4.03,6.04,5.58s4.8,3.44,7.25,4.37ZM208.5,291.46c.15-3.47-2.58-6.22-3.4-9.55l-3.24-5.06c.88,3.84,2.22,8.75,4.06,12.2.58,1.08.96,2.65,2.57,2.4ZM171.97,281.5c.74-1.07-6.99-2.65-7.97-2.65-1.62,7.74,3.49,4.59,7.97,2.65ZM243.05,290.14c.73-2.14,1.06-3.88-.63-5.69l-7.99,2.38,4.97,1.99,1-2,2.66,3.31ZM240.83,307.2c.99-3.51,1.21-12.63-1.08-15.43-2.07-2.53-10.1-4.85-13.04-2.33-.54.67,3.06,9.34,3.52,11.18,1.18,4.72,1.77,11.5.72,16.27-.52,2.35-4.01,4.86-3.84,7.78,3.44-2.44,4.7-6.44,8.98-7.97l1.33.68-.34-9.97,2.64,3.32c-1.03-2.41,1.05-3.32,1.1-3.52ZM224.34,290.22l-11.83,2.59,2.64,9.94,3.07-2.61,2.23,1.61-2.65-.34c-.05,1.32-.96,2.75-1.07,3.97-.24,2.87,3.39,4.61.4,5.77l-1.33,14.17,5.92-8.39c-1.93-2.14-2.28-5.29,1.37-2.23-.06-2.11.73-4.82,2.66-5.98l.34,5.97c6.1-6.76,1.78-17.34-1.77-24.48ZM210.42,294.21l-2.57.24,4.64,7.64-2.07-7.88ZM202.45,296.19c-1.83-1.16-32.74,9.22-36.9,11.1-6.34,2.86-19.99,8.9-16.32,17.88,1.27,3.1,10.39,9.77,13.5,11.74,3.72,2.35,22.28,12.09,25.56,12.31,1.09.07,9.13-1.47,9.89-2.01,1.24-.87,2.29-9.86,2.95-12.33,2.1-7.83,5.28-15.23,8.71-22.54l-7.38-16.14ZM235.74,335.29c1.46-5.46,4.07-10.83,3.99-16.59l-3.68,9.26-.3,7.34ZM226.45,331.97c3.56-2.56,6.61-6.89,7.29-11.29-3.35,2.65-5.99,7.21-7.29,11.29ZM229.09,340.6l3.32-11.28-4.64,4.98c3.25,1.39,1.43,2.02.95,4.27-.14.68-.87,2.18.37,2.03ZM221.79,350.56l5.32-12.61c-3.04,1.94-5.07,7.01-5.82,10.45-.14.67-.67,2.33.5,2.16ZM211.82,365.17l4.65-21.91-3.77,11.82c-.28,2.56-1.33,5.25-1.52,7.78-.06.73-.49,2.47.65,2.31ZM198.54,349.91c-20.13,4.36-42.59,6.96-61.57,15.15-2.69,1.16-14.99,6.85-14.09,10.28.65,1.05,1.64,2.01,2.63,2.75,9.41,6.98,50.89,9.58,64.07,10.33,2.97.17,5.99-.1,8.97,0l-.67-13.28c-2.81,2.66-3.83,7.46-5.24,11.02-.37.92-.29,1.94-1.4.59.21-5.67,5.66-11.8,6.5-16.75,1.06-6.27-.81-13.69.82-20.09ZM226.45,371.15v19.59c0,.58-1.92,1.98.66,1.66l1.99-36.52-3.99,8.95-2.65,9.97c.91.73,1.28-1.88,1.99-2.66.61-.67.96-1.2,2-.99ZM216.43,391.04c1.38-9.06,2.77-17.92,6.02-26.52l-5.42,10.17c-2.07,5.07-4.47,10.48-2.6,16l2.01.35ZM201.19,386.42l2.66-20.58c-.96-.16-.9,1.15-1.12,1.85-1.59,4.89-2.42,11.29-2.19,16.42.04.81-.51,2.47.66,2.31ZM224.45,392.4v-16.6l-2.35,7.28c-.05,1.97-2.06,7.85-.35,9.03l2.7.29ZM213.82,393.73h-1.99c-1.09,6.86-.85,13.81.67,20.59,1.37-.34,1.06-.98,1.04-1.98-.13-6.26-.26-12.33.27-18.61ZM220.47,395.06v35.53c.03,1.43,2.42,2.63,3.58,2.29,2.38-.7.44-7.72.38-9.57-.28-8.84.26-17.74.03-26.59-.2-2.15-2.33-1.68-3.99-1.66ZM228.44,395.72c-.5,6.96-.39,13.97-.64,20.95-.17,4.68-1.54,11.23-.69,15.91.91,5.01,14.76,1.89,18.28,1.67,10.85-.69,22.48-.74,33.2-2.01,11.5-1.36,20.63-3.51,7.97-13.92-15.63-12.86-38.99-17.63-58.11-22.59ZM201.2,401.04v21.58l10.97,5.64c1.89-3.77-.12-5.95-.69-9.27-1.06-6.2-2.5-12.4-2.97-18.62-1.17.2-.74,3.45-.69,4.35.13,2.36.9,4.56.69,6.94h-1.99s-1.32-13.28-1.32-13.28c-.57,7.86-.83,14.78.65,22.57l-2.45-7.17-2.19-12.75ZM218.47,405.02c-1.74-.14-1.1-.09-1.31,1-1.33,7.15-1.66,15.29-2.06,22.6l.15.87,3.22,1.43v-25.9ZM199.76,424.38c-7.79-3.25-15.75-7.41-24.47-6.74-1.2,1.06,4,3.96,4.64,4.32,5.81,3.34,12.81,5.01,18.96,7.6l.87-5.18ZM212.38,430.36l-11.18-4.75.03,5.28,11.26,2.68-.11-3.21ZM154.69,449.52c-7.46-1.02-14.88-2.23-22.2-4.04-13.32-3.29-26.24-9.59-39.45-12.36-5.75-1.21-11.84-2.87-17.37-.17-1.37,2.08,5.66,5.55,7.29,6.26,15.68,6.81,50.81,11.32,68.08,11.5.58,0,3.67-.25,3.65-1.19ZM219.13,436.23c.19-2.85-1.86-4.84-4.64-4.64l.09,3.23,4.56,1.42ZM212.49,436.25l-11.95-2.67.42,2.68,11.19,1.97.34-1.99ZM224.45,436.89c.49-2.45-1.94-3.4-3.98-3.31v3.32s3.98,0,3.98,0ZM207.18,439.56c-11.86-.77-23.64-4.09-35.51-4.68-2.35-.12-17.01-.06-16.96,3.02,1.64,1.55,4.32,2.23,6.5,2.79,16.56,4.28,27.21,3.29,43.64.19.97-.18,2.06,0,2.33-1.32ZM324.1,445.54c-17.3-2.15-34.79-.57-52.14-1.34-7.6-.34-15.66-1.19-23.25-1.99-3.47-.37-19.13-3.89-20.93-1.97-1.21,1.29,3.32,2.14,3.98,2.32,21.83,6.13,41.19,4.67,63.42,4.28,8.27-.14,18.75.94,26.63.05,1-.11,2.05-.14,2.3-1.35ZM221.8,456.15l-2.12-12.82-.96-1.07-41.44,6.6c-.16,1.15,1.51.63,2.31.66,7.19.27,15.46.28,22.54,1.39.69.11,2.48.27,2.38,1.26l-41.85-.65,62.79,7.27.72-1.34-1.03-13.49c-1.19-.57-3.79-2.1-4.04-.07-.35,2.81,1.11,7.02,1.34,9.97.06.74.49,2.47-.65,2.31Z"></path>
  </g>

</svg>
