<svg xmlns="http://www.w3.org/2000/svg" viewBox="0 0 350 100" fill="#000">
      <g><path d="M 217 50 Q 280 45 343 50" fill="none" stroke="#000" stroke-width="4" stroke-linecap="round"/>
      <path d="M 0 -14.43 C 8.177 -6.4935 8.177 6.4935 0 14.43 C -8.177 6.4935 -8.177 -6.4935 0 -14.43 Z" transform="translate(229.60 48.76) rotate(128.00) translate(0 -9.24)"/>
      <path d="M 0 -13.29 C 7.530999999999999 -5.9805 7.530999999999999 5.9805 0 13.29 C -7.530999999999999 5.9805 -7.530999999999999 -5.9805 0 -13.29 Z" transform="translate(254.80 46.76) rotate(52.00) translate(0 -8.51)"/>
      <path d="M 0 -12.15 C 6.885000000000001 -5.4675 6.885000000000001 5.4675 0 12.15 C -6.885000000000001 5.4675 -6.885000000000001 -5.4675 0 -12.15 Z" transform="translate(280.00 46.00) rotate(128.00) translate(0 -7.78)"/>
      <path d="M 0 -11.01 C 6.239 -4.9545 6.239 4.9545 0 11.01 C -6.239 4.9545 -6.239 -4.9545 0 -11.01 Z" transform="translate(305.20 46.76) rotate(52.00) translate(0 -7.05)"/>
      <path d="M 0 -9.870000000000001 C 5.593 -4.4415000000000004 5.593 4.4415000000000004 0 9.870000000000001 C -5.593 4.4415000000000004 -5.593 -4.4415000000000004 0 -9.870000000000001 Z" transform="translate(330.40 48.76) rotate(128.00) translate(0 -6.32)"/>
      <path d="M 133 50 Q 70 45 7 50" fill="none" stroke="#000" stroke-width="4" stroke-linecap="round"/>
      <path d="M 0 -14.43 C 8.177 -6.4935 8.177 6.4935 0 14.43 C -8.177 6.4935 -8.177 -6.4935 0 -14.43 Z" transform="translate(120.40 48.76) rotate(-52.00) translate(0 -9.24)"/>
      <path d="M 0 -13.29 C 7.530999999999999 -5.9805 7.530999999999999 5.9805 0 13.29 C -7.530999999999999 5.9805 -7.530999999999999 -5.9805 0 -13.29 Z" transform="translate(95.20 46.76) rotate(-128.00) translate(0 -8.51)"/>
      <path d="M 0 -12.15 C 6.885000000000001 -5.4675 6.885000000000001 5.4675 0 12.15 C -6.885000000000001 5.4675 -6.885000000000001 -5.4675 0 -12.15 Z" transform="translate(70.00 46.00) rotate(-52.00) translate(0 -7.78)"/>
      <path d="M 0 -11.01 C 6.239 -4.9545 6.239 4.9545 0 11.01 C -6.239 4.9545 -6.239 -4.9545 0 -11.01 Z" transform="translate(44.80 46.76) rotate(-128.00) translate(0 -7.05)"/>
      <path d="M 0 -9.870000000000001 C 5.593 -4.4415000000000004 5.593 4.4415000000000004 0 9.870000000000001 C -5.593 4.4415000000000004 -5.593 -4.4415000000000004 0 -9.870000000000001 Z" transform="translate(19.60 48.76) rotate(-52.00) translate(0 -6.32)"/>
      <path d="M 168 15 H 182 V 22 H 199 V 36 H 182 V 85 H 168 V 36 H 151 V 22 H 168 Z"/></g>
    </svg>
