<svg xmlns="http://www.w3.org/2000/svg" viewBox="3737.41 92.45 559.11 332.05" fill="#000">
<g>
    <path d="M4243.08,273.36c11.43-10.7,26.03-22.78,28.23-39.34.4-3.03.4-7.27,0-10.3-1.29-9.74-7.16-18.65-15.33-23.96,5.38,14.8,1.45,30.88-3.74,45.12-1.84,5.05-4.24,10.93-6.86,15.6-3.7,6.6-9.11,11.51-14.15,17.04l-.2-.62c5.93-6.91,11.16-14.89,13.73-23.7,2.62-9,3.63-19.59,3.53-28.91-7.42,8.22-16.37,16.11-20.18,26.81-3.82,10.74-7.28,32.95-18.34,38.63-4.64,2.38-16.24,5.38-21.55,6.31-.46.08-1.41.48-1.68-.02,11.85-7.89,28.01-17.49,32.64-31.81,2.51-7.74,1.55-16.34,6.02-23.51l-.61-.61c-6.19,4.22-13.64,7.68-18.5,13.52-7,8.43-7.51,19.71-14.97,28.28-9.78,11.22-24.11,17.7-38.9,18.9-.46.04-1.55.31-1.44-.4,14.42-7.1,27.7-13.2,36.6-27.23,4.35-6.87,6.52-14.91,12.88-20.39.06-.32-.37-.24-.62-.21-7.55,1.07-21.17,7.53-27.02,12.49-14.77,12.51-16.64,33.13-38.27,35.74-6.05.73-12.96.9-19.11,1.27-.45.03-1.58.27-1.47-.43,14.19-2.84,25.36-12.81,34.94-23.07,8.86-9.5,13-15.54,23.99-23.41.19-.13,1.31-.67.73-.93-14.16,3.45-28.64,6.13-40.32,15.4-8.98,7.13-20.89,25.95-29.33,29.71-6.01,2.68-20.55,3.39-27.24,3.12-.5-.02-1.55.31-1.45-.41,6.52-1.79,12.89-4.51,18.43-8.39,12.31-8.61,20.74-22.45,33.33-30.71,4.17-2.73,8.78-4.73,13.52-6.23.07-.74-1.41-.44-1.86-.41-9.74.76-25.66,3.49-34.02,8.39-15.32,8.98-24.8,34.39-44.16,36.1-7.23.64-15.34-.47-22.66,0l15.6-4.15c23.64-6.04,31.08-37.18,54-42.48l6.5-1.19c-12.51.35-25.62-1.54-37.41,3.54-12.69,5.47-19.59,17.83-29.53,26.61-13.83,12.21-27.44,14.51-45.52,15.19-1.48.06-3.11.04-4.6-.02-.5-.02-1.55.31-1.45-.41,11.25-2.87,22.02-8.33,31.82-14.55,11.56-7.34,17.06-14.59,26.81-23.09,3.25-2.83,7.03-5.03,10.4-7.68-9.57,1.05-19.34,1.8-28.49,4.98-23.63,8.21-38.13,34.59-63.67,38.21-5.96.84-14.33,1.53-20.33,1.3-.5-.02-1.55.31-1.45-.41,9.79-4.94,21.54-8.38,29.94-15.59,8.7-7.46,14.38-18.31,24.52-24.13,3.14-1.8,6.59-3.13,9.98-4.36.1-.72-.95-.39-1.45-.41-16.51-.6-30.66,3.84-43.05,14.76-8.65,7.62-22.38,24.32-32.94,27.78-7.64,2.5-17.67,1.96-25.69,2.37l18.72-8.51c15.53-8,22.88-24.91,36.7-34.82,4.78-3.43,10.4-6.74,16.1-8.23-.38-.69-2.38-.8-3.1-.84-22.86-1.45-36.85,4.65-52.42,20.8-8.95,9.28-22.41,27.5-35.45,29.84-4.17.75-8.53.47-12.73.99-4.05.5-7.87,1.87-11.9,2.44l14.42-6.99c22.02-12.49,30.86-39.9,54.61-49.98.11-.69-1.02-.46-1.47-.43-29.2,1.83-42.91,7.57-59.58,31.49-3.33,4.77-6.25,10.63-9.89,15.06-8.56,10.41-24.53,14.88-37.17,17.92l10.58-7.08c13.94-10.44,22.19-25.9,33.09-38.85,7.27-8.65,16.13-14.7,26.18-19.77.11-.65-.59-.45-1.05-.43-29.07,1.42-46.25,13.99-62.66,36.73-10.51,14.56-13.22,26.68-31.11,34.18-13.62,5.71-28.33,8.33-42.42,12.56-1.03,12.69-4.42,24.98-7.88,37.15,8.54-6.28,17.29-12.34,26.23-18.05,11.51-7.36,34.47-22.45,48.01-21.47,12.13.88,25.98,18.35,35.35,25.78,15.91,12.62,37.85,20.78,58.17,15.37l4.39-1.63c-22.66-2.56-37.72-20.33-54.93-33.02-4.64-3.43-8.98-6.3-14.67-7.79-5.39-1.41-11.13-1.58-16.48-3.28l4.37-.82c28.22-2.88,47.69,21.6,69.52,33.6,12.16,6.68,26.58,6.15,40.04,5.48l-10.13-4.21c-13.09-6.57-21.77-18.58-33.82-26.89-9.14-6.31-17.18-9.43-27.42-13.33-.53-.2-1.28-.09-1.41-.88h13.1c12.98,0,31.52,21.13,41.59,29.1,13.85,10.96,24.51,14.05,41.99,15.81,1.96.2,4.12.47,6.02.21-17.26-13.5-31.3-31.26-51.28-41.04-3.15-1.54-6.53-2.61-9.75-3.97-.51-.22-1.23-.23-1.34-.94,4.14.7,8.36.31,12.57.94,26.8,4.04,36.08,30.25,58.55,40,7.52,3.26,15.41,4.53,23.48,5.63.94.13.72-.18.18-.6-4.63-3.68-9.87-7.57-13.92-11.87-4.98-5.28-8.87-11.65-13.71-17.06-6.52-7.29-14.33-12.56-21.84-18.7,5.94.46,11.75,1.27,17.2,3.8,19.26,8.94,25.16,33.16,45.07,41.01,8.3,3.27,17.65,3.74,26.46,2.96.45-.04,2.29-.19,2.34-.77-5.44-2.31-11.81-5.32-16.22-9.36-6.73-6.16-10.82-15.74-16.83-22.67-5-5.77-11.5-9.77-17.68-14.13,9.48-.05,20.37,2.92,27.66,9.13,7.3,6.22,13.17,14.79,20.35,21.23,13.72,12.31,30.9,18.5,49.5,17.45.36-.02,1.86.28,1.25-.42-6.83-2.75-13.41-5.69-19.12-10.41-9.08-7.49-14.21-18.41-23.96-25.11l-20.75-11.05c11.43.02,22.08,3.08,31.56,9.39,6.25,4.16,11.48,9.65,17.31,14.3,14.93,11.9,28.78,15.27,47.81,14.57.5-.02,1.55.31,1.45-.41-1.81-.54-3.87-1.31-5.56-2.13-16.36-8.01-25.45-23.73-43.1-29.67l-16.2-6.04c10.32.32,21.12,1.58,30.63,5.75,16.93,7.41,28.52,23.45,47.75,25.85,8.78,1.1,17.36-.19,25.98-1.66l-18.72-7.68c-9.3-5-16.99-12.41-26.32-17.34l-7.76-3.25c11.08-.77,20.69,1.91,30.76,6.04,21.38,8.77,33.26,17.92,57.99,10.97l6.48-2.46-54.05-18.3,13.08-.85c8.62-.04,16.57,1.24,24.85,3.46,14.97,4.02,20.61,8.56,36.37,1.62,6.72-2.96,15.06-7.35,18.85-13.79-8.84,3.56-17.94,3.01-27.23,2.07-7.81-.79-15.62-2.86-23.5-2.28,6.49-2.53,13.16-5.04,19.96-6.66,17.14-4.07,38.23-3.1,46.93-22.1,2.24-4.88,3.57-11.09,4.01-16.36-9.98,10.68-22.53,20.61-37.64,22.03Z"></path>
    <path d="M4012.29,218.26l-33.67,22.25c-.74,1.08,4.69.8,5.16.86,1.1.15,2.92,1,3.36,2.05.38.92-.18,3.3.83,2.9l56.77-38.05-88.57-16.84,33.71-21.81,1.78-.2,88.19,17.85,100.44-68.01,1.82-.15,34.37,6.62-104.37,67.15,99.8,19.75c.18.18-1.03,1.24-1.27,1.42-9.38,7.17-20.56,13.08-29.94,20.4l-98.21-18.02-97.34,64.87-5.55,4.85-10.95,6.3c12.51-.15,21.74-7.63,31.14-14.8,9.95-7.59,19.18-16.95,30.83-21.98,8.91-3.85,18.68-5.06,28.25-6.27l25.63-17.24,99.42,18.69,1.37-.19,44.13-31.56c1.42-4.76.62-9.86.76-14.75l-78.96-16.25,82.75-53.02c1.31-5.17,1.02-10.67,1.6-15.96l-57.93-10.85-99.19,65.91c-1.69.45-5.16-.49-7.09-.84-27.16-4.96-54.03-11.82-81.2-16.77l-50.34,31.9-.3.65.86,14.99,71.94,14.13Z"></path>
    <path d="M3878.53,360.34c-1.43-.62-6.21-3.51-7.21-3.23l-47.64,31.44-40.51-5.41,65.7-44.08-.4-1.04-7.08-5.82-70.08,46.77c-1.26,1.08-.2,2.58-.18,3.95.11,5.46-.16,10.93.04,16.38l55.27,9.37,63.4-43.41v-.84c-3.87-.75-7.71-2.52-11.31-4.09Z"></path>
    <path d="M3961.15,263.79l21.21-14.13c-8.05,2.71-15.44,7.96-21.21,14.13Z"></path>
    <path d="M3903.8,348.8c1.82,1.09,4.11,2.58,6.21,2.73l-13.75-10.19-2.05.22c2.87,2.6,6.27,5.26,9.6,7.24Z"></path>
  </g>
</svg>
