<svg xmlns="http://www.w3.org/2000/svg" viewBox="3227.85 4.13 306.86 510.92" fill="#000">
<g>
    <g>
      <path d="M3520.25,415.5v2.49c-10.49,9.44-28.33,20.78-35.89,32.52-7.76,12.04-11.01,33.55-18.17,46.55-1.56,2.83.16,4.24-5.5,3.18l-73.61-140.81,42.52-85.97,90.65,142.05Z"></path>
      <path d="M3294.31,500.24c-4.54-22.02-11.59-51.78-27.36-68.52-4.46-4.74-25.52-17.11-24.61-22.1,74.75-98.12,139.36-206.53,174.82-325.65,21.03-8.91,53.16,25.06,52.8,45.44-.49,27.62-24.68,86.26-36.18,113.3-33.06,77.75-80.28,164.45-124.16,236.77-4.31,7.1-8.33,16.59-15.3,20.75Z"></path>
      <path d="M3338.96,86.5c4.49,30.35,23.28,57.31,34.22,85.59-.35,4.05-33.15,67.12-37.08,72.3-2.13,2.81-2.6,5.09-7.03,4.12-25.56-50.71-78.4-143.35,9.88-162.01Z"></path>
      <path d="M3458.16,81.51c-13.05-5.81-25.8-12.44-39.75-16.16-27.13-7.24-48.63-8.13-76.05-1.61-15.35,3.65-28.65,11.12-43.14,16.51,26.39-81.21,135.79-83.63,158.93,1.26Z"></path>
    </g>
  </g>
</svg>
