<svg xmlns="http://www.w3.org/2000/svg" viewBox="0 0 200 150" fill="#000">
      <g><text x="100" y="78" text-anchor="middle" font-family="Georgia, 'Times New Roman', serif" font-weight="700" font-size="72" letter-spacing="2">Ś.P.</text>
      <path d="M 0 -5.58 C 3.1 -2.511 3.1 2.511 0 5.58 C -3.1 2.511 -3.1 -2.511 0 -5.58 Z" transform="translate(108.34 98.32) rotate(50.00) translate(0 -3.12)"/>
      <path d="M 0 -7.998305191657992 C 4.44350288425444 -3.5992373362460963 4.44350288425444 3.5992373362460963 0 7.998305191657992 C -4.44350288425444 3.5992373362460963 -4.44350288425444 -3.5992373362460963 0 -7.998305191657992 Z" transform="translate(121.84 108.13) rotate(86.00) translate(0 -4.48)"/>
      <path d="M 0 -9 C 5 -4.05 5 4.05 0 9 C -5 4.05 -5 -4.05 0 -9 Z" transform="translate(127.00 124.00) rotate(122.00) translate(0 -5.04)"/>
      <path d="M 0 -7.998305191657993 C 4.443502884254441 -3.5992373362460968 4.443502884254441 3.5992373362460968 0 7.998305191657993 C -4.443502884254441 3.5992373362460968 -4.443502884254441 -3.5992373362460968 0 -7.998305191657993 Z" transform="translate(121.84 139.87) rotate(158.00) translate(0 -4.48)"/>
      <path d="M 0 -5.58 C 3.1 -2.511 3.1 2.511 0 5.58 C -3.1 2.511 -3.1 -2.511 0 -5.58 Z" transform="translate(108.34 149.68) rotate(194.00) translate(0 -3.12)"/>
      <path d="M 0 -5.58 C 3.1 -2.511 3.1 2.511 0 5.58 C -3.1 2.511 -3.1 -2.511 0 -5.58 Z" transform="translate(91.66 98.32) rotate(310.00) translate(0 -3.12)"/>
      <path d="M 0 -7.998305191657992 C 4.44350288425444 -3.5992373362460963 4.44350288425444 3.5992373362460963 0 7.998305191657992 C -4.44350288425444 3.5992373362460963 -4.44350288425444 -3.5992373362460963 0 -7.998305191657992 Z" transform="translate(78.16 108.13) rotate(274.00) translate(0 -4.48)"/>
      <path d="M 0 -9 C 5 -4.05 5 4.05 0 9 C -5 4.05 -5 -4.05 0 -9 Z" transform="translate(73.00 124.00) rotate(238.00) translate(0 -5.04)"/>
      <path d="M 0 -7.998305191657993 C 4.443502884254441 -3.5992373362460968 4.443502884254441 3.5992373362460968 0 7.998305191657993 C -4.443502884254441 3.5992373362460968 -4.443502884254441 -3.5992373362460968 0 -7.998305191657993 Z" transform="translate(78.16 139.87) rotate(202.00) translate(0 -4.48)"/>
      <path d="M 0 -5.58 C 3.1 -2.511 3.1 2.511 0 5.58 C -3.1 2.511 -3.1 -2.511 0 -5.58 Z" transform="translate(91.66 149.68) rotate(166.00) translate(0 -3.12)"/>
      <path d="M 96.5 103 H 103.5 V 108.5 H 111 V 115.5 H 103.5 V 137 H 96.5 V 115.5 H 89 V 108.5 H 96.5 Z"/></g>
    </svg>
