<svg xmlns="http://www.w3.org/2000/svg" viewBox="1842.35 8.63 519.70 499.69" fill="#000">
<g>
    <path d="M2306,287.67c16.56-14.12,22.82-17.05,33.68-38.11,6.46-12.52,2.51-16.18,4.94-25.99.26-1.05,2.68-.87,2.72-1.69.11-2.18-2.18-14.14-4.76-14.09-3.43,3.83-5.25,9.36-8.22,13.42-4.5,6.15-13.33,14.82-17.98,21.3-10.16,14.17-9.44,27.92-13.69,43.2-.52,1.85-.17,4.2-2.76,4.67.95-11.31,6.43-22.52,2.71-33.88l2.68-.64-4.03-6.11c-.39,4.13.5,8.87-.01,12.89-.24,1.87-.81,4.03-2.7,2.01-4.67-8.44.33-22.21-2.82-28.76-.95-1.98-4.41-7.02-5.28-8.79-2.66-5.39-6.01-12.28-10.15-16.7-4.95-5.29-14.11-10.92-19.68-16.2-.27,1.9.14,3.62.65,5.43,5,17.7,8.03,35.35,20.98,49.45,8.49,9.24,16.83,8.68,17.7,24.39.36,6.49-6.89,28.01-9.52,35.2l-12.2,25.03c.4-7.05,6.71-11.52,4.06-18.97l2.69,1.38c-.38-7.97,2.91-13.95-1.45-22.27l2.74-1.35c-2.97-8.49-5.49-18.54-10.48-26.11-2.15-3.26-4.32-3.58-5.75-5.45-1.5-1.98-1.39-6.56-4-7.13l-1.38,23.03-2.69-1.37c-.71,14.32,1.22,28.3,6.52,41.56,3.73,9.32,9.09,11.49,6.34,23.48-2.84,12.39-27.77,41.55-37.93,50.1-1.52,1.28-2.2,3.28-4.74,2.69,3.16-4.54,7.89-8.31,10.69-13.12,2.12-3.63,2.29-4.53,4.9-8.55.52-.79.42-13.68,2.03-16.23l2.68,4.05c1.59-9.71,1.76-17.73-.09-27.43-.21-1.12-2.16-1.08-2.27-1.67-.91-4.77-.41-10.9-1.71-16.27-.5-2.05.95-2.38-2.68-2.04.65,5.84-2.77,9.31-6.78,12.88l2.7,1.34c-1.87,4.93-5.29,3.68-6.59,5.48-5.43,7.53-10.72,30.01-11.79,39.49-1.14,10.18,2.59,18.99-2.53,28.94-6.94,13.46-41.52,28.74-56.29,32.41l16.31-10.2c.04-8.72,10.62-7.87,13.81-17.28.74-2.18-.49-4.25.27-6.33,7.27-20,5.87-21.92,8.96-41.29.17-1.09,4.83-7.64.61-7.48-.77.03-10.21,8.89-11.51,10.21-1.18,1.18-4.48,4.29-4.73,4.58-1.84,2.12-1.47,5.73-2.21,6.68-.16.21-1.8-1.35-4.59,1.42-14.27,14.18-14,34.45-18.89,51.64-4.75,16.67-27.44,15.19-42.22,18.73-4.5,1.08-13.26,5.39-16.19,5.58-2.37.16-16.27-5.17-20.84-6.13-9.59-2.02-28.36-1.99-34.7-10-3.35-4.23-3.21-15.1-4.77-20.96-2.17-8.13-9.59-23.39-13.43-30.93-2.55-5.01-13.86-15.64-17.29-19.07-2.25-2.25-4.36-7.05-7.75-9.05-2.77,26.87.19,52.53,21.64,70.47l14.25,9.43c-14.82-3.66-52.71-20.95-56.3-36.46-1.76-7.61-.13-16.68-1.12-24.46-2.15-16.9-10.66-34.33-19.2-48.7-1.24-2.08-5.86-3.66-4.67-9.55-1.7-.4-2.35,2.71-2.44,3.74-1.7,19.45-7.15,31.38.44,51.77l12.84,21.69c-11.74-10.74-38.09-36.7-36.5-53.34.41-4.34,3.71-8.69,4.71-13,1.66-7.14,5.49-21.36,6.16-27.7.8-7.62-1.83-14.9-1.45-22.46l-2.69,1.37-.02-8.15-2.69,1.37,1.33-12.2c-12.39,14.78-20.67,34.95-18.93,54.83.53,6,3.06,11.17,4.03,16.95l-12.83-27.11c-1.21-6.57-4.84-15.69-4.64-22.2.43-13.69,20.42-26.87,22.99-41.38l2.57,1.28c6.81-13.06,3.35-26.51,9.53-39.26l-12.04,8.94c-9.43,9.76-20.97,22.44-23.17,36.43-1.35,8.59.99,20.16,0,29.12-2.05.05-1.99-4.81-2.29-6.51-2.7-15.19-3.84-45.06,2.24-59.24,5.11-11.9,20.69-15.25,29.25-24.93l19.56-27.84c-1.06-2.02-3.26.3-4.45.97-21.17,11.79-40.58,19.37-42.97,47.12-2.53.31-1-2.72-.74-4.12,1.17-6.31,3.87-20.85,6.27-25.97.55-1.17,2.37-1.33,3-2.76,4.9-11.11,9.26-28.44,22.56-31.57,15.14-3.56,22.58-2.94,34.72-15.4,2.76-2.83,2.16-8.4,8.7-8.24-.72-3.34-6.7.67-8.98.93-1.77.2-3.85-1.08-6.19-.64-14.51,2.74-24.48,10.22-33.57,21.4,1.7-5.9,6.21-11.68,9.72-16.68,3.51-5,10.65-15.31,15.33-18.54,8.97-6.18,25.02,1.08,36.84-6.43,3.98-2.53,3.84-6.55,8.54-5.77l-14.4-3.57c-6.12.67-12.3,1.47-17.7,4.66-3.75,2.22-5.59,6.51-9.88,7.04l17.61-18.28-2.7-1.34c10.52-11.02,13.14-26,17.6-39.96-2.75-2.9-9.06,10.69-9.49,12.17l-2.01-2.69c-8.42,9.03-6.23,18.78-7.43,29.15-1.04,9.04-20.93,23.26-26.45,31.79-2.16-3.81,3.21-6.87,4.81-10.09,2.88-5.77,2.34-6.95,2.7-12.1.07-.98,2.36-.69,2.63-1.74,1.25-4.91-1.54-10.54-1.06-14.36.56-4.43,5.11-8.93,5.2-15.17.02-1.51.4-2.4-1.39-2.05.7,3.74-4.88,5.05-5.2,5.6-.27.47,1.37,2.26.47,3.83-.79,1.37-6.23,4.51-7.79,7.14-10.4,17.58.16,27.81-2.67,40.68-1.85,8.43-18.34,23.28-20.06,33.47-2.37.37-1.4-3.16-1.04-4.43,1.96-6.91,6.68-12.15,7.69-20.77.94-8-1.31-14.91-1.21-21.53.07-5.01,2.59-12.08,2.4-17.29-.04-.98-.69-4.12-2.38-3.69-5.41,11.58-12.94,18.28-14.54,32.2-1.85,16.12,5.37,22.91,6.32,37.46-5.59,14.72-14.56,29.91-18.53,45.15-3.69,14.18-4.27,30.57-7.15,45l-4.99-26.77c-6.13-10.59-12.61-21.58-16.14-34.31-.27-.98-3.86-10.52-5.94-8-5.84,21.97-7.06,46.3,7,65.47,6,8.18,15.56,13.05,20.16,21.84l8.04,45.44-6.37-14.54c-4.63-1.72-5.21-9.9-6.11-10.9-.65-.72-3.34-.2-4.44-1.6-1.27-1.62-.7-5.49-1.92-7.3-.94-1.4-7.24-2.52-8.07-3.86-.46-.74,1.01-2.72.49-3.86-.5-1.11-7.31-5.29-8.12-8.05-2.46,7.11-3.74-3.14-4.3-4.06-2.37-3.93-5.78-7.41-9.9-9.48l-1.32,4.89c5.17,22.53,6.57,42.27,25.8,57.98,9.98,8.15,22.55,9.98,31.04,19.08l24.38,44.02c-12.14-13.04-25.14-24.01-39.96-33.85l-2,2.69c-.08-3.34-2.37-4.28-5.44-4.1l1.35-2.64c-9.82-1.86-18.16-6.66-26.42-12.21-1.61,8.28,8.34,15.31,10.81,21.76,2.03,5.29,2.62,9.73,7.53,15.49,17.04,19.96,32.38,19.92,55.82,24.04,12.43,2.19,19.45,14.23,28.1,22.02,6.88,6.19,14.82,11.37,21.68,17.6-1.26,2.17-3.04-.51-4.19-1.23-13.86-8.57-25.25-16.7-41.82-20.49-12.09-2.76-22.5-1.11-34.54-2.08-1.86,9.19-4.19,2.22-5.81,1.54-3.01-1.26-7.2-2.15-10.48-2.82l18.26,18.31c14.48,12.19,30.4,18.35,49.52,18.32,16.96-.03,22.28-10.62,41.24-3.42,16.29,6.18,31.8,18.98,50.13,21,.02,2.65-5.58,1.25-7.09.98-20.67-3.69-28.94-9.92-53.16-7.75-10.28.92-13.77,4.01-21.34,7.15-3.68,1.53-9.23,2.66-13.24,3.68l1.37,4.04c-6.23,2.78-14.89-4.15-18.96,1.35,8.81.29,15.62,7.06,24,10.55,2.23.93,8.98,4.14,9.51,4.28,16.03,4.31,34.7,2.74,49.82-3.97,15.27-6.77,18.62-17.56,37.89-16.24,11.38.78,22.86,4.24,33.2,8.77-8.08,5.2-26.56,21.57-27.12,31.14-.21,3.5,1.05,1.12,2.73.68l-1.34,6.78c.6.64,6.05-2.45,6.47-2.97.24-.3-.94-1.81-.66-2.12,3.69-4.05,7.64-8.9,11.07-12.55,2.93-3.12,15.43-16.26,18.79-15.98,12.12,6.59,21.5,17.71,25.3,30.91l2.68-2.69c.74,4.63,4.14,5.67,8.14,4,1.16-16.97-13.04-28.22-25.71-37.19.81-1.12,1.85-1.73,3.06-2.33,8.05-3.99,38.85-10.83,47.7-10.65,9.05.18,19.33,8.28,27.8,11.61,16.17,6.34,30.4,7.1,47.38,3.39l-2.69-2.68c6.58,2.65,6.78-1.11,7.71-1.35,11.25-2.86,19.22-10.14,28.94-16.81,2.16-1.48,6.26-.77,8.04-4.21-2.73-1.7-5.4,2-8.59,1.68-2.29-.23-5.62-3.43-9-2.37l2.7-4.04c-23.51-3.91-43.27-6.67-66.66.38-9.01,2.71-19.33,9.46-27.8,11.49-1.38.33-7.18,1.58-7.12-1.02,22.61-2.58,40.78-22.14,60.24-29.85,12.5-4.95,23.42-.26,36.66-1.27,23.6-1.81,43.86-15.82,56.04-34.84,1.41-2.2.61-5.09,3.59-8.46,2.56-2.91,6.38-4.37,8.73-7.55-3.28-2.04-6.79,2.15-10.23,3.31-18.23,6.14-34.47,7.09-52.37,16.72-13.57,7.3-21.91,17.73-33.69,25.92-1.21.84-4.06,3.43-5.3,1.48,7.51-6.47,14.96-13.05,21.73-20.3,9.56-10.24,17.9-26.09,30.75-31.53,20.22-8.55,27.86-7.04,43.61-25.78,10.88-12.94,12.29-17.92,16.44-33.29,1.47-5.44,5.27-11.66,4.65-17.11-1.74,1.52-2.37,3.86-4.08,5.41-6.79,6.15-11.56,9.23-18.74,13.78-9.79,6.2-21.44,17.85-28.32,27.17-7,9.48-11.49,20.81-19.32,29.49-.17-5.23,5.07-11.16,7.69-16.69,5.8-12.25,13.1-39.28,22.11-46.97Z"></path>
    <path d="M2014.79,180.67l-4.76-2.72c.18,2.62,4.9,5.51,7.08,7.2,1.34,1.04,4.36,1.89,4.85,2.52.21.27-.88,1.58-.77,1.75.84,1.25,5.02.66.84,3.97-2.35,1.86-5.83,1.48-6.66,7.01,3.19,4.27,3.03,8.27,9.54,6l-2.71,4.04,61.65-.97,1.81,1.84.22,111.58,2.72.66-2.74,2.7,2.71-.68c.94,15.65-1.24,32.61,0,48.1.13,1.57.42,6.07,2.7,6.08l1.35-12.18.03,17.59,2.68-12.18,2.73,25.74c4.97-2.85,2.59-.55,5.41,1.34v-24.38l4.08,16.25c1.43.55,2.69-4.46,2.69-4.73v-23.7l2.7,8.12,2.71-9.47c.13,3.37-.13,6.79.01,10.17.07,1.65-1.02,5.03,1.34,4.72v-23.01l-2.76.65c1.74-5.45.09-9.93,0-14.82-.38-21.09-.81-44.11.06-65.08.07-1.66-1.03-5.03,1.35-4.73v20.99c0,1.36.47,8.5,2.7,8.8l-.09-77.97c3.85-3.65,3-6.13,2.82-11.42h35.9c.27,0,5.28-1.26,4.73-2.69-4.61-.61-9.72,1.14-14.14,1-1.7-.06-8.36-.42-8.87-2.35l43.71-1.67c7.06-1.59,3.3-5.64,4.94-7.16,1.67-1.55,5.45-.98,5.52-3.36l-13.54-1.38,4.06-8.1h-7.34s-.81-3.4-.81-3.4l5.43-4.74c-14.81,2.14-29.65,4.88-44.7,4.05l1.37-2.69-17.62-1.37c3.1-6.82-.99-11.09-1.36-16.91-.69-10.95-.34-24.2-.06-35.29.23-8.83.54-17.98,2.77-26.34l-10.82,2.7-.03-5.41c-2.3-.55-.85,1.88-1.51,2.39-.35.27-1.92-.7-2.95-.46-1.17.27-2.28,1.48-2.99,1.5-3.09.09-8.51-2.53-12.85-.72l1.35,6.04c-1.57,2.57-3.09,1.18-5.37.71l-.05,73.16c-3.52.62-6.79-1.19-10.18-1.3-20.36-.63-41.36,1.09-59.65,1.49l-1.25,2.52Z"></path>
    <path d="M2259.73,122.64c-11.18-7.74-22.29-6.65-35.12-8.25-2.67-.33-1.96.29-1.91,2.6,11.12,5.15,18.42,15.75,31.98,17.48,7.94,1.01,14.51-2.19,20.86,4.87,2.09,2.32,2.25,6.25,5.38,7.47-.46-5.68-5.27-9.71-5.46-15.62-.19-5.71,3.34-11.13,4.01-16.32,1.25-9.72-.42-21.6-4.06-30.67-.45-1.12-4.4-1.91-2.61-6.48l-2.61,1.31-8.21-13.49c2.28,13.72-1.07,27.67,1.66,40.99,1.75,8.49,6.83,17.72,7.79,26.73-4.51-2.8-7.37-7.6-11.72-10.61Z"></path>
    <path d="M2306.67,207.76l-2.69-1.38,1.33,18.97-2.71-18.96-2.43,2.17,2.46,27.64c4.11.54,3.96-6.01,6.15-9.42,11.88-18.5,24.65-23.3,22.12-50.7-.81-8.83-3.08-11.26-6.31-17.44-.6-1.15,1.74-6.29-1.64-6.42l-.03,8.13-2.66-1.36c.63,4.02-3.19,4.94-4.08,6.41-6.9,11.36-12.5,29.36-9.52,42.36Z"></path>
    <path d="M1905.7,187.43c1.44-5.46,3.61-11.26,4.05-16.94,1.64-20.74-6.34-29.67-8.86-48.68l-3.29-8.86c2.02,6.17-2.34,6.21-3.44,9.38-5.45,15.73-6.55,32.99.47,48.42l11.06,16.68Z"></path>
    <path d="M2236.17,77.11c2.07,6.2,7.99,10.93,5.48,16.85-11.96-7.07-21.07-7.58-34.54-5.42-2.01.32-4.18.07-4.73,2.7,7.31,2.06,16.62,7.06,24.06,7.91,8.61.98,17.8-5.11,26.04,4.3.18-2.94-2.23-4.56-2.66-7.55-.68-4.69,1.56-8.73,1.37-13.38-.21-5.21-6.22-21.12-9.87-24.69-1.38-1.34-3.68-1.12-5.05-2.47-1.5-1.48-4.45-9.27-5.47-10.14-.64-.55-3.65-.5-2.47,1.79,4.75,9.36,4.67,20.56,7.85,30.1Z"></path>
    <path d="M2290.44,172.53l2.68-5.4.03,9.47,11.58-25.65c1.09-13.07,4.01-23.55-3.56-35.24l-2.6,1.31-.02-6.78-2.04,1.33c-.82,9.79-6.5,16.61-7.41,26.46-.77,8.33.21,16.83,1.32,25.05-6.18-4.01.27,7.44.03,9.46Z"></path>
    <path d="M2255.7,160.72c2.83,4.97,3.36,8.7,7.6,13.89,8.33,10.2,18.95,16.44,31.18,20.96-3.24-24.25-23.93-36.52-44.68-44.69-.73,4.64,4.58,7.53,5.9,9.85Z"></path>
    <path d="M2180.7,73.64c6.76-.13,12.73,2.07,19.66,1.37,7.94-.8,12.28-6.21,20.98-1.36-3.82-8.59-2.33-19.83-8.31-27.57-1.04-1.35-15.38-13.85-16.05-13.06,5.65,12.58,10.26,25.65,18.95,36.56-12.21-3.15-25.68-6.87-35.22,4.06Z"></path>
    <path d="M1991.06,70.94c9.06-1.86,16.12,4.6,24.86,3.99,3.05-.21,15.8-3.43,10.02-7.74-2.28-1.7-12.02-3.2-15.2-3.02-4.51.25-7.71,2.33-11.58,3.41-2.83.79-6.36-1.95-8.11,3.37Z"></path>
    <path d="M2190.18,52.67c-5.61.74-9.19-2.77-15.23-1.75-2.61.44-7.85,3.26-10.08,4.82-1.17.82-2.51-.23-1.77,3.01,10.87,1.74,20.1-.95,29.8-5.43-3.67-6.08-4.32-12.85-9.63-18.12-4.5-4.47-15.2-8.27-21.52-10.29,9.68,9.65,16.2,20.77,28.44,27.76Z"></path>
    <path d="M2032.5,42.63c2.03-2.57,1.4-5.27,2.32-6.49,1.17-1.57,10.38-9.71,10.4-10.56-4.55-5.17-3.59.07-5.4,1.29-2.47,1.67-5.69.75-9.54,4.07-4.05,3.49-7.88,11.55-8.06,16.99.95,1.01,9.11-3.81,10.28-5.29Z"></path>
    <path d="M2018.15,31.68c-6.52-.86-7.33,6.97-9.46,8.75-.58.49-2.05-.91-2.8.14-3.4,4.71-4.48,13.83-3.98,19.54,10.79-6.26,11.1-18.43,16.24-28.43Z"></path>
    <path d="M2043.87,54.67c.57-2.13-1.65-.82-2.28-1.75-.71-1.05-.18-3.03-.56-3.42-.58-.59-9.42-.42-11.29-.15l-8.87,3.97c8.53,1.72,14.98,7.94,23.01,1.35Z"></path>
  </g>
</svg>
