<svg xmlns="http://www.w3.org/2000/svg" viewBox="0 0 200 200" fill="#000">
      <g><path d="M 0 -8.06 C 4.03 -3.6270000000000002 4.03 3.6270000000000002 0 8.06 C -4.03 3.6270000000000002 -4.03 -3.6270000000000002 0 -8.06 Z" transform="translate(114.97 29.57) rotate(44.00) translate(0 -4.51)"/>
      <path d="M 0 -9.58654395221224 C 4.79327197610612 -4.313944778495508 4.79327197610612 4.313944778495508 0 9.58654395221224 C -4.79327197610612 4.313944778495508 -4.79327197610612 -4.313944778495508 0 -9.58654395221224 Z" transform="translate(133.36 36.19) rotate(59.60) translate(0 -5.37)"/>
      <path d="M 0 -10.963659146324817 C 5.4818295731624085 -4.933646615846167 5.4818295731624085 4.933646615846167 0 10.963659146324817 C -5.4818295731624085 4.933646615846167 -5.4818295731624085 -4.933646615846167 0 -10.963659146324817 Z" transform="translate(149.29 47.51) rotate(75.20) translate(0 -6.14)"/>
      <path d="M 0 -12.056543952212241 C 6.0282719761061205 -5.425444778495509 6.0282719761061205 5.425444778495509 0 12.056543952212241 C -6.0282719761061205 5.425444778495509 -6.0282719761061205 -5.425444778495509 0 -12.056543952212241 Z" transform="translate(161.59 62.70) rotate(90.80) translate(0 -6.75)"/>
      <path d="M 0 -12.758219190498059 C 6.379109595249029 -5.7411986357241265 6.379109595249029 5.7411986357241265 0 12.758219190498059 C -6.379109595249029 5.7411986357241265 -6.379109595249029 -5.7411986357241265 0 -12.758219190498059 Z" transform="translate(169.35 80.64) rotate(106.40) translate(0 -7.14)"/>
      <path d="M 0 -13 C 6.5 -5.8500000000000005 6.5 5.8500000000000005 0 13 C -6.5 5.8500000000000005 -6.5 -5.8500000000000005 0 -13 Z" transform="translate(172.00 100.00) rotate(122.00) translate(0 -7.28)"/>
      <path d="M 0 -12.758219190498059 C 6.379109595249029 -5.7411986357241265 6.379109595249029 5.7411986357241265 0 12.758219190498059 C -6.379109595249029 5.7411986357241265 -6.379109595249029 -5.7411986357241265 0 -12.758219190498059 Z" transform="translate(169.35 119.36) rotate(137.60) translate(0 -7.14)"/>
      <path d="M 0 -12.056543952212241 C 6.0282719761061205 -5.425444778495509 6.0282719761061205 5.425444778495509 0 12.056543952212241 C -6.0282719761061205 5.425444778495509 -6.0282719761061205 -5.425444778495509 0 -12.056543952212241 Z" transform="translate(161.59 137.30) rotate(153.20) translate(0 -6.75)"/>
      <path d="M 0 -10.963659146324817 C 5.4818295731624085 -4.933646615846167 5.4818295731624085 4.933646615846167 0 10.963659146324817 C -5.4818295731624085 4.933646615846167 -5.4818295731624085 -4.933646615846167 0 -10.963659146324817 Z" transform="translate(149.29 152.49) rotate(168.80) translate(0 -6.14)"/>
      <path d="M 0 -9.58654395221224 C 4.79327197610612 -4.313944778495508 4.79327197610612 4.313944778495508 0 9.58654395221224 C -4.79327197610612 4.313944778495508 -4.79327197610612 -4.313944778495508 0 -9.58654395221224 Z" transform="translate(133.36 163.81) rotate(184.40) translate(0 -5.37)"/>
      <path d="M 0 -8.06 C 4.03 -3.6270000000000002 4.03 3.6270000000000002 0 8.06 C -4.03 3.6270000000000002 -4.03 -3.6270000000000002 0 -8.06 Z" transform="translate(114.97 170.43) rotate(200.00) translate(0 -4.51)"/>
      <path d="M 0 -8.06 C 4.03 -3.6270000000000002 4.03 3.6270000000000002 0 8.06 C -4.03 3.6270000000000002 -4.03 -3.6270000000000002 0 -8.06 Z" transform="translate(85.03 29.57) rotate(316.00) translate(0 -4.51)"/>
      <path d="M 0 -9.58654395221224 C 4.79327197610612 -4.313944778495508 4.79327197610612 4.313944778495508 0 9.58654395221224 C -4.79327197610612 4.313944778495508 -4.79327197610612 -4.313944778495508 0 -9.58654395221224 Z" transform="translate(66.64 36.19) rotate(300.40) translate(0 -5.37)"/>
      <path d="M 0 -10.963659146324817 C 5.4818295731624085 -4.933646615846167 5.4818295731624085 4.933646615846167 0 10.963659146324817 C -5.4818295731624085 4.933646615846167 -5.4818295731624085 -4.933646615846167 0 -10.963659146324817 Z" transform="translate(50.71 47.51) rotate(284.80) translate(0 -6.14)"/>
      <path d="M 0 -12.056543952212241 C 6.0282719761061205 -5.425444778495509 6.0282719761061205 5.425444778495509 0 12.056543952212241 C -6.0282719761061205 5.425444778495509 -6.0282719761061205 -5.425444778495509 0 -12.056543952212241 Z" transform="translate(38.41 62.70) rotate(269.20) translate(0 -6.75)"/>
      <path d="M 0 -12.758219190498059 C 6.379109595249029 -5.7411986357241265 6.379109595249029 5.7411986357241265 0 12.758219190498059 C -6.379109595249029 5.7411986357241265 -6.379109595249029 -5.7411986357241265 0 -12.758219190498059 Z" transform="translate(30.65 80.64) rotate(253.60) translate(0 -7.14)"/>
      <path d="M 0 -13 C 6.5 -5.8500000000000005 6.5 5.8500000000000005 0 13 C -6.5 5.8500000000000005 -6.5 -5.8500000000000005 0 -13 Z" transform="translate(28.00 100.00) rotate(238.00) translate(0 -7.28)"/>
      <path d="M 0 -12.758219190498059 C 6.379109595249029 -5.7411986357241265 6.379109595249029 5.7411986357241265 0 12.758219190498059 C -6.379109595249029 5.7411986357241265 -6.379109595249029 -5.7411986357241265 0 -12.758219190498059 Z" transform="translate(30.65 119.36) rotate(222.40) translate(0 -7.14)"/>
      <path d="M 0 -12.056543952212241 C 6.0282719761061205 -5.425444778495509 6.0282719761061205 5.425444778495509 0 12.056543952212241 C -6.0282719761061205 5.425444778495509 -6.0282719761061205 -5.425444778495509 0 -12.056543952212241 Z" transform="translate(38.41 137.30) rotate(206.80) translate(0 -6.75)"/>
      <path d="M 0 -10.963659146324817 C 5.4818295731624085 -4.933646615846167 5.4818295731624085 4.933646615846167 0 10.963659146324817 C -5.4818295731624085 4.933646615846167 -5.4818295731624085 -4.933646615846167 0 -10.963659146324817 Z" transform="translate(50.71 152.49) rotate(191.20) translate(0 -6.14)"/>
      <path d="M 0 -9.58654395221224 C 4.79327197610612 -4.313944778495508 4.79327197610612 4.313944778495508 0 9.58654395221224 C -4.79327197610612 4.313944778495508 -4.79327197610612 -4.313944778495508 0 -9.58654395221224 Z" transform="translate(66.64 163.81) rotate(175.60) translate(0 -5.37)"/>
      <path d="M 0 -8.06 C 4.03 -3.6270000000000002 4.03 3.6270000000000002 0 8.06 C -4.03 3.6270000000000002 -4.03 -3.6270000000000002 0 -8.06 Z" transform="translate(85.03 170.43) rotate(160.00) translate(0 -4.51)"/>
      <path d="M 86 178 Q 98 166 100 174 Q 102 166 114 178 Q 100 190 86 178 Z"/>
      <circle cx="100" cy="174" r="4.5"/>
      <path d="M 94 61 H 106 V 71 H 121 V 83 H 106 V 127 H 94 V 83 H 79 V 71 H 94 Z"/></g>
    </svg>
