<svg xmlns="http://www.w3.org/2000/svg" viewBox="2468.78 16.25 543.39 484.47" fill="#000">
<g>
    <path d="M2994.2,269.08c1.13-2.95,3.42-7.69,2.27-10.76-7.99,11.55-17.04,18.04-30.6,21.53-10.45,2.69-25.27,1.48-30.03,13.63-2.05.37-1.41-1.8-1.19-3.14,1.2-7.24,5.33-15.09,5.13-22.91,8.85,1.36,11.97,3.74,21.13.94,20.17-6.16,32.77-31.97,33.58-51.74l-11.08,15.61c-9.92,10.28-26.88,10.15-36.35,19.68-1.96,1.97-2.29,5.61-4.68,6.38l1.3-26.05c30.01,8.43,44.38-29.48,42.98-53.41l-9.75,16.95c-7.04,9.2-17.91,11.96-26.59,19.01l-6.64,10.93-1.3-26.05c26.94,3.89,36.15-33.74,31.25-54.71l-7.27,18.12c-8.97,11.79-16.77,12.86-23.88,26.92-.7,1.39.68,2.44-2.72,1.86l-3.92-22.15c25.51-2.16,26.98-34,22.15-53.41l-5.8,18.28-14.82,17.76-4.11,12.15-7.91-21.37c21.24-7.3,21.06-32.31,14.4-50.26l-3.62,15.24-10.11,15.95-4.48,13.09-10.44-18.89c19.56-8.42,15.81-31.72,7.8-47.53l-1.89,16.98c-2.88,8.62-9.1,15.13-9.17,24.69l-12.37-14.98c15.02-10.52,12.06-29.77,1.3-42.34,5.22,13.46-6.36,24.53-4.57,37.77l-14.99-14.98c12.83-7.14,7.84-25.69-.66-34.51-1.9,2.85.64,6.62.55,9.65-.12,3.85-2.74,10.05-3.34,14.65-.37,2.85,3.05,6.6-1.4,7.24l.94,2.31-6.87.32-21.8,11.4c11.67,2.55,25.85,3.18,31.91-9.1,1.67,2.39,15.35,13.54,13.68,15.63-11.72-4.47-21.45,8.49-33.86,7.16,10.97,6.44,30.18,8.02,37.13-4.55l12.38,16.29c-3.77.29-6.99-1.04-10.95-.55-4.71.58-9.54,3.88-14.8,4.77-4.03.68-8.18-.3-12.03.98,11.15,8.55,30.3,11.24,41.05.68l9.76,18.21c-8.69-6.15-18.09-.75-26.71-.02-5.68.48-10.78-1.21-16.28-.64,13.92,10.8,30.63,16.42,46.89,7.17l5.22,18.23c-3.74-.79-5.68-3.19-9.88-3.79-7.62-1.08-16.78.5-24.65-.11-1.68-.13-11.38-4.47-9.76-.67.62,1.45,10.49,8.33,12.63,9.53,11.92,6.71,22.35,8.8,35.57,4.17l3.9,20.85c-8.13-8.94-18.96-8.91-30.28-9.45l-17.92-5.54c10.49,15.01,30.69,29.71,49.51,22.81l1.3,23.45c-11.28-17.39-34.76-11.68-48.86-26.05-.95,3.36,3.51,9.29,5.9,12.34,9.49,12.05,26.82,25.76,42.97,21.53-.49,5.6-.7,11.86-1.46,17.42-.27,1.98-.63,7.86-2.43,8.62-.58-16.43-20.45-18.9-32.16-25.83-5.3-3.14-9.52-7.48-14.75-10.64,6.31,20.65,23.71,42.78,46.92,43.66l-7.82,25.38c-.71-19.87-21.76-24.87-34.52-36.5-3.64-3.32-5.58-7.77-9.79-10.39,3.3,20.94,18.36,50.6,41.7,53.42l-5.01,13.88-8.02,13.46c4.53-21.34-13.79-29.32-25.44-42.97l-12.35-16.95c1.07,24.64,11.05,55.03,35.15,65.78l-17.57,22.79c-.43-4.62,1.11-8.85.66-13.68-.99-10.6-12.47-21.27-18-30.21l-13.28-25.16v28.01c0,1.46,2.86,12.23,3.54,14.7,3.61,13.04,9.52,24.79,21.22,32.24l-10.41,11.7-16.96,12.35c18.54-19.46-.94-41.59-7.86-61.83-2.08-6.07-2.11-14.42-6.46-18.93-5.71,27.65-8.66,61.66,13.02,83.36-9.56,4.87-18.35,11.07-28.2,15.47-50.81,22.65-128.95,22.4-179.28-1.49-3.7-1.76-22.49-11.78-23.88-13.92-1.81-2.79,4.8-6.77,6.48-9.24,12.82-18.73,9.7-54.34,4.63-75.47l-7.78,25.42c-4.46,14.9-18.07,28.73-12.69,45.21,1.3,3.99,3.99,6.32,4.84,10.13-.89.92-9.21-6.07-10.44-7.14-1.67-1.45-16.26-15.35-15.62-16.28,11.64-4.14,18.28-18.8,21.49-29.99,1.33-4.62,4.57-17.4,4.57-21.49v-20.84c0-.27-2.19-2.36-2.59-1.95-.87,18.9-29.88,41.59-30,57.95-.03,4.1,3.41,8.4,1.98,12.39l-17.59-24.01c24.23-11.93,32.55-40.8,35.16-65.87-5.9,5.52-9.61,13.44-14.96,19.56-10.73,12.27-27.52,19.32-24.14,39.06l-13.02-26.04c24.15-3.01,38.97-32.94,42.99-54.73-4.41,4.45-8.25,9.55-13,13.69-11.52,10.05-32.6,16.45-31.31,34.5-2.57-1.8-3.67-7.43-4.55-10.42-.67-2.26-4.11-14.81-3.26-15.62,22.97.25,40.9-24.12,46.91-44.3-13.63,16.89-40.73,15.82-48.86,36.47l-1.94-24.74c19.96,4.5,41.18-15.12,48.2-32.57-6.23,2.96-11.2,6.42-17.9,8.8-7.7,2.74-20.37,3.47-25.82,9.37-2.12,2.3-2.19,5.58-4.5,6.58v-21.5c2.53-3.24,6.74.58,10.94.51,14.62-.22,31.64-13.97,39.88-25.27-5.96.27-12.04,4.44-17.89,5.56-9.16,1.75-18.47-.53-26.91,5.67-1.79,1.31-1.42,3.83-3.39,3.75l3.84-20.3c4.47.1,7.51,2.05,12.43,2.16,13.29.28,27.12-8.13,35.85-17.68-3.6-.78-7.17,1.64-11.09,1.94-11.67.91-24.91-3.25-34.51,5.23l7.18-19.55c13.74,9.47,33.33,3.33,44.93-7.16-5.05-.19-9.74,1.02-14.96.63-8.73-.65-18.18-5.99-26.72.03l7.82-18.24c3.8.44,5.65,4.27,9.46,5.51,10.72,3.5,23.93-.27,33.52-5.53l-13.36-1.6c-8.28-2.48-15.58-7.11-24.41-3.6l10.44-16.93c8.84,10.7,27.32,13,37.77,3.92-13.05,2.63-21.33-11.61-33.88-6.54l13.68-15.6c6.15,9.76,16.27,11.5,27.25,10.28,1.26-.14,4.9-.56,4.67-2.47-11.62-.77-17.7-12.75-29.97-10.44,3.23-8.55-.59-14.2-1.31-21.48-.48-4.82,1.12-9.06.67-13.68-8.04,8.52-14.25,28.77-1.97,35.2v2.55s-15.61,14.35-15.61,14.35c4.51-9.23-2.32-15.45-3.61-23.11-.82-4.88.48-9.93-.95-14.67-8.44,10.2-12.48,33.06,1.93,39.12l-11.7,17.56-1.92-9.82c-5.65-9.89-9.99-19.4-8.52-31.22l-5.91,12.96c-2.05,12.86-1.36,28.03,12.47,33.31l-10.47,20.16-2.29-11.37-12.1-20.47-2.52-15.04c-6.46,16.53-8.21,47.09,14.32,50.81l-7.83,22.13-4.63-11.63c-8.73-11.12-20.03-19.3-18.82-35.26-3.94-.63-2.08.99-2.63,3.17-4.66,18.47.09,48.15,23.49,48.95l-5.23,23.43-6.51-12.36-18.01-15.87-9.35-19.97v24.1c0,2.63,5.74,15.68,7.56,18.49,5.46,8.43,14.76,14.79,25.01,12.12l-1.31,26.05c-3.09-1.27-2.77-5.18-4.6-7.76-5.99-8.42-19.08-11.34-26.72-18.89-5.75-5.68-8.49-13.34-12.33-20.25-1.57,23.36,12.59,60.34,41.77,53.74l1.29.9,1.9,26.12c-2.16-.54-2.16-3.81-3.89-5.87-7.79-9.28-16.84-8.97-26.56-13.83-9.52-4.76-18.67-14.16-21.68-24.58-2.49-.29-.84,2.54-.66,3.92,3.16,25.29,24.38,61.28,54.1,46.88l6.52,27.36c-11.81-15.58-31.7-10.01-46.5-19.29-5.77-3.61-10.21-10.15-15.39-14.58-1.17,5.37,3.03,13,5.65,17.8,11.48,21.02,35.16,39.23,58.9,24.44l12.99,28.1c-14.1-16.8-34.57-6.61-52.81-12.98-7.64-2.67-15.27-8.62-20.81-14.37-.63,2.92,2.89,9.1,4.8,12.14,11.86,18.86,40.54,40.73,63.25,27.21,2.4-1.43,7.14-7.19,8.83-6.79l17.63,25.4-16.25-4.59c-14.19-.28-27.07,6.16-41.65,3.85l-24.21-9.67c15.9,23.74,49.67,45.6,77.53,28.01l10.41-11.71,26.73,25.4c-4.22.17-7.97-2.59-12.52-3.11-21.81-2.49-37.29,16.93-59.44,12.51l-20.56-5.5c23.68,26.27,82.13,42.2,95.77-1.94,30.94,23.04,67.79,34.41,106.23,36.48-5,7.47-10.33,15.01-13.66,23.46-1.22,3.11-6.14,15.57-3.3,17.57l11.73,3.26c-.15-7.28,13.46-40.21,21.34-38.94,11.14,9.33,16.43,23.68,19.2,37.5l14.23-2.5c-4.17-14.47-9.15-29.11-19.56-40.36,32.91-1.54,62.21-9.84,90.8-25.85,4.36-2.44,12.05-9.29,15.44-10.63,2.5-.98,1.65,1,1.94,1.91,13.35,41.74,72.58,26.5,93.82-.61-9.65,3.52-18.76,7.05-29.37,6.55-18.93-.9-31.15-15.55-50.67-12.96-4.27.57-8.1,3.85-12.48,3.15l28.01-25.39c20.73,33.82,61.68,14.82,82.12-9.12,1.09-1.27,6.77-8.14,5.83-9.14-12.16,9.38-25.6,13.18-41.03,11.71-11.57-1.1-18.61-6.17-31.7-3.01-4.49,1.08-7.71,5.08-11.96,4.98l20.19-26.69c19.44,20.96,47.93,7.76,63.87-10.43,3.44-3.92,10.88-14.28,12.35-18.93.27-.85.27-2.2-.62-1.92-6.98,5.26-13.22,10.72-21.8,13.38-17.08,5.29-34.31-2.62-49.22,10.06l10.43-26.05c26.7,17.14,53.96-7.38,63.53-32.23Z"></path>
    <path d="M2677.8,204.22c-16.66,20.62-33.59,41.1-50.78,61.28-.27,3.43.57,1.29,2.28.97,11.9-2.2,23.41-6.82,35.5-8.16,1.77,9.84,3.48,22.57,6.54,31.9.4,1.21.93,3.87,2.59,2.65,24.74-37.37,53-72.67,77.42-110.22,20.67-31.79,57.09-93.8,31.31-130.08-16.05-22.59-55.53-24.04-76.17-7.26-33.45,27.19-5.8,76.68,7.85,107.49l25.94-29.5c-7.65-10.48-19.61-18.93-23.96-31.77-8.98-26.46,11.99-51.15,38.82-37.51,23.76,12.08,7.3,41.69-3.27,57.5-20.19,30.21-50.7,63.78-74.07,92.71Z"></path>
    <polygon points="2766.47 161.92 2744.5 197.5 2812.05 293.49 2819.81 261.45 2853.76 268.72 2766.47 161.92"></polygon>
    <path d="M2804.64,435.75c-7.12-3.97-17.25-7.06-25.31-4.71-4.06,14.58,3.59,29.67,14.47,38.99,20.35,17.45,50.34,17.74,75.08,11.18,1.92-.51,6.7-.62,7.04-2.72-13.35-.85-26.82-3.29-38.23-10.65-13.02-8.4-19.85-24.75-33.05-32.1Z"></path>
    <path d="M2635.29,471.78c-9.82,4.54-20.98,6.5-31.73,6.05,37.12,17.91,103.76,4.46,97.74-47.55-32.93-4.74-41.19,30.02-66.01,41.51Z"></path>
    <path d="M2655.61,416.01c-35.54-9.81-45.17,25.02-80.09,25.27-4.85.03-9.9-1.06-14.71-1.5-1.44-.13-4.44-1.54-4.17.91,32.01,21,95.24,25.56,98.97-24.68Z"></path>
    <path d="M2879.4,435.27c-10.1-5.22-19.81-17.01-31.09-19.73-3.73-.9-22.42-1.95-23.29,1.21.59,41.15,52.33,45.87,81.76,32.01l16.05-9.34c-14.78,2.62-29.79,2.9-43.42-4.15Z"></path>
    <path d="M2701.85,413.3c13.07-27.71-6.13-66.46-24.01-88.54,2.76,14.89,3.76,29.87,3.95,45,.04,3.38-1.49,6.64-1.47,10.36.1,15.09,6.34,28.52,21.53,33.18Z"></path>
    <path d="M2801.62,326.06c-19.23,22.54-33.66,57.64-24.73,87.29,30.54-8.24,20.77-41.91,22.08-65.84.38-6.98,3.04-14.31,2.65-21.44Z"></path>
    <path d="M2660.09,402.86c14.95-16.94,9.86-46.17,4.06-66.38-1.97-6.86-4.45-15.86-9.76-20.85-.26,6.21.4,12.52-.18,18.72-2.19,23.38-20.43,53.3,5.88,68.5Z"></path>
    <path d="M2819.36,402.84c25.88-11.79,10.54-41.41,7.39-62.15l-2.94-25.04c-10.7,26.07-21.86,61.9-4.45,87.19Z"></path>
    <path d="M2806.85,39.46c10.16,10.52,24.54,16.03,39.1,16.91-6.62-13.22-26.8-10.83-39.1-16.91Z"></path>
    <path d="M2672.62,39.46c-11.34,5.82-26.49,4.18-35.85,13l-1.93,3.92c13.69-1.18,28.68-6.29,37.79-16.92Z"></path>
    <path d="M2624.35,42.78c.15-3.89,2.35-7.32,2.64-11.15-8.53,7.24-13.68,19.54-7.73,29.9,10.52-.13,4.85-12.44,5.09-18.75Z"></path>
    <path d="M2859.61,61.59c7.03-1.62,2.48-26.55-5.83-28.66,2.96,4.08-2.48,30.58,5.83,28.66Z"></path>
    <path d="M2649.15,74.64c-10.62-1.25-14.27-13.26-26.05-10.43,1.32,8.35,8.77,10.96,16.23,11.77,1.84.2,9.05.91,9.82-1.34Z"></path>
    <path d="M2856.37,64.21l-8.19.27-16.56,11.43c9.4.63,24.14.51,24.75-11.71Z"></path>
  </g>
</svg>
