<svg xmlns="http://www.w3.org/2000/svg" viewBox="1187.22 -1.46 553.30 519.78" fill="#000">
<g>
    <path d="M1692.91,267.7c-11.45,3.18-20.84,10.21-28.1,19.41-4.95,6.27-7.89,13.52-12.59,19.89,1.7-11.59,8.33-24.26,17.13-32.12,11.75-10.49,24.68-12.33,31.67-28.42,4.12-9.47,6.6-41.13,15.48-45.31,1.64-.77,3.99.56,3.48-1.76h-10.13c-8.15,0-23.3,9.91-28.66,16.06-9.85,11.31-10.16,19.51-15.24,32.27-.3.76-.91,2.65-1.87,2.67v-13.62c0-18.28,20.41-27.05,25.86-44.01,4.89-15.2-.84-26.68.76-41.16.65-5.89,3.36-10.47,6.22-15.44l-7.22,2.56c-23.94,14.68-30.54,33.89-29.08,60.98.06,1.13.51,4.79-.72,5.27-1.52-8.54-5.43-17.23-4.8-26.11,1.03-14.56,13.5-24.96,14.6-41.29,1.25-18.51-12.81-34.61-5.62-52.77-.45-.49-5.7,3.98-6.3,4.53-10.03,9.28-18.61,27.56-18.19,41.27.18,5.93,2.14,11.88,2.48,17.78-3.64-5.06-7.41-12.25-8.03-18.52-1.37-13.75,7.41-24.46,4.7-39.64-2.79-15.66-15.97-27.57-15.9-43.85-8.71,9.55-14.96,27.89-13.88,40.78.5,5.95,3.23,11.36,4.1,17.21-5.14-5.23-8.59-11.06-9.11-18.48-.79-11.37,2.3-19.51-2.64-30.9-5.38-12.41-20.21-17.26-25.29-29.57-1.79,1.62-2.35,6.29-2.71,8.81-1.38,9.87-.66,18.35,2.89,27.69,1.95,5.14,5.24,9.54,7.5,14.5-4.68-4.23-11.57-9.6-14.25-15.44-2.37-5.17-2.27-11.84-4.27-17.39-2.69-7.45-8.14-13.29-15-17.14-8.33-4.69-18.35-5.22-25.52-11.51.82,10.06,3.52,20.65,10.83,27.94-16.51-7.6-32.97,1.94-49.61,3.51l14.17,11.33c16.2,16.12,43.81,1.96,60.53,10.04,3.82,1.85,7.29,5.7,10.9,7.96.72,1.58-1.02.37-1.54.14-3.15-1.4-7.16-3.66-10.53-4.15-16.14-2.34-26.44,6.64-41.39,9.61-.38,1.67.29,1.13.91,1.55,8.82,6.08,18.44,13.65,29.46,14.54,13.73,1.1,25.63-5.23,39.67-3.34,8.57,1.16,14.08,8.08,19.39,14.15-.57,1.06-1.61-.2-2.21-.6-4-2.69-5.54-4.4-10.69-6.06-19.4-6.23-31.74,3.34-49.98,6.66,10.67,8.03,21.6,18.47,35.36,20.54,10.01,1.51,20.46-1.46,30.6.14,14.29,2.26,18.89,12.71,26.06,23.51.44.66.76.96,1.6.88.13,1.3-1.47.7-2.08.33-1.66-.99-2.57-3.19-3.75-4.29-5.52-5.16-12.32-10.94-19.86-12.63-14.07-3.16-28.58,2.63-42.77,2.25,8.04,7.34,13.72,17.8,22.83,23.99,19.88,13.49,48.82.42,57.87,30.87l4.2,16.76c-3.09-2.1-3.99-6.59-6.09-9.98-13.97-22.61-25.68-19.57-48.91-23.76-2.77-.5-5.56-1.89-8.17-2.32-3.2-.53-.45,1.68.3,3.2,7.71,15.76,12.35,31.46,28.83,40.35,11.38,6.14,24.5,5.65,31.88,17.73,4.49,7.33,4.82,19.07,3.82,27.46-.41,3.45-1.57,8.12-2.36,11.62-.17.78,0,2.26-1.05,2.09v-12.23c0-13.99-10.98-28.6-22.59-35.4-10.02-5.87-22.18-8.3-31.2-15.95,4.58,17.66,3.01,35.11,15.39,49.94,9.01,10.8,27,17.15,29.14,33.04,1.69,12.52-7.62,29.15-15.18,38.6,2.27-7.96,5.75-15.68,6.31-24.08,1.77-26.76-16.94-32.66-31.83-49.27-2.04-2.27-3.76-5.21-5.72-7.51-.43-.5.02-1.32-1.6-.88.95,1.89.82,3.89.69,5.93-.85,13.53-5.89,26.65-3.29,40.34,3.72,19.63,25.45,32.14,17.82,53.83-3.57,10.15-14.8,18.42-22.89,24.96l8.24-12.36c6.71-11.79,7.35-23.73,2.36-36.32l-18.29-32.36c-3.16,13.9-17.13,26.06-18.8,40.25-2.27,19.37,16.37,37.07,3.02,55.43-3.82,5.25-23.33,15.52-29.78,17.73-.88.3-1.71.62-2.66.48,2.88-2.18,6.36-3.98,9.41-6.3,6.2-4.72,11.92-11.33,14.94-18.6,7.35-17.65-5.93-37.38-6.19-55.44-2.77,3.63-4.33,7.58-7.32,11.19-10.56,12.73-28.52,20.83-30.4,39.47-.93,9.22,3.02,16.51.03,25.88-3.52,11.05-15.59,16.64-26.56,17.06.58-8.72-10.5-14.85-17.94-11.97-1.07.41-.97,1.57-1.31,1.55-.97-.04-3.11-1.86-5.57-2.12-8.03-.86-16.98,4.58-16.42,13.28-12.33-.94-29.26-7.55-31.26-21.5-1.92-13.36,4.81-21.37-2.62-35.11-6.12-11.34-18.63-15.59-26.57-25.13-2.73-3.28-5.68-8.01-7.34-11.88-1.05.13-1.12.99-1.32,1.81-1.1,4.51-1.47,9.62-2.51,14.26-2.93,13.11-7.29,21.03-3.5,34.93,2.33,8.56,7.49,14.6,14.39,19.84,3.89,2.96,8.58,5.18,12.51,8.09-14.76-5.42-37.49-11.76-39.12-30.4-1.11-12.68,7.55-22.95,8.36-35.63,1.17-18.42-15.67-30.08-18.86-47.16-1.83-.32-1.08.27-1.46,1-4.57,8.93-9.87,16.95-14.28,25.54-9.55,18.64-7.75,35,5.25,51.37-.35.91-1.75.02-2.26-.36-2.81-2.06-7.89-6.79-10.33-9.41-26.08-28.01,7.91-43.12,11.02-69.37,1.76-14.86-5.81-29.38-3.32-44.19-4.04,2.79-6.47,7.32-9.76,10.85-9.05,9.7-21.67,17.73-26.91,30.39-6.02,14.56-2.19,25.95,3.12,39.81-5.75-5.82-10.27-14.73-12.77-22.51-10.87-33.82,19.95-32.59,32.7-54.34,7.05-12.02,5.78-27.96,9.41-41.24-17.19,10.09-35.24,12.47-46.4,30.8-5.91,9.71-6.89,19.45-6.7,30.68l-2.05-4.58c-2.35-8.89-2.22-22.84,1.34-31.42,6.53-15.74,26.06-16.98,38.39-25.9,13.8-9.99,16.36-25.94,25.22-39.41-18.98,5.63-37.4-.3-51.69,16.43-5.79,6.78-9.12,15.11-13.65,22.68l4.92-21.63c8.86-29.12,40.1-16.01,59.95-31.58,7.75-6.09,12.88-15.14,20.03-21.89-17.08.37-33.76-7.48-50.07.93-6.91,3.57-10.38,9.43-15.6,14.79,3.52-12.57,11.63-24.3,25.58-25.77,11.96-1.25,24.56,1.71,36.44-1.99,11.2-3.49,19.88-12.66,30.19-17.68l-.35-1.39c-8.32.17-15.93-4.26-23.96-6.08-11.71-2.66-22.09-2.12-32.77,3.86-1.16.65-7.17,5.71-7.9,5.02,5.99-8.28,13.2-15.84,24.08-16.79,15.72-1.37,27.52,6.88,43.67,1.74,8.08-2.57,14.15-8.28,20.99-12.91.19-1.85.03-1.13-1.04-1.37-18.09-4.08-24.57-14.19-46.31-7.9-.42.12-7.48,3.69-5.06,1.23,14.01-14.16,33.36-7.71,50.72-8.72,13.95-.81,24.89-9.16,34.53-18.53.31-1.66-.75-.84-1.72-1.05-15.71-3.4-29.98-10.17-46.49-4.19,7.83-7.96,9.36-16.24,11.36-26.71.18-.93,1.31-1.37-.52-1.22-10.81,8.12-24.81,7.41-33.92,18.49-6.95,8.46-6.13,15.01-9.26,24.28-2.34,6.91-11.99,16.78-17.62,21.5-.79.66-1.14,1.7-2.45,1.39,12.84-16.06,19.3-35.09,11.53-55.19-10.15,16.29-27,21.3-28.29,42.98-.46,7.78,2.39,16.8.37,24.13-.8,2.9-8.99,15.76-11.22,16.73-.4.18-1.18.12-1.03-.34,12.09-18.93,6.95-40.55-4.6-58.29-.42-.64-2.81-4.64-3.78-3.55,2.41,16.76-12.37,29.54-14.61,45.13-2.08,14.48,5.98,24.13,5.57,36.96-.21,6.47-4.79,15.73-8.09,21.3.05-5.5,2.11-10.91,2.44-16.42,1.1-18.52-8.58-39.56-25.14-48.55,7.85,15.82-4.35,31.8-5.59,47.87-1.42,18.45,8.3,22.8,13.13,37.91,3.87,12.09-.5,22.09-3.37,33.69-1.23.16-.7-1.63-.67-2.43.23-5.81,1.1-11.62.71-17.51-1.41-21.37-16.09-42.03-36.36-49.23,1.04,2.76,2.69,4.95,3.68,7.84,6.4,18.6-4.23,34.01,4.09,53.2,4.88,11.24,15.14,16.74,21.16,27.06,4.2,7.21,5.85,15.49,3.89,23.69l-6.16-17.23c-9.54-17.18-26.98-29.39-46.93-30.27,14.86,15.6,8.14,40.26,21.3,56.6,5.46,6.78,13.84,9.97,20.84,14.79,12.69,8.73,20.4,19.26,22.83,34.8l-13.61-20.27c-14.9-16.26-36.68-23.75-58.35-17.81,19.02,9.49,21.27,34.48,35.63,47.52,8.57,7.78,24.35,9.44,35.13,13.78,13.24,5.34,22.5,15.26,30.56,26.74-3.27.28-5.7-3.96-8.05-5.92-20.32-17.01-40.88-27.31-67.9-16.92l-9.29,5.72c24.94.79,34.15,32.61,56.41,36.88,12.48,2.39,26.33-1.73,39.16,1.36,12.62,3.05,22.32,12.36,32.99,19.07.1,1.44-1.99.42-2.6.15-6.26-2.74-11.99-7.86-18.9-10.45-25.26-9.46-53.18-3.69-71.42,16.23-.17,2.14.72.35,1.04.34,3.47-.16,7.01,0,10.48,0,15.39,0,32.46,16.83,46.99,20.09,17.24,3.87,26.47-3.54,41.93-5.94,15.35-2.38,30.89.51,44.89,6.82.16,1.3-1.4.52-2.13.38-3.95-.73-8.15-2.14-12.2-2.48-14.09-1.16-25.64-.35-38.76,5.24-13.34,5.69-24.83,18.33-30.05,31.77,24.19-10.92,48.25,6.98,72.81-.2,18.55-5.42,25.42-24.93,47.71-23.55,1.23.08,9.62,1.41,10.14,1.73.33.2.9.86.7,1.05-15.92,3.52-31.02,13.65-43.33,24.1-11.89,10.1-22.11,26.07-39.12,26.91-.29,1.06.28,1.16.69,1.75,7.25,10.48,20.51,16.18,32.84,11.16,9.31-3.79,12-14.4,16.91-22.22,6.8-10.82,18.34-21.54,30.2-26.36,4.29,6.45,8.47,4.91,14.68,5.67,4.95.61,5.73,2.35,11.78.48,5.88-1.81,5.5-6.45,12.16-3.46,9.03,4.06,21,15.72,26.2,24.11,4.89,7.9,6.92,19.12,16.81,22.32,9.33,3.02,19.74.07,27.1-6.12.91-.76,6.29-5.84,5.58-6.64-19.05-3-30.66-21.4-45.09-32.82-3.75-2.97-8.63-6.5-12.69-8.97-3.66-2.22-14.07-6.43-15.96-8.5-.63-.69-1.28-.99-1.02-2.11,18.22-8.26,29.17,9.74,43.3,17.12,25.1,13.12,39.52,1.03,63.22.31,6.72-.2,12.58,1.22,18.54,4.21-9.05-19.15-27.35-35.48-49.23-37.05-10.81-.78-19.94,1.14-30.41,2.49-.74.1-2.26.98-2.1-.36,14.21-6.64,28.52-9.19,44.17-6.81,8.6,1.31,17.21,5.88,25.43,6.71,27.01,2.73,40.85-19.22,65.1-20.67,1.53-.09,8.88.8,9.23.49.31-1.21-.5-1.4-1.04-2.1-17.48-22.8-59.96-24.37-82.55-8.48l-7.93,3.25c7.76-5.53,17.66-13.58,26.7-16.62,15.94-5.37,32.83.34,48.54-5.97,14.83-5.95,22.1-20.55,35.92-28.37,4.73-2.68,9.88-4.7,15.31-5.3.95-1.06-2.48-3.07-3.14-3.49-13.01-8.37-31.53-7.85-45.78-3.15-12.65,4.18-22.62,13.57-32.49,22.01-.47.15-.51-.67-.34-1.03,1.27-2.78,10.26-12.71,12.91-15.05,18.91-16.7,41.76-10.04,57.53-33.3,5.34-7.88,7.96-17.48,13.82-25.31,3.84-5.13,8.43-8.88,14.26-11.59-9.16-3.87-22.45-3.17-31.97-.53ZM1673.17,240.97c4.95-15.03,17.57-29.8,32.85-34.57-6.94,12.51-6.08,27.78-13.16,40.29-4.27,7.54-11.68,13.27-18.98,17.7-1.07-1.17,13.57-18.74,14.66-21.32.13-.32.18-1.14-.34-1.03-2.25,1.99-4.12,4.23-6.06,6.52-.52.62-1.37,2.27-1.27.13,1.8-3.05,2.8-6.5,4.28-9.7,1.26-2.72,4.82-7.85,5.48-9.89.11-.35.19-1.14-.34-1.03l-13.28,20.26c-.08-3.82,1.91-7.5,2.9-11.08.33-1.19.68-2.27-.81-.81l-7.34,19.57c-3.2-3.17.1-11.1,1.39-15.03ZM1668.97,253.21c.61,4.89-1.15,11.53-4.18,15.37l4.18-15.37ZM1668.26,172.48c3.34-9.49,9.94-17.64,17.49-24.08-3.33,8.52-.18,18.02.04,26.87.36,14.05-3.97,25.18-14.36,34.61l6.54-12.33,1.46-4.15-.82-.11-4.03,6.11c2.68-9.54,3.25-19.45,3.48-29.34l-6.99,29.34-1.38-9.44v-6.63c-.72-.2-1.4,2.97-1.4,3.14,0,4.04.31,8.63,0,12.58-.13,1.59-.66,5.07-1.01,6.68-.21.99-.63,2.5-1.78,2.75-.58-12.34-1.42-24.14,2.76-36.01ZM1543.4,56.37c-9.38-4.8-14.71-5.57-25.7-5.05l-6.62,1.35,18.21,2.41c2.99,1.34,7.55,1.44,9.74,3.88-13.82,1.6-26.88,1.53-38.25-7.48-.56-.44-1.29.02-.88-1.59,9.56-1.6,18.35-4.36,28.12-2.62,8.01,1.42,16.65,7.37,22.89,12.39-2.51-.71-5.17-2.1-7.5-3.29ZM1544.61,36.25c6.86,6.72,11.95,14.79,16.06,23.41l-7.68-7.34c-9.32-8.12-21.88-15.12-22.36-28.99,14.51,5.69,25.37,14.26,30.73,29.34-2.68-2.36-4.3-5.74-6.62-8.39-1.06-1.22-8.43-8.78-9.1-9.07-.86-.37-1.31.16-1.03,1.03ZM1549.16,84.13c-.94.07-4.24.34-4.55,1.39,5,.42,10.83-.58,15.72,0,1.06.12,3.65.97,4.54,1.75l-4.19,1.04c2.41.12,4.86-.19,7.27.07.67.07,2.63.31,2.5,1.33-10.38,2.35-20.6,3.29-30.89-.19-3.8-1.28-6.64-3.46-10.33-4.7.1-1.07,1.05-1.07,1.78-1.35,10.89-4.22,23.58-6.74,35.09-3.73,7.16,1.87,13.9,6.14,20.96,8.38l2.25,1.59c-12.77-4.64-26.52-6.63-40.17-5.57ZM1591.06,62.48c1.42,3.97,2.82,9.22,4.06,13.41.82,2.77,1.85,6.05,2.34,8.85.2,1.15.79,2.28-.8.79-5.6-15.05-21.08-28.04-17.81-45.42,11.23,7.65,20.2,20.91,20.25,34.93l-4.77-10.94-6.4-8.62c.36,2.52,2.28,4.64,3.12,7ZM1601.47,115.65c-2.37-.93-8.83-2.88-11.09-2.88h-19.22l13.56,1.47,9.65,2.22,5.43,2.59c-2.64.11-5.31-.18-7.95.09-.72.08-3.28.28-3.22,1.31,3.7-.04,7.79.19,11.43.8.82.14,3.25.21,3.23,1.3-9.34.58-18.86,1.82-27.96-1.03-6.05-1.89-12.32-6.78-17.45-10.5,11.16-3.69,23.83-6.92,35.48-3.34,6.43,1.98,11.77,7.01,17.25,10.7l7.7,8.37c-5.5-3.86-10.49-8.59-16.85-11.1ZM1630.55,112.07l-1.74-11.88c-2.75-4.77-3.86-12.3-6.28-16.77-.51-.93-1.22-1.15-1.05.34,1.36,11.59,3.81,23.08,5.58,34.6l-8.9-19.39c-5.93-12.81-3.49-25.65,2.27-37.9,6.43,16.66,16.69,32.39,10.12,51ZM1619.37,159.59c.17,1.3-1.41.52-2.13.38-1.51-.29-5.27-2.18-6.25-.4l15.36,4.21-2.1.69.72,1.39c-17.73-.56-32.37-8.32-44.01-21.3-.05-.93,5.6-1.54,6.71-1.66,15.92-1.71,26.74-1.6,39.06,9.68,3.44,3.14,8.3,8.91,9.41,13.29-3.99-3.07-7.83-8.04-12.34-10.35-4.01-2.05-14.8-3.44-19.41-3.65-.76-.04-3.3-.47-3.17.72,6.96-.04,11.97,4.86,18.16,7ZM1645.21,210.95c-3.04-2.8-5.48-6.97-8.35-9.82-1.5-1.49-4.6-4.56-6.31-4.18,1.19,1.35,2.71,2.44,3.79,3.89.68.91,2.57,3.65,2.14,4.84-4.55-4.06-10.07-6.94-15.48-9.67-.63-.32-1.84-1.46-2.34-.46,6.49,4.59,12.98,9.3,18.16,15.38-3.2.24-6.36-3.11-9.04-4.24-.62-.26-2.3-.89-2.13.38,6.38,3.6,13.6,6.61,18.16,12.58l-15.15-5.46c-13.98-5.73-22.44-17.73-27.47-31.56,7,1.5,14.68,1.75,21.5,3.99,15.37,5.05,25.77,21.74,30.19,36.52l-7.69-12.21ZM1658.34,141.59l-2.63,7.51v-22.71c0-.77,1.41-3.04.69-4.54-.95-.17-1.06,1.25-1.2,1.92-1.41,6.68-2.79,13.64-2.99,20.43-.7.3-1.39-1.63-1.39-1.74v-10.13c-.93.32-1.24,3.73-1.31,4.63-.6,7.26,1.4,13.91,2,20.88.09,1.09.59,4.76-.68,5.22-2.78-19.07-9.28-35.81-.35-54.49l5.92-9.09c1.34,12.69,7.6,23.6,7.02,36.71-.41,9.32-3.46,16.7-7.72,24.77-1.3.16-.52-1.4-.38-2.13,1.03-5.48,3.84-11.51,3.91-17.07.02-1.5-.29-1.96-.89-.19ZM1296.35,190.46c8.87-5.16,18.92-5.51,28.86-7.12-3.16,8.8-9.11,19.86-16.83,25.44-6.58,4.75-16.99,6.6-23.25,10.99-1.44,1.01-1.34,2.22-2.54,2.69-.32-2.47,3.09-4.45,4.94-5.88,3.87-2.97,8.09-4.16,11.81-7.05-1.97.03-4.96,1.45-6.76,2.32-1.21.59-6.38,4.26-7.21,3.61,6.88-6.71,13.99-13.55,22.36-18.51l-7.71,2.77-8.71,5.97-.69-1.39-4.54,3.48,1.05-3.48-12.92,18.16c4.7-12.05,10.49-25.22,22.14-32ZM1413.59,47.1c1.69.11,15.04,1.98,15.02,3.14-4.55,2.73-9.32,6.52-14.52,7.83-3.53.89-10.82,1.55-14.38,1.38-2.25-.1-5.8-2.17-8.82-1.18.37-.93,3.07-1.61,4.04-1.89,7.07-2.01,15.23-2.45,22.5-3.7l-7.3-1.42c-6.94.27-15.25-.02-21.88,1.93-2.91.85-4.93,2.68-7.84,2.98,8.22-7.85,22.23-9.77,33.18-9.07ZM1384.6,32.77c-.71-1.14-1.54.24-2.1.7-4.91,4.05-9.1,7.95-12.23,13.63.1-3.8,2.28-7.88,4.56-10.81,6.09-7.83,15.59-10.05,23.73-15.04-2.74,15.69-17.14,23.16-27.65,33.13-1.29,1.23-2.37,2.8-3.78,3.9,4.43-9.27,10.82-17.75,17.46-25.51ZM1351.24,84.11c14.28-7.99,26.9-6.67,42.28-1.57.77.26,3.56.69,2.95,1.93-.75,1.53-9.48,5.41-11.49,5.98-9.99,2.86-19.79.83-29.73-.74l5.94-1.38h7.33c.12-1-2.68-1.34-3.21-1.34-1.88.02-3.83,1.06-5.86.62l6.63-2.09c3.3-.55,8.95.75,11.88,0,.24-.06,1.07-.95,1.05-1.39-6.26.36-13.05-.5-19.24-.03-4.86.37-8.86,2.39-13.59,2.82.96-1.43,3.52-1.94,5.07-2.81ZM1348.96,38.71c-.29,3.22.39,6.99,0,10.13-.25,2.02-2.05,6.87-2.9,8.98-4.18,10.38-13.12,18.13-15.98,29.09-1.3.17-.52-1.41-.38-2.13,1.9-9.83,5.88-19.99,9.47-29.31l-5.17,6.35-5.31,9.36c.49-14.51,9.9-23.84,20.27-32.48ZM1350.04,106.45c5.88.44,13.68,2.9,18.48,6.31-3.74.69-6.21,3.87-9.41,5.62-11.86,6.48-22.93,6.24-36,4.17l9.51-2,7.25-.09c.2-.71-2.97-1.39-3.14-1.39h-10.13l6.84-2.59c7.17-1.51,14.44-2.65,21.8-2.31-.08-.98-3.15-1.23-3.93-1.3-8.99-.84-22.41,1.05-30.56,4.9l-10.23,6.18c10.1-10.64,24.43-18.61,39.51-17.49ZM1305.99,61.07c2.19,4.62,4.62,10.34,5.62,15.34,3.21,15.95-7.17,28.96-12.27,43.34-1.23.18-.68-1.57-.53-2.27,1.47-6.72,4.22-13.82,6.09-20.48-.65-3.09-.83,3.14-2.75,1.8l2.09-18.16-5.92,23.06-1.05.69c.05-2.02.62-3.86.72-5.91.04-.82.49-3.87-.72-3.87-.07,2.74-1.04,5.34-1.4,8.04-.08.58-.12,10.56-1.4,8.73-4.87-18.33,5.27-33.89,11.52-50.3ZM1293.78,159.25c5.78-7.16,13.51-14.25,22.77-16.36,9.93-2.27,18.32-.3,28.22.63.45,1.63-.42,1.18-.89,1.59-8.37,7.38-13.84,15.99-25.5,18.47-6.27,1.33-12.88.83-19.02,2.98,4.22-3.26,10.73-5.43,16.07-6.29.02-1.3-2.99-.72-3.76-.61-2.78.39-5.31,1.81-8.11,2.01,5.32-6.28,14.44-8.21,22.36-9.08-.49-1.24-4.14-.78-5.27-.73-5.55.29-13.41,2.1-18.25,4.81-5.14,2.88-8.7,8.2-14.2,10.59l5.61-8.01ZM1270.7,119.76v37.03l-.71-3.49-1.38,2.09c-2.13-6.59-5.39-12.7-5.63-19.88-.39-11.89,7.23-24.09,7.03-36.01,5.67,5.91,9.79,15.77,11.52,23.75,2.16,9.95-.56,17.76-2.65,27.4l-4.68,14.52c1.72-11.82,3.98-23.57,3.48-35.63-.96.41-1.16,3.56-1.3,4.63-.5,3.69-.75,7.71-.79,11.44l-1.05-.69-3.83-25.16ZM1260.93,209.88c-1.79-6.06-3.2-11.99-2.89-18.43l-2.01-6.72v12.58l-2.12-4.52-4.87-21.33-.73,6.66c.8,6.67.52,13.45,2.82,19.88-2.76-2.35-4.48-6.23-4.89-9.78-1.2-.19-.75,1.67-.63,2.38,1.12,6.78,7.18,12.55,9.72,18.58-8.68-7.23-13.96-18.35-14.69-29.67-.69-10.65,3.55-21.4.03-31.82,7.33,6.04,13.96,14.61,17.29,23.57.85,2.29,2.96,8.94,2.96,11.01,0,7.52-.42,15.63,0,23.06.04.65,1.98,4.11,0,4.54ZM1260.57,264.39l-10.84-27.24c-1.29-.17-.53,1.42-.38,2.13.68,3.33,2.89,6.35,2.84,9.74l-14.68-20.95c-.31,2.4,2.35,4.81,3.51,6.97,2.06,3.85,6.09,11.2,7.31,15.05.11.36.19,1.14-.34,1.03l-7.69-7.68-.34,1.04c4.41,6.63,10.49,12.03,14.96,18.59.5.74,3.5,5.19,3.2,5.53-10.89-9.3-23.15-14.57-27.74-29.19-3.23-10.27-3.17-21.66-7.88-31.59,13.48,4.25,25.69,15.81,30.76,28.98,3.67,9.53,5.26,20.16,9.06,29.71l-1.74-2.1ZM1254.98,293.04l3.49,6.99,2.11,6.28c-5.63-5.52-11.57-10.92-17.83-15.71-.55-.42-1.34-1.89-2.08-.71,6.73,6.3,12.85,13.07,18.16,20.61-1.45,1.12-9.64-5.42-11.19-6.62-.55-.43-1.34-1.88-2.09-.71,7.21,8.06,17.67,11.77,25.85,18.51-10.43-3.68-23.6-5.9-31.03-14.73-9.01-10.69-11.95-26.61-22.77-36.27,17.36,1.25,31.87,10.08,42.91,23.11l17.17,27.89c-9.58-7.83-14.81-19.41-22.71-28.64ZM1293.43,261.61c-2,1.65-3.66,3.84-5.61,5.57-.62-1.3,1-3.48,1.63-4.66,4.09-7.65,10.76-15.47,16.89-21.54-1.41-.46-3.9,1.92-4.9,2.79-4,3.48-7.54,7.97-11.52,11.53l2.1-6.98c-6.13,5.4-9.52,13.06-11.19,20.95l-1.74,11.19c.32-4.39-.44-9.31,0-13.62,1.37-13.5,10.42-25.31,21.89-31.91,5.97-3.44,12.95-5.11,18.29-9.66-.6,7.89-1.89,17.89-5.56,25.18-6.88,13.64-23.13,17.9-31.12,30.71,2.31-8.42,9.36-14.67,14.66-21.31-1-.82-3.08,1.16-3.82,1.77ZM1303.67,290.01c3.58-5.34,15.61-17.08,20.84-21.09.7-.54.89-1.36,2.1-1.04.33,9.71,3.26,18.92,1.92,28.81-2.05,15.12-16.68,25.73-17.99,41.05-1.2.18-.75-1.66-.69-2.43.3-3.8.82-8.57,1.74-12.24,1.77-7.1,6.14-13.48,8.73-20.26l-1.96,1.87-9.9,18.39c.5-8.03.91-15.43,3.85-23.04,1.28-3.32,3.69-6.27,4.52-9.79-5.18,5.95-9.39,13.2-11.18,20.96l-2.08-10.47c-.75,6.32-1.17,13.55-.73,19.94.39,5.64,2.37,10.88,3.2,16.37.11.74.94,2.28-.37,2.12-6.14-16.14-12.63-33.24-1.98-49.13ZM1312.29,369.18c-4.17-2.83-9.08-4.35-13.4-6.86-4.5-2.61-13.7-10.81-17.36-11.99-.35-.11-1.14-.19-1.03.34l7.68,6.99c-.83,1-2.26-.86-3.49-1.4-6.32-2.74-13.02-5.16-19.56-7.33l19.56,11.18c.18,1.19-1.62.69-2.44.7-2.27.02-3.7-.44-5.68-.62-.78-.07-2.51-.64-2.35.61,8.86,1.95,17.55,3.96,25.85,7.7.4,2.82-1.8.69-2.45.69-4.08,0-9.42.46-13.28,0-2.2-.26-8.75-2.12-11.02-2.95-13.77-5.06-22-25.02-36.84-29.2.12-1.1,1.04-1.07,1.81-1.32,7.23-2.34,22.58.19,29.82,2.88,16.98,6.31,27.7,22.51,44.52,29.2l-.34,1.38ZM1331.57,340.97c.78-6.65,8.47-22.48,12.61-27.91.6-.79.73-1.43,1.98-1.16,3.07,9.65,12.61,18.28,13.27,29.01.82,13.35-9.81,23.21-7.68,36.67-1.38-.74-1.83-4.51-2-6.02-.99-8.81.11-18.65.61-27.51-1.17.62-1.45,3.58-1.75,4.88-.85,3.62-1.21,7.17-1.75,10.84-.18,1.22.37,1.18-1.38,1.05-.34-10.53-2.05-20.9-.71-31.43-1.01-.04-1.06,2.52-1.19,3.34-1.46,9.29-.74,18.71-.91,28.09-3.09-3.75-3.94-9.32-4.89-13.97-1.11-.19-.74.97-.69,1.73.14,1.89.53,4.98.87,6.82,1.17,6.3,5.37,15.85,8.52,21.53,1.34,2.42,3.83,4.29,4.58,6.95-10.93-11.45-21.46-26.14-19.48-42.89ZM1321.37,414.59c-17.97-1.38-28.11-15.62-47.05-18-1.86-.23-4.11,1.61-3.62-.85,8.54-2.84,15.53-7.09,24.78-7.72,14.2-.98,25.86.59,38.58,6.89l9.31,5.71c-6.77-.44-13.16-4.64-19.9-4.91-.77-.03-1.95-.39-1.76.72l6.98,3.5c-9.2-1.92-18.58-1.36-27.94-1.38l27.24,4.89-18.16,3.48,26.19-1.39,1.76,1.39-2.79.7,2.09.7-6.98,2.1,24.46-1.05.69,1.05c-11.61.42-22.08,5.09-33.88,4.19ZM1387.76,397.82c-10.69-8.89-13.44-18-12.27-31.79.52-6.14,3.56-12.3,3.53-18.49,8.03,9.47,27.12,18.34,28.64,31.79.93,8.19-2.01,16.68,0,24.8-1.68.48-2.14-2.78-2.61-4.02-2.74-7.22-5.92-14.33-7.87-21.83l-1.38.34,4.18,16.43c-1.83.45-1.22-.59-1.8-1.32-6-7.54-10.62-19.22-12.18-28.72-1.21-.13-.76,2.41-.72,3.16.55,8.99,4.93,18.03,8.41,26.17-.99,1.01-8.25-7.6-9.43-8.38-.52-.11-.47.71-.34,1.03.37.89,4.03,5.92,4.9,6.98,6.08,7.43,15.66,12.23,22.34,19.22l-23.39-15.39ZM1410.13,432.1c-10.84.87-23.71-2.98-34.95-1.41l-5.25,1.39c4.87.31,10.21-.43,15.02,0,.76.07,2.36.37,2.45,1.39-8.32-.41-15.84,3.81-23.75,5.6-.19,1.18,1.69.76,2.43.68,6.16-.66,12.81-2.96,19.22-2.78l-11.87,6.97,25.85-7.67-11.18,8.03c3.9-.2,8.04-3.29,11.89-4.88,2.12-.88,5.48-2.38,7.67-2.11-5.23,3.75-11.35,8.87-17.2,11.45-20.7,9.13-40.77-7.05-61.75-.61-.5-1.64.5-1.21.89-1.6,14.97-14.82,31.94-21.64,53.25-20.05,10.86.81,22.25,5.43,33.2,3.49-.88,1.78-4.16,1.97-5.91,2.11ZM1409.19,473.09c-2.9,4.68-6.62,15.59-10.96,18.38-5.51,3.55-13.88,1.63-19.92.68l9.41-5.6c15.19-14.14,29.24-30.5,48.58-39.11-9.55,7.5-20.61,15.12-27.11,25.63ZM1456.57,433.18c-.08-.55-2.37-7.48-2.63-7.92-.57-.98-1.07-1.5-2.25-1.6-.4-.56.46-1.88,1.09-2.05,4.4-1.19,9.97,15.16,2.39,16.04.75-1.46,1.67-2.66,1.4-4.47ZM1455.87,450.23c9.24-8.17,9.12-23.32,2.1-32.82,1.47-1.14,7.76,3.03,8.86,4.4,6.39,7.92-.12,27.14-10.96,28.42ZM1478.57,441.84c-1.63,4.23-4.99,9.94-10.12,9.78,4.53-3.57,7.75-8.54,8.31-14.41.07-.74.53-1.84-.61-1.65-1.57,6.28-6.16,11.69-12.59,13.26,5.46-5.32,8.72-12.91,9.11-20.57.19-3.74-.89-7.21-.38-10.85,9.29,4,9.46,16.2,6.28,24.44ZM1515.27,463.85c7.99,6.62,14.84,15.59,22.72,22,2.98,2.43,6.37,4.54,10.11,5.62-.13,1.08-1.01,1.09-1.81,1.32-4.95,1.39-13.82,1.85-18.1-1.32-4.51-3.34-6.47-13.13-9.09-18.16-4.11-7.89-11.46-13.02-17.8-18.87,4.84,2.28,9.84,5.97,13.98,9.42ZM1548.46,426.49c18.94-1.19,35.24,6.55,47.86,20.25-18.83-2.08-37.75,8.64-56.36,3.61-7.57-2.04-14.68-8.68-20.5-13.74l17.83,6.63c2.08.13.53-.8-.12-1.28-2.15-1.61-4.74-2.73-7-4.18-.33-.21-2.25-1-1.27-1.53,8.75,1.1,16.49,5.18,24.8,7.69l-10.48-6.97c6.11.31,12.6,2.14,18.53,2.78.74.08,2.62.49,2.43-.68-7.78-2.5-15.27-6.65-23.75-5.6-.3-.71,1.63-1.39,1.74-1.39h15.02c-.31-1.05-3.62-1.32-4.55-1.39-11.62-.87-22.02,1.64-33.55,1.41l-8.01-2.11c4.76.3,9.5,1.08,14.31.68,7.59-.64,15.26-3.68,23.08-4.17ZM1519.45,412.5c8.33-8.33,18.71-14.31,23.75-25.51.1-2.13-.75-.48-1.27.13-1.84,2.17-3.79,4.87-5.69,6.89-1.07,1.14-2.69,3.15-4.22,3.47,6.27-8.95,10.18-21.63,11.55-32.47.09-.74.98-2.26-.36-2.1-1.33,4.82-2.68,10.03-4.56,14.66-2.01,4.93-5.28,11.52-8.72,15.38.26-3.96,1.19-8.29,1.42-12.21.05-.76.45-2.65-.72-2.46-1.54,9.5-5.85,19.93-11.88,27.25,2.65-7.65.09-14.9.66-22.73,1.21-16.59,18.01-23.55,27.27-35.25,1.69,7.64,4.58,15.47,4.93,23.37.51,11.88-5.38,21.76-13.99,29.38l-18.18,12.21ZM1591.6,408.5l-.87-1.57c7.82-1.28,15.28-.31,23.05.69l-11.17-4.18,25.85-5.59c-10.55-.47-20.96,1.12-31.44,2.08l6.62-4.2c-7.25.99-14.02,6.94-21.3,5.95,22.61-14.65,50.96-18.43,75.45-5.93l-9.93,1.58c-16.02,3.84-29.17,18.49-46.3,17.26-5.33-.38-10.61-2.66-15.42-3.44-3.13-.51-6.82.46-10.09-.75-.17-1.22,1.59-.66,2.43-.69,8.55-.33,15.81.29,24.11,2.09l-11-3.31ZM1576.06,382.47c2.03-5.05,6.12-8.62,8.5-13.51,2.4-4.95,4.86-12.93,5.38-18.38.08-.84.74-3.73-.6-3.75l-3.49,13.27c.31-9.58-.11-18.73-1.5-28.2-.16-1.1-.31-4.21-1.29-4.64.74,8.69,1.09,17.43-.09,26.11-.25,1.85-.48,5.74-2,6.72l-4.19-15.36c.98,11.75,2.36,20.68-.92,32.28-.21.73-.17,2.11-1.18,1.95-.29-3.46.4-7.45,0-10.83-.88-7.4-6.35-15.24-6.97-23.07-1.18-14.74,8.32-21.43,13.27-33.87.87-.66,10.36,17.32,10.97,18.72.94,2.16,2.13,4.86,2.67,7.11,3.98,16.63-6.69,34.53-18.53,45.44ZM1641.09,349.34c15.04-11.31,31.55-16.49,50.58-12.96,1.14.21,1.21-.47,1.06,1.37-16.83,2.01-24.67,24.88-39.86,29.66-1.63.51-6.64,1.78-8,1.78h-22.71l6.43-1.6c8.53-4.2,18.03-5.05,27.1-7.49.14-1.32-1.46-.56-2.23-.49-2.6.25-5.26,1.07-7.87,1.22-.76.04-2.65.45-2.46-.72l3.03-.81,20.02-11.06-23.42,8.37c-3.13-.61.17-1.57.7-2.08,1.6-1.53,3.1-2.9,4.79-4.33.62-.52,2.27-1.37.13-1.27-11.58,7.56-22.02,17.09-35.3,21.64,1.93-2.99,5.89-3.39,8.61-5.01,7.03-4.18,12.77-11.25,19.4-16.24ZM1623.74,329.92c-.46.94.45,1.93-1.58,1.53,3.48-9.27,3.89-20.49,1.39-30.03-1.72,0,0,2.05,0,2.44v12.93c-1.02.18-.9-1.31-1.06-2.08-1.02-4.95-1.32-9.89-3.14-14.69l-.68,6.98c-1.73-6.86-5.47-14.46-10.48-19.56,2.16,4.7,4.87,9.16,6.48,14.12,1.93,5.95,2.96,12.47,3.29,18.71l-7.8-14.2c-.3.23-3.25-5.71-3.36-2.93,4.58,8.51,10.48,18.04,11.19,27.94.06.8.51,3.87-.71,3.86-3.83-14.25-15.29-22.73-17.98-37.57-1.77-9.73-.1-20,2.25-29.5,8.1,10.49,23.06,18.55,26.6,32.1,2.38,9.14-.3,21.56-4.4,29.94ZM1647.32,276.26c-1.74,2.31-1.47-5.73-1.59-6.44-1.52-8.89-6.85-19.51-13.43-25.69l4.4,8.88.5,2.3c-3.42-4.15-7.48-8.71-11.52-12.23-.99-.87-3.49-3.25-4.9-2.79,5.55,6.05,12.91,13.7,16.91,20.82.55.97,1.83,2.93.91,3.98-1.92-2.57-4.19-5.27-6.63-7.34-1.03-.88-3.46-3.25-4.9-2.79,6.21,7.44,13.3,15.34,16.06,24.81-4.19-6.72-11.32-9.69-17.09-14.69-11.84-10.26-17.55-23.62-18.19-39.1,8.52,4.63,18.3,6.67,25.87,13.26,6.57,5.72,13.61,18.1,13.61,26.92v10.13ZM1683.29,310.48c-6.31,4.97-17.09,8.33-24.77,10.86-.68.22-2.25.95-2.1-.36,8.77-3.88,16.54-10.82,23.75-17.13l-13.27,6.99c6.87-7.78,12.93-16.49,21.65-22.37-.1-.72-1.07-.34-1.58-.17-1.5.51-9.97,7.71-11.7,9.25-2.82,2.49-5.23,5.52-8.03,8.04l4.2-11.17c-8.09,9.93-13.51,21.46-24.1,29.34l7.55-10.26c4.94-7.55,8.46-16.51,14.45-23.28,9.93-11.23,25.49-17.72,40.19-19.55-12,10.14-14.24,30.36-26.22,39.8Z"></path>
    <path d="M1388.06,182.25c-1.14,9.68,1.05,21.28.04,31.13h60.79v136.25h32.84v-136.25h59.39v-33.54h-58.34c-.17,0-.53.83-1.05.39l-.71-1.42.71-58.36h-32.84v59.39h-59.74c-1,.61-.96,1.39-1.08,2.41ZM1481.02,186.83h50.66c.74.08,1.96,1.1,3.14.71v.69s-53.8,0-53.8,0v-1.4ZM1454.47,127.44l16.07-.69c.3.7-1.63,1.39-1.74,1.39h-12.93v50.67s-1.4,1.04-1.4,1.04v-52.4ZM1454.47,213.03c.06-.24.95-1.07,1.39-1.05l.75,30.37c-1.55,33.46.13,67.12,0,100.61,0,1.19-.39,3.76-2.13,3.16v-133.1ZM1394.38,188.58c0-.12,1.62-1.75,1.75-1.75h55.9c.12,0,1.1.94,1.05,1.4h-56.25c-1.83,3.48-1.17,9.23-1.47,13.36-.05.77.11,2.88-.98,2.71v-15.72Z"></path>
    <path d="M1402.06,478.89l-6.65,6.97-8.02,4.9c8.13-.06,13.81-3.4,14.66-11.87Z"></path>
    <path d="M1540.42,492.15l-9.42-6.3-4.55-4.87c.05,8.57,6.86,10.14,13.97,11.17Z"></path>
  </g>
</svg>
