<svg width="48" height="48" viewBox="0 0 48 48" fill="none" xmlns="http://www.w3.org/2000/svg">
<path d="M37.0151 22.574C37.1917 22.605 37.2954 22.723 37.2573 22.9049C37.1535 23.399 35.5452 24.0758 35.036 24.0315C35.0342 24.1991 35.2853 24.1557 35.2569 24.3615C35.2152 24.6658 34.7211 24.8698 34.4531 24.9283C34.1196 25.0011 33.6725 24.9532 33.3842 25.0428C33.2822 25.0747 33.0808 25.3568 32.8821 25.4517C32.5592 25.607 32.026 25.5937 31.7936 25.717C31.7342 25.7489 31.6747 25.9148 31.5984 25.9893C31.4343 26.1481 31.1016 26.3397 30.8834 26.4125C30.6918 26.4764 30.274 26.5047 30.1471 26.5864C30.0451 26.652 29.991 26.8791 29.912 26.9891C29.5297 27.5249 29.0515 27.5781 28.576 27.8842C28.2993 28.0625 28.2718 28.2586 27.8681 28.4058C27.4201 28.569 27.335 28.6028 26.918 28.8219C26.5916 28.9931 26.0043 29.0703 25.8278 29.1776C25.7754 29.2095 25.7914 29.2929 25.7541 29.3399C25.6211 29.5076 24.9309 29.4899 24.694 29.5555C24.2851 29.6691 23.8823 29.7613 23.4752 29.8846C23.1469 29.984 22.8843 29.9095 22.5907 29.9565C22.4612 29.9769 22.3796 30.0718 22.2252 30.0913C21.9875 30.1215 21.7329 30.0248 21.5457 30.0452C21.4038 30.0612 21.2831 30.1809 21.0862 30.1854C20.8892 30.1898 20.6479 30.1091 20.4492 30.0913C19.9986 30.0505 19.3111 30.0505 18.9092 29.811C18.7362 29.7072 18.6998 29.4854 18.5162 29.4535C18.2758 30.0585 17.7205 30.4524 17.3053 30.9314C17.3124 31.0663 17.3701 31.2144 17.3772 31.3439C17.4659 33.1394 18.3885 34.8409 18.6395 36.6391C18.7673 37.5546 18.7699 38.0594 17.6566 37.7932C17.4251 38.5348 17.08 38.8844 16.2709 38.6049C15.9285 39.17 15.3483 39.6615 14.7602 39.0653C14.5828 39.296 14.2412 39.7475 13.9059 39.6464C13.7915 39.6118 13.7294 39.3953 13.5865 39.4326C13.536 39.4459 13.19 39.7857 13.0498 39.8558C12.4102 40.1769 11.8327 39.9223 11.3413 39.4805C10.7602 39.7679 10.1969 39.877 10.0044 39.1088C9.21663 39.516 8.6205 39.3962 8.82187 38.3805C8.05097 38.6998 7.28628 38.1862 7.63847 37.3328C6.67684 37.3461 6.03102 36.6932 6.50119 35.7387C5.85005 35.783 5.51384 35.3599 5.75158 34.7345C4.62052 34.0266 4.85383 33.1048 5.86779 32.4395C7.48766 31.3768 9.37897 30.6431 11.053 29.7037C11.2206 29.6096 11.4823 29.4801 11.6198 29.3604C11.9596 29.0641 12.1521 28.2923 12.4626 27.9259C12.4714 27.8523 12.4688 27.8505 12.3978 27.8602C11.8993 27.9286 11.3838 27.9064 11.1887 27.3573L11.1257 27.3608C10.7664 27.6039 10.1942 28.0794 9.73027 27.9286C9.64156 27.8993 9.59099 27.7982 9.51825 27.776C9.26365 27.6997 9.2193 27.7902 8.95849 27.5622C8.66929 27.3085 8.69945 27.0592 8.5513 26.8764C8.49364 26.8055 8.3588 26.7709 8.27452 26.6972C8.12283 26.5651 8.12992 26.4178 8.04742 26.3326C7.96049 26.243 7.76443 26.2093 7.66508 26.0319C7.55951 25.8421 7.62959 25.5724 7.57193 25.4872C7.55242 25.458 7.23128 25.3444 7.1408 25.2814C6.8791 25.0987 6.72474 24.7332 6.72829 24.4183C6.73006 24.2382 6.91192 23.98 6.91015 23.8709C6.90837 23.768 6.75756 23.7059 6.70966 23.6181C6.54998 23.3262 6.80192 23.1027 6.7691 22.9696C6.6591 22.8108 6.45417 22.7913 6.34417 22.6174C6.15433 22.3158 6.24127 21.9929 6.4107 21.709C6.19691 21.6762 5.45529 21.882 5.3719 21.6327C5.23883 21.2353 5.52803 20.5256 5.86424 20.2737C5.38166 19.9455 5.29649 19.6829 5.63448 19.1852C4.99222 18.7665 5.03657 18.1393 5.68682 17.764C5.62739 17.5414 5.43311 17.3915 5.38432 17.1564C5.26722 16.5895 5.48811 16.3456 6.00263 16.1735C5.36303 15.2083 5.18294 14.4099 6.68393 14.5119C6.762 14.4542 5.44375 13.2566 6.00263 12.8512C6.27498 12.6534 6.73716 12.987 7.00241 13.1005C6.85426 12.7448 6.62627 12.4467 6.50119 12.0768C6.38675 11.7361 6.15167 11.0424 6.77353 11.2127C7.23927 11.5773 7.65621 12.0032 8.11928 12.3713C8.17428 12.4148 8.56461 12.7226 8.59566 12.6916L7.82919 11.3414C7.56484 10.6166 6.98821 9.78183 7.26144 8.99851C7.46282 8.89295 7.64734 9.00384 7.79548 9.14311C8.28162 9.60086 8.79969 10.5927 9.24147 11.1577C9.27607 11.2021 9.30978 11.2677 9.3701 11.2793C9.10131 10.4818 8.69856 9.61772 8.56372 8.78472C8.27097 6.9759 9.66995 8.85835 9.96979 9.38175C10.2696 9.90514 10.4701 10.5164 10.8259 11.006C10.6821 10.2449 10.6183 9.44296 10.7487 8.67383C10.9146 7.69269 11.2738 7.87809 11.6393 8.62149C12.5566 10.4853 12.6054 14.1588 14.0815 15.423C14.3051 15.6146 14.5677 15.7193 14.7593 15.9747C15.0494 16.3615 15.1824 17.3249 15.2357 17.8208C15.3457 18.8516 15.1337 19.5436 15.9232 20.3668C16.0997 20.5505 16.341 20.8139 16.6089 20.7323C16.7287 20.6959 17.2166 20.3322 17.3355 20.2302C18.1312 19.548 18.6475 18.5518 19.5967 17.9841C20.64 17.3595 22.1764 17.4793 22.8613 18.5704C22.989 18.7736 22.942 18.8845 23.0121 19.0566C23.0671 19.1923 23.2968 19.3635 23.3527 19.4904C23.4042 19.6057 23.3989 19.753 23.4565 19.8878C23.5142 20.0226 23.8486 20.4555 23.7085 20.5513C23.5683 20.6472 23.3057 20.4032 23.162 20.3659C22.9837 20.3198 22.5623 20.3597 22.3751 20.4005C21.8979 20.5061 21.6353 21.4562 21.6131 21.8927C21.8455 21.9051 22.0868 21.8749 22.3184 21.8927C23.3891 21.976 23.8256 22.1215 24.8892 21.6869C25.6681 21.3684 26.2536 20.7873 26.9695 20.3988C28.0766 19.7982 29.6273 19.7689 30.8666 19.5622C33.8197 19.0699 36.7153 18.6591 38.8843 16.3819C39.3021 15.9428 39.7865 15.1595 40.1963 14.8029C40.2504 14.7559 40.3169 14.7151 40.387 14.6946L40.4953 14.7709C40.2265 15.902 39.2098 16.6844 38.4975 17.5423C38.4904 17.576 38.5436 17.5724 38.5649 17.5644C38.7743 17.4784 39.3846 17.0313 39.6037 16.8734C40.2619 16.3997 40.8235 15.8674 41.3877 15.2881C41.5722 15.0992 42.2562 14.1571 42.5418 14.3363C42.5587 14.3815 42.5835 14.4338 42.5791 14.4835C42.5613 14.6813 41.8649 15.706 41.6999 15.9206C41.2839 16.4644 40.7428 16.8902 40.2717 17.3826C40.6878 17.2105 41.1145 16.9603 41.4968 16.719C41.7895 16.5336 42.6767 15.8195 42.9109 15.7618C43.3686 15.6483 42.7804 16.4591 42.7024 16.5602C42.0539 17.4039 41.0257 17.9086 40.1351 18.4542C40.1644 18.5163 40.2513 18.4471 40.2948 18.432C40.631 18.3141 40.9432 18.0692 41.3185 18.1127C41.3655 18.448 41.0231 18.6583 40.7862 18.833C40.4269 19.0983 40.0056 19.3236 39.5895 19.4797C39.5798 19.5649 39.6853 19.517 39.735 19.5117C40.1182 19.4735 40.3329 19.5161 39.9754 19.8887C39.3615 20.5283 38.3591 20.8405 37.5421 21.1191C37.5314 21.1981 37.6459 21.1626 37.7009 21.1643C37.8978 21.1706 38.3733 21.0889 38.3085 21.4039C38.2642 21.6221 37.8171 21.8377 37.6467 21.9752L36.222 22.5757C36.4642 22.605 36.7889 22.5358 37.0187 22.5757L37.0151 22.574Z" fill="white"/>
</svg>
