<svg width="133" height="32" viewBox="0 0 133 32" fill="none" xmlns="http://www.w3.org/2000/svg">
<path d="M22.6306 18.8038C23.4877 18.8039 24.2561 18.9493 24.9353 19.2404C25.6143 19.5153 26.1881 19.9115 26.657 20.4288C27.1421 20.9464 27.5144 21.5693 27.7732 22.297C28.0318 23.0247 28.1609 23.8335 28.1609 24.7228V25.3771H19.8161V26.1535C19.8161 27.4149 20.1317 28.3936 20.7624 29.089C21.3931 29.7681 22.2421 30.1075 23.3093 30.1076C24.2473 30.1076 25.0001 29.9054 25.5661 29.5011C26.1481 29.0807 26.5764 28.5628 26.8513 27.9484L27.8943 28.5792C27.7488 28.9996 27.531 29.4123 27.24 29.8165C26.965 30.2208 26.6165 30.5849 26.196 30.9083C25.7756 31.2317 25.2824 31.4989 24.7165 31.7091C24.1506 31.9031 23.5037 32.0001 22.7761 32.0001C21.8381 32.0001 21.0048 31.8465 20.2771 31.5392C19.5496 31.2158 18.9355 30.7627 18.4343 30.1808C17.933 29.5986 17.5442 28.9025 17.2693 28.0939C17.0106 27.2854 16.8816 26.3878 16.8816 25.4015C16.8816 24.3989 17.0188 23.4933 17.2937 22.6847C17.5847 21.8763 17.981 21.1891 18.4822 20.6232C18.9997 20.041 19.6061 19.5955 20.3015 19.2882C21.0131 18.9648 21.7896 18.8038 22.6306 18.8038ZM54.3298 18.8038C55.1869 18.8038 55.9553 18.9493 56.6345 19.2404C57.3137 19.5153 57.8882 19.9114 58.3572 20.4288C58.8422 20.9463 59.2137 21.5694 59.4724 22.297C59.7311 23.0247 59.8611 23.8334 59.8611 24.7228V25.3771H51.5163V26.1535C51.5163 27.4148 51.831 28.3936 52.4616 29.089C53.0924 29.7682 53.9421 30.1076 55.0095 30.1076C55.9473 30.1075 56.6994 29.9054 57.2654 29.5011C57.8474 29.0807 58.2756 28.5628 58.5505 27.9484L59.5935 28.5792C59.448 28.9996 59.2302 29.4123 58.9392 29.8165C58.6643 30.2208 58.3166 30.5849 57.8962 30.9083C57.4757 31.2318 56.9818 31.4989 56.4157 31.7091C55.8498 31.9031 55.2029 32.0001 54.4753 32.0001C53.5376 32.0001 52.7049 31.8463 51.9773 31.5392C51.2497 31.2158 50.6348 30.7629 50.1335 30.1808C49.6322 29.5986 49.2434 28.9025 48.9685 28.0939C48.7098 27.2854 48.5808 26.3878 48.5808 25.4015C48.5808 24.3989 48.718 23.4933 48.9929 22.6847C49.2839 21.8763 49.6802 21.1891 50.1814 20.6232C50.6988 20.041 51.3054 19.5955 52.0007 19.2882C52.7123 18.9648 53.4889 18.8039 54.3298 18.8038ZM88.0945 18.8038C88.9839 18.8038 89.7925 18.9575 90.5202 19.2648C91.2479 19.5721 91.8709 20.0084 92.3884 20.5744C92.9058 21.1403 93.302 21.8357 93.5769 22.6603C93.868 23.4689 94.0134 24.3827 94.0134 25.4015C94.0134 26.4203 93.868 27.3424 93.5769 28.1671C93.302 28.9756 92.9058 29.6627 92.3884 30.2287C91.8709 30.7947 91.248 31.2319 90.5202 31.5392C89.7925 31.8464 88.9839 32.0001 88.0945 32.0001C87.205 32.0001 86.3964 31.8464 85.6687 31.5392C84.9409 31.2319 84.318 30.7947 83.8005 30.2287C83.2832 29.6627 82.8787 28.9756 82.5876 28.1671C82.3127 27.3424 82.1755 26.4203 82.1755 25.4015C82.1755 24.3827 82.3127 23.4689 82.5876 22.6603C82.8787 21.8356 83.2831 21.1403 83.8005 20.5744C84.318 20.0084 84.941 19.5721 85.6687 19.2648C86.3964 18.9575 87.205 18.8039 88.0945 18.8038ZM116.534 18.8038C117.391 18.8038 118.159 18.9493 118.839 19.2404C119.518 19.5153 120.092 19.9113 120.561 20.4288C121.046 20.9463 121.418 21.5693 121.676 22.297C121.935 23.0247 122.065 23.8334 122.065 24.7228V25.3771H113.72V26.1535C113.72 27.4149 114.036 28.3936 114.667 29.089C115.297 29.7681 116.146 30.1076 117.214 30.1076C118.151 30.1075 118.903 29.9054 119.469 29.5011C120.052 29.0807 120.48 28.5629 120.755 27.9484L121.799 28.5792C121.653 28.9997 121.434 29.4123 121.143 29.8165C120.868 30.2208 120.521 30.5849 120.1 30.9083C119.68 31.2317 119.187 31.4989 118.621 31.7091C118.055 31.9032 117.407 32.0001 116.679 32.0001C115.742 32.0001 114.909 31.8464 114.181 31.5392C113.454 31.2158 112.839 30.7629 112.338 30.1808C111.836 29.5986 111.448 28.9025 111.174 28.0939C110.915 27.2854 110.785 26.3879 110.785 25.4015C110.785 24.3989 110.922 23.4932 111.197 22.6847C111.488 21.8761 111.885 21.1892 112.386 20.6232C112.904 20.041 113.51 19.5955 114.206 19.2882C114.917 18.965 115.693 18.8039 116.534 18.8038ZM127.277 18.8038C128.086 18.8038 128.733 18.941 129.218 19.216C129.703 19.4907 130.018 19.8222 130.164 20.2101H130.261V19.0949H132.105V22.8546H130.261V22.1515C130.261 20.8739 129.396 20.2346 127.666 20.2345C126.922 20.2345 126.347 20.38 125.943 20.671C125.555 20.946 125.361 21.3667 125.361 21.9328C125.361 22.9354 126.008 23.5986 127.301 23.922L128.539 24.213C129.849 24.5041 130.827 24.9486 131.474 25.547C132.121 26.1292 132.444 26.9946 132.444 28.1427C132.444 29.3071 132.024 30.2456 131.183 30.9572C130.359 31.6525 129.234 32.0001 127.811 32.0001C126.986 32.0001 126.315 31.8382 125.798 31.5148C125.28 31.1914 124.941 30.8355 124.779 30.4474H124.681V31.7091H122.839V27.9484H124.681V28.3859C124.681 29.0648 124.892 29.5984 125.312 29.9865C125.733 30.3746 126.412 30.5685 127.35 30.5685C129.097 30.5685 129.97 29.9538 129.97 28.7247C129.97 27.7708 129.339 27.1404 128.078 26.8331L126.768 26.5177C125.475 26.2105 124.512 25.7412 123.882 25.1105C123.251 24.4798 122.935 23.6145 122.935 22.5148C122.935 21.3343 123.331 20.4204 124.124 19.7736C124.916 19.1268 125.967 18.8039 127.277 18.8038ZM38.324 24.2619H38.3962L42.8845 14.7765H47.8327V16.0871H46.0622V30.3986H47.8327V31.7091H41.4284V30.3986H43.1999V17.4455H43.0779L41.865 20.3078L37.6687 28.9679L33.4958 20.3078L32.2829 17.4455H32.1618V30.3986H33.9333V31.7091H28.8142V30.3986H30.5857V16.0871H28.8142V14.7765H33.8601L38.324 24.2619ZM76.0866 18.8038C77.5906 18.8039 78.6581 19.1999 79.2888 19.9923C79.9194 20.7686 80.2351 21.9413 80.2351 23.5099V30.3986H81.8845V31.7091H75.9656V30.3986H77.5173V23.6554C77.5173 22.6042 77.3152 21.8359 76.9109 21.3507C76.5227 20.8657 75.9162 20.6232 75.0915 20.6232C74.7683 20.6232 74.4533 20.6717 74.1462 20.7687C73.8389 20.8496 73.5636 20.9867 73.321 21.1808C73.0786 21.3586 72.8845 21.593 72.739 21.8839C72.5934 22.1589 72.5202 22.4909 72.5202 22.879V30.3986H74.073V31.7091H68.2507V30.3986H69.8034V23.6554C69.8034 22.6042 69.6013 21.8359 69.197 21.3507C68.8089 20.8656 68.2024 20.6232 67.3777 20.6232C67.0543 20.6232 66.7386 20.6717 66.4314 20.7687C66.1243 20.8496 65.8496 20.9869 65.6072 21.1808C65.3647 21.3586 65.1707 21.593 65.0251 21.8839C64.8796 22.1589 64.8064 22.4909 64.8064 22.879V30.3986H66.3591V31.7091H60.4402V30.3986H62.0896V21.0353L60.4402 20.7199V19.6525L64.7341 18.8038V21.0597H64.8552C64.9522 20.7848 65.0977 20.5094 65.2917 20.2345C65.4857 19.9597 65.7283 19.7172 66.0193 19.507C66.3103 19.2968 66.6498 19.1266 67.0378 18.9972C67.4259 18.8678 67.8714 18.8038 68.3728 18.8038C69.4562 18.8039 70.3052 19.006 70.9197 19.4103C71.5503 19.7984 71.9867 20.4049 72.2292 21.2296H72.3025C72.4318 20.9385 72.601 20.6467 72.8113 20.3556C73.0377 20.0645 73.3048 19.8056 73.612 19.5792C73.9193 19.3367 74.2752 19.151 74.6794 19.0216C75.0837 18.8761 75.553 18.8038 76.0866 18.8038ZM108.814 30.3986H110.464V31.7091H104.448V30.3986H106.097V21.0353L104.562 20.7413C104.568 20.8131 104.572 20.8865 104.572 20.9621C104.572 21.5119 104.427 21.9492 104.135 22.2726C103.861 22.5797 103.481 22.7334 102.996 22.7335C102.494 22.7335 102.097 22.6036 101.806 22.3449C101.532 22.07 101.394 21.7305 101.394 21.3263C101.394 21.0514 101.451 20.8245 101.564 20.6466C101.677 20.4529 101.815 20.3402 101.976 20.3078V20.2345C101.928 20.2184 101.871 20.2101 101.806 20.2101C101.742 20.194 101.644 20.1867 101.515 20.1867C101.208 20.1867 100.901 20.2672 100.593 20.4288C100.303 20.5905 100.036 20.8011 99.7937 21.0597C99.5673 21.3023 99.3806 21.5849 99.2351 21.9083C99.0896 22.2156 99.0173 22.523 99.0173 22.8302V30.3986H101.152V31.7091H94.6501V30.3986H96.3005V21.0353L94.6501 20.7199V19.6525L98.9441 18.8038V21.0597H99.0652C99.1784 20.7686 99.3165 20.4933 99.4782 20.2345C99.6561 19.9597 99.8666 19.7171 100.109 19.507C100.368 19.2968 100.659 19.1265 100.982 18.9972C101.322 18.8679 101.702 18.8039 102.122 18.8038C102.866 18.8038 103.457 18.9895 103.893 19.3615C104.155 19.5761 104.338 19.8457 104.448 20.1681V19.6525L108.814 18.8038V30.3986ZM88.0945 20.2345C87.0756 20.2345 86.3238 20.5501 85.8386 21.1808C85.3697 21.8114 85.1355 22.6522 85.1355 23.7033V27.0997C85.1355 28.1508 85.3697 28.9915 85.8386 29.6222C86.3238 30.2529 87.0756 30.5685 88.0945 30.5685C89.1133 30.5685 89.8569 30.2529 90.3259 29.6222C90.811 28.9915 91.0544 28.1509 91.0544 27.0997V23.7033C91.0544 22.6522 90.811 21.8114 90.3259 21.1808C89.8569 20.5502 89.1132 20.2345 88.0945 20.2345ZM4.36594 0.511857C4.49193 -0.233298 4.76512 -0.0926706 5.0427 0.471818C5.73943 1.88752 5.77693 4.67764 6.89817 5.63783C7.06797 5.78338 7.26727 5.86369 7.41282 6.05776C7.63288 6.35165 7.7337 7.08247 7.77415 7.45912C7.8577 8.2421 7.69691 8.76839 8.29661 9.39369C8.4306 9.53308 8.61382 9.73263 8.81712 9.67104C8.90808 9.64341 9.27956 9.36669 9.36985 9.2892C9.97397 8.77106 10.3659 8.01429 11.0866 7.58315C11.8791 7.10878 13.0469 7.20063 13.5671 8.02944C13.6637 8.18339 13.6282 8.26801 13.6814 8.39858C13.7234 8.50161 13.8978 8.63144 13.9402 8.72768C13.9792 8.81527 13.9755 8.92704 14.0193 9.02944C14.0631 9.13191 14.3161 9.46058 14.2097 9.53334C14.1032 9.60575 13.9037 9.421 13.7947 9.39272C13.659 9.35785 13.339 9.38812 13.197 9.41908C12.8347 9.4997 12.6357 10.2215 12.6189 10.5529C12.7952 10.5623 12.9783 10.5394 13.154 10.5529C13.9673 10.6162 14.2992 10.7258 15.1072 10.3956C15.6986 10.1537 16.1436 9.7132 16.6872 9.41811C17.5281 8.96194 18.7059 8.93936 19.6472 8.78237C21.8904 8.40839 24.0895 8.09605 25.737 6.36635C26.0544 6.0328 26.4228 5.438 26.7341 5.16713C26.7752 5.13151 26.8255 5.10058 26.8786 5.0851L26.9607 5.14272C26.7565 6.00184 25.9842 6.5966 25.4431 7.24819C25.438 7.27351 25.4787 7.27083 25.4949 7.26479C25.654 7.19926 26.1175 6.86032 26.2839 6.74037C26.7837 6.38067 27.21 5.97611 27.6384 5.53627C27.7785 5.39277 28.2983 4.67684 28.5154 4.81264C28.5282 4.847 28.547 4.88721 28.5437 4.92494C28.5295 5.07587 28.0012 5.85241 27.8757 6.01576C27.5597 6.42882 27.1485 6.75312 26.7907 7.12709C27.1068 6.99637 27.431 6.80549 27.7214 6.62221C27.9438 6.48136 28.6176 5.93961 28.7956 5.89565C29.1433 5.8094 28.6968 6.42524 28.6374 6.50209C28.1449 7.1429 27.3638 7.52617 26.6872 7.94057C26.7094 7.98759 26.7752 7.93564 26.8083 7.92397C27.0637 7.83435 27.3016 7.64779 27.5866 7.6808C27.6223 7.93543 27.3623 8.09593 27.1824 8.22865C26.9095 8.4301 26.5892 8.60127 26.2732 8.71987C26.266 8.78425 26.3458 8.74832 26.3835 8.74428C26.6746 8.71531 26.8377 8.74742 26.5661 9.03041C26.0999 9.51621 25.3381 9.75341 24.7175 9.96498C24.7096 10.0247 24.7969 9.99782 24.8386 9.99916C24.9883 10.0038 25.3484 9.94201 25.2995 10.1808C25.2659 10.3465 24.927 10.5109 24.7976 10.6154L23.7156 11.0714C23.8994 11.0935 24.1457 11.0412 24.32 11.0714L24.3171 11.0695C24.4512 11.0931 24.5307 11.1833 24.5017 11.3214C24.4226 11.6967 23.2009 12.2106 22.8142 12.1769C22.8128 12.3042 23.0037 12.2715 22.9822 12.4279C22.9503 12.6588 22.5753 12.814 22.3718 12.8585C22.1184 12.9138 21.7783 12.8774 21.5593 12.9455C21.4817 12.9702 21.3291 13.1839 21.1784 13.256C20.9332 13.3739 20.5278 13.3635 20.3513 13.4572C20.3062 13.4815 20.2608 13.6076 20.2029 13.6642C20.0781 13.7848 19.8256 13.9303 19.6599 13.9855C19.5143 14.034 19.1967 14.0554 19.1003 14.1173C19.0229 14.1673 18.9825 14.3405 18.9226 14.424C18.6322 14.8309 18.2681 14.8712 17.907 15.1037C17.6972 15.239 17.676 15.3874 17.3699 15.4992C17.0296 15.6231 16.9648 15.6492 16.6482 15.8156C16.4002 15.9456 15.9541 16.0045 15.82 16.0861C15.7804 16.1103 15.7925 16.1734 15.7644 16.2091C15.6633 16.3365 15.1386 16.3233 14.9587 16.3732C14.6481 16.4594 14.3422 16.5295 14.0329 16.6232C13.7837 16.6986 13.5841 16.6422 13.3611 16.6779C13.2628 16.6934 13.2007 16.7645 13.0837 16.7794C12.9031 16.8023 12.7093 16.7298 12.5671 16.7453C12.4595 16.7575 12.3679 16.8483 12.2185 16.8517C12.0689 16.8551 11.885 16.7929 11.7341 16.7794C11.3918 16.7485 10.8703 16.7483 10.5652 16.5665C10.4338 16.4877 10.4058 16.3193 10.2663 16.2951C10.0837 16.7546 9.66176 17.0542 9.34641 17.4181C9.35183 17.5205 9.39571 17.6332 9.4011 17.7316C9.46855 19.0952 10.1693 20.3874 10.3601 21.7531C10.4571 22.4485 10.4587 22.8322 9.61301 22.63C9.43717 23.1932 9.17555 23.4583 8.56126 23.2462C8.30117 23.6755 7.86053 24.0486 7.4138 23.5958C7.27903 23.771 7.01909 24.1141 6.76438 24.0372C6.67764 24.0109 6.63037 23.8473 6.52219 23.8751C6.48379 23.8852 6.22046 24.1432 6.11399 24.1964C5.62819 24.4403 5.18942 24.2468 4.81614 23.9113C4.37481 24.1296 3.94673 24.2125 3.80051 23.629C3.20232 23.9382 2.75021 23.8476 2.90305 23.0763C2.31755 23.3189 1.73631 22.9285 2.00364 22.2804C1.27334 22.2904 0.783269 21.7944 1.14036 21.0695C0.645773 21.1032 0.390438 20.7818 0.571023 20.3068C-0.288081 19.7691 -0.11122 19.069 0.658913 18.5636C1.8893 17.7564 3.3259 17.1991 4.59739 16.4855C4.72474 16.4141 4.92361 16.3157 5.02805 16.2247C5.2861 15.9997 5.43191 15.4132 5.6677 15.1349C5.67442 15.0791 5.67274 15.0777 5.61887 15.0851C5.24026 15.137 4.8492 15.1201 4.70091 14.7033L4.65305 14.7062C4.38016 14.8908 3.94492 15.2514 3.59251 15.1369C3.5253 15.1145 3.48655 15.0384 3.43137 15.0216C3.23815 14.9638 3.20461 15.0317 3.00657 14.8585C2.78702 14.6659 2.80951 14.4768 2.697 14.338C2.65323 14.2842 2.55104 14.258 2.48704 14.2023C2.37181 14.1019 2.37685 13.9896 2.31419 13.9249C2.24809 13.857 2.09957 13.8311 2.02415 13.6964C1.94397 13.5522 1.99666 13.3471 1.95286 13.2824C1.93497 13.2594 1.69396 13.1736 1.62571 13.1261C1.42709 12.9873 1.30956 12.7099 1.31223 12.4708C1.31358 12.3341 1.45225 12.1377 1.45091 12.0548C1.44936 11.9769 1.33515 11.9299 1.29856 11.8634C1.17727 11.6417 1.36841 11.4713 1.34348 11.3703C1.25991 11.2498 1.10474 11.2347 1.02122 11.1027C0.877094 10.8737 0.942453 10.6288 1.07102 10.4132C0.908342 10.3885 0.345271 10.5439 0.28196 10.3546C0.181221 10.0527 0.400725 9.51369 0.655983 9.3224C0.289685 9.07318 0.225504 8.87414 0.482155 8.49623C-0.00567572 8.1782 0.0273538 7.70118 0.521218 7.41615C0.475996 7.24731 0.328877 7.13347 0.291726 6.95522C0.202781 6.52464 0.370635 6.33887 0.761452 6.20815C0.275647 5.47504 0.138943 4.86894 1.27903 4.94643C1.33802 4.90239 0.337004 3.9926 0.761452 3.68471C0.968333 3.53464 1.31979 3.78793 1.52122 3.87416C1.40873 3.60406 1.23539 3.37765 1.14036 3.09682C1.05346 2.83814 0.874517 2.31156 1.34641 2.44057C1.70016 2.7175 2.01715 3.04082 2.36887 3.32045C2.41065 3.35347 2.70759 3.5872 2.73118 3.56362L2.14915 2.53822C1.94835 1.98771 1.50997 1.35294 1.71751 0.757951C1.87032 0.677981 2.01033 0.762626 2.12278 0.868303C2.49204 1.216 2.88585 1.96935 3.22141 2.39858C3.24765 2.43222 3.27337 2.48152 3.31907 2.49037C3.1149 1.88472 2.80916 1.22842 2.70676 0.595842C2.4845 -0.77783 3.54738 0.652402 3.77512 1.04994C4.00268 1.44734 4.15451 1.91158 4.42454 2.28334C4.31539 1.70524 4.26692 1.09602 4.36594 0.511857ZM22.6306 20.1622C21.7252 20.1622 21.0298 20.4772 20.5447 21.1076C20.0595 21.7221 19.8161 22.6121 19.8161 23.7765V24.0919H25.3474V23.8253C25.3474 22.6609 25.1205 21.7627 24.6677 21.132C24.2311 20.4854 23.5522 20.1623 22.6306 20.1622ZM54.3298 20.1622C53.4244 20.1623 52.729 20.4771 52.2439 21.1076C51.7587 21.7221 51.5163 22.6121 51.5163 23.7765V24.0919H57.0466V23.8253C57.0466 22.6609 56.8207 21.7627 56.3679 21.132C55.9313 20.4851 55.2516 20.1622 54.3298 20.1622ZM116.534 20.1622C115.629 20.1623 114.933 20.4771 114.448 21.1076C113.963 21.7221 113.72 22.6121 113.72 23.7765V24.0919H119.251V23.8253C119.251 22.6609 119.025 21.7627 118.572 21.132C118.135 20.4852 117.456 20.1622 116.534 20.1622ZM107.456 13.3937C107.973 13.3937 108.378 13.5474 108.669 13.8546C108.96 14.1457 109.105 14.5263 109.105 14.9953V15.1408C109.105 15.6096 108.96 15.9976 108.669 16.3048C108.378 16.5959 107.973 16.7413 107.456 16.7413C106.938 16.7413 106.534 16.5959 106.243 16.3048C105.952 15.9976 105.806 15.6096 105.806 15.1408V14.9953C105.806 14.5263 105.952 14.1457 106.243 13.8546C106.534 13.5475 106.938 13.3937 107.456 13.3937Z" fill="#0F0F0F"/>
</svg>
