<svg width="46" height="46" viewBox="0 0 46 46" fill="none" xmlns="http://www.w3.org/2000/svg">
<g clip-path="url(#clip0_14_124)">
<path d="M37.9906 11.679C38.1441 11.8166 36.3418 14.8817 36.2595 15.407C35.4477 20.5798 37.8719 26.3949 33.9571 30.9854C30.813 34.6707 26.7273 34.3685 22.2793 34.34C21.0482 34.9745 18.863 37.7484 17.6461 37.9351C14.8295 38.3687 10.5967 36.6629 8.79284 34.4666C8.31022 33.8795 7.63771 33.0614 8.23268 32.3604C8.74695 31.7544 15.8486 30.536 17.1018 30.0328C11.2914 25.7921 8.18837 19.0892 10.6616 11.9638C10.9417 11.1568 11.6268 8.99212 12.8247 10.0254C13.1348 10.2928 13.9149 12.1125 14.2852 12.679C16.7094 16.396 21.0039 19.1588 25.4314 19.7284C25.8127 19.7775 26.5264 19.9484 26.7558 19.6715V16.2742C26.7558 15.9688 26.7115 15.6191 26.7827 15.3216C27.1451 13.7914 28.4584 12.4876 29.892 11.9053C30.4111 11.6948 30.9127 11.679 31.4586 11.679H37.9906ZM31.1421 15.5051C30.2101 15.7773 30.419 17.4324 31.4095 17.3786C32.802 17.3027 32.4555 15.1238 31.1421 15.5051Z" fill="url(#paint0_linear_14_124)"/>
<path d="M24.8552 17.6936C21.8709 17.2869 19.2299 15.5558 17.1839 13.426C16.9861 12.9022 19.559 8.39406 20.1461 8.14563C21.8804 7.41299 21.7411 9.62197 22.0877 10.7296C22.3266 11.4923 22.5972 12.3278 22.9311 13.0509C23.67 14.6539 25.1717 15.8375 24.8568 17.692L24.8552 17.6936Z" fill="url(#paint1_linear_14_124)"/>
</g>
<defs>
<linearGradient id="paint0_linear_14_124" x1="22.9994" y1="9.75143" x2="22.9994" y2="38.0028" gradientUnits="userSpaceOnUse">
<stop stop-color="#C091FF"/>
<stop offset="1" stop-color="#7C2CE8"/>
</linearGradient>
<linearGradient id="paint1_linear_14_124" x1="21.0363" y1="7.99975" x2="21.0363" y2="17.6936" gradientUnits="userSpaceOnUse">
<stop stop-color="#C091FF"/>
<stop offset="1" stop-color="#7C2CE8"/>
</linearGradient>
<clipPath id="clip0_14_124">
<rect width="30" height="30.0047" fill="white" transform="translate(8 8)"/>
</clipPath>
</defs>
</svg>
